  0
SECTION
  2
HEADER
  9
$ACADVER
  1
AC1014
  9
$ACADMAINTVER
 70
     9
  9
$DWGCODEPAGE
  3
ANSI_1252
  9
$INSBASE
 10
0.0
 20
0.0
 30
0.0
  9
$EXTMIN
 10
0.1252361111111175
 20
0.1248833333333333
 30
0.0
  9
$EXTMAX
 10
160.1251277777778
 20
190.1249972222222
 30
0.0
  9
$LIMMIN
 10
0.0
 20
0.0
  9
$LIMMAX
 10
12.0
 20
9.0
  9
$ORTHOMODE
 70
     0
  9
$REGENMODE
 70
     1
  9
$FILLMODE
 70
     1
  9
$QTEXTMODE
 70
     0
  9
$MIRRTEXT
 70
     1
  9
$DRAGMODE
 70
     2
  9
$LTSCALE
 40
1.0
  9
$OSMODE
 70
    37
  9
$ATTMODE
 70
     1
  9
$TEXTSIZE
 40
0.2
  9
$TRACEWID
 40
0.05
  9
$TEXTSTYLE
  7
STANDARD
  9
$CLAYER
  8
DEFAULT
  9
$CELTYPE
  6
BYLAYER
  9
$CECOLOR
 62
   256
  9
$CELTSCALE
 40
1.0
  9
$DELOBJ
 70
     1
  9
$DISPSILH
 70
     0
  9
$DIMSCALE
 40
1.0
  9
$DIMASZ
 40
0.18
  9
$DIMEXO
 40
0.0625
  9
$DIMDLI
 40
0.38
  9
$DIMRND
 40
0.0
  9
$DIMDLE
 40
0.0
  9
$DIMEXE
 40
0.18
  9
$DIMTP
 40
0.0
  9
$DIMTM
 40
0.0
  9
$DIMTXT
 40
0.18
  9
$DIMCEN
 40
0.09
  9
$DIMTSZ
 40
0.0
  9
$DIMTOL
 70
     0
  9
$DIMLIM
 70
     0
  9
$DIMTIH
 70
     1
  9
$DIMTOH
 70
     1
  9
$DIMSE1
 70
     0
  9
$DIMSE2
 70
     0
  9
$DIMTAD
 70
     0
  9
$DIMZIN
 70
     0
  9
$DIMBLK
  1

  9
$DIMASO
 70
     1
  9
$DIMSHO
 70
     1
  9
$DIMPOST
  1

  9
$DIMAPOST
  1

  9
$DIMALT
 70
     0
  9
$DIMALTD
 70
     2
  9
$DIMALTF
 40
25.4
  9
$DIMLFAC
 40
1.0
  9
$DIMTOFL
 70
     0
  9
$DIMTVP
 40
0.0
  9
$DIMTIX
 70
     0
  9
$DIMSOXD
 70
     0
  9
$DIMSAH
 70
     0
  9
$DIMBLK1
  1

  9
$DIMBLK2
  1

  9
$DIMSTYLE
  2
STANDARD
  9
$DIMCLRD
 70
     0
  9
$DIMCLRE
 70
     0
  9
$DIMCLRT
 70
     0
  9
$DIMTFAC
 40
1.0
  9
$DIMGAP
 40
0.09
  9
$DIMJUST
 70
     0
  9
$DIMSD1
 70
     0
  9
$DIMSD2
 70
     0
  9
$DIMTOLJ
 70
     1
  9
$DIMTZIN
 70
     0
  9
$DIMALTZ
 70
     0
  9
$DIMALTTZ
 70
     0
  9
$DIMFIT
 70
     5
  9
$DIMUPT
 70
     0
  9
$DIMUNIT
 70
     2
  9
$DIMDEC
 70
     4
  9
$DIMTDEC
 70
     4
  9
$DIMALTU
 70
     2
  9
$DIMALTTD
 70
     2
  9
$DIMTXSTY
  7
STANDARD
  9
$DIMAUNIT
 70
     0
  9
$LUNITS
 70
     2
  9
$LUPREC
 70
     3
  9
$SKETCHINC
 40
0.1
  9
$FILLETRAD
 40
0.5
  9
$AUNITS
 70
     0
  9
$AUPREC
 70
     0
  9
$MENU
  1
.
  9
$ELEVATION
 40
0.0
  9
$PELEVATION
 40
0.0
  9
$THICKNESS
 40
0.0
  9
$LIMCHECK
 70
     0
  9
$CHAMFERA
 40
0.0
  9
$CHAMFERB
 40
0.0
  9
$CHAMFERC
 40
0.0
  9
$CHAMFERD
 40
0.0
  9
$SKPOLY
 70
     0
  9
$TDCREATE
 40
2460158.916705382
  9
$TDUPDATE
 40
2460158.916705671
  9
$TDINDWG
 40
0.0000000116
  9
$TDUSRTIMER
 40
0.0000000116
  9
$USRTIMER
 70
     1
  9
$ANGBASE
 50
0.0
  9
$ANGDIR
 70
     0
  9
$PDMODE
 70
     0
  9
$PDSIZE
 40
0.0
  9
$PLINEWID
 40
0.0
  9
$COORDS
 70
     1
  9
$SPLFRAME
 70
     0
  9
$SPLINETYPE
 70
     6
  9
$SPLINESEGS
 70
     8
  9
$ATTDIA
 70
     0
  9
$ATTREQ
 70
     1
  9
$HANDLING
 70
     1
  9
$HANDSEED
  5
E6
  9
$SURFTAB1
 70
     6
  9
$SURFTAB2
 70
     6
  9
$SURFTYPE
 70
     6
  9
$SURFU
 70
     6
  9
$SURFV
 70
     6
  9
$UCSNAME
  2

  9
$UCSORG
 10
0.0
 20
0.0
 30
0.0
  9
$UCSXDIR
 10
1.0
 20
0.0
 30
0.0
  9
$UCSYDIR
 10
0.0
 20
1.0
 30
0.0
  9
$PUCSNAME
  2

  9
$PUCSORG
 10
0.0
 20
0.0
 30
0.0
  9
$PUCSXDIR
 10
1.0
 20
0.0
 30
0.0
  9
$PUCSYDIR
 10
0.0
 20
1.0
 30
0.0
  9
$USERI1
 70
     0
  9
$USERI2
 70
     0
  9
$USERI3
 70
     0
  9
$USERI4
 70
     0
  9
$USERI5
 70
     0
  9
$USERR1
 40
0.0
  9
$USERR2
 40
0.0
  9
$USERR3
 40
0.0
  9
$USERR4
 40
0.0
  9
$USERR5
 40
0.0
  9
$WORLDVIEW
 70
     1
  9
$SHADEDGE
 70
     3
  9
$SHADEDIF
 70
    70
  9
$TILEMODE
 70
     1
  9
$MAXACTVP
 70
    64
  9
$PINSBASE
 10
0.0
 20
0.0
 30
0.0
  9
$PLIMCHECK
 70
     0
  9
$PEXTMIN
 10
1.000000000000000E+20
 20
1.000000000000000E+20
 30
1.000000000000000E+20
  9
$PEXTMAX
 10
-1.000000000000000E+20
 20
-1.000000000000000E+20
 30
-1.000000000000000E+20
  9
$PLIMMIN
 10
0.0
 20
0.0
  9
$PLIMMAX
 10
12.0
 20
9.0
  9
$UNITMODE
 70
     0
  9
$VISRETAIN
 70
     1
  9
$PLINEGEN
 70
     0
  9
$PSLTSCALE
 70
     1
  9
$TREEDEPTH
 70
  3020
  9
$PICKSTYLE
 70
     1
  9
$CMLSTYLE
  2
STANDARD
  9
$CMLJUST
 70
     0
  9
$CMLSCALE
 40
1.0
  9
$PROXYGRAPHICS
 70
     1
  9
$MEASUREMENT
 70
     0
  0
ENDSEC
  0
SECTION
  2
CLASSES
  0
CLASS
  1
ACDBDICTIONARYWDFLT
  2
AcDbDictionaryWithDefault
  3
ObjectDBX Classes
 90
        0
280
     0
281
     0
  0
CLASS
  1
VISUALSTYLE
  2
AcDbVisualStyle
  3
ObjectDBX Classes
 90
     4095
280
     0
281
     0
  0
CLASS
  1
MATERIAL
  2
AcDbMaterial
  3
ObjectDBX Classes
 90
     1153
280
     0
281
     0
  0
CLASS
  1
SCALE
  2
AcDbScale
  3
ObjectDBX Classes
 90
     1153
280
     0
281
     0
  0
CLASS
  1
SUN
  2
AcDbSun
  3
SCENEOE
 90
     1153
280
     0
281
     0
  0
CLASS
  1
DICTIONARYVAR
  2
AcDbDictionaryVar
  3
ObjectDBX Classes
 90
        0
280
     0
281
     0
  0
CLASS
  1
XRECORD
  2
AcDbXrecord
  3
ObjectDBX Classes
 90
        0
280
     0
281
     0
  0
CLASS
  1
LWPOLYLINE
  2
AcDbPolyline
  3
ObjectDBX Classes
 90
        0
280
     0
281
     1
  0
CLASS
  1
HATCH
  2
AcDbHatch
  3
ObjectDBX Classes
 90
        0
280
     0
281
     1
  0
CLASS
  1
ACDBPLACEHOLDER
  2
AcDbPlaceHolder
  3
ObjectDBX Classes
 90
        0
280
     0
281
     0
  0
CLASS
  1
LAYOUT
  2
AcDbLayout
  3
ObjectDBX Classes
 90
        0
280
     0
281
     0
  0
ENDSEC
  0
SECTION
  2
TABLES
  0
TABLE
  2
VPORT
  5
8
330
0
100
AcDbSymbolTable
 70
     1
  0
VPORT
  5
29
330
8
100
AcDbSymbolTableRecord
100
AcDbViewportTableRecord
  2
*ACTIVE
 70
     0
 10
0.0
 20
0.0
 11
1.0
 21
1.0
 12
80.12518194444445
 22
95.12494027777775
 13
0.0
 23
0.0
 14
0.5
 24
0.5
 15
0.5
 25
0.5
 16
0.0
 26
0.0
 36
1.0
 17
0.0
 27
0.0
 37
0.0
 40
193.8001161666666
 41
0.8421041882124018
 42
50.0
 43
0.0
 44
0.0
 50
0.0
 51
0.0
 71
     0
 72
   100
 73
     1
 74
     3
 75
     0
 76
     0
 77
     0
 78
     0
  0
ENDTAB
  0
TABLE
  2
LTYPE
  5
5
330
0
100
AcDbSymbolTable
 70
     1
  0
LTYPE
  5
14
330
5
100
AcDbSymbolTableRecord
100
AcDbLinetypeTableRecord
  2
BYBLOCK
 70
     0
  3

 72
    65
 73
     0
 40
0.0
  0
LTYPE
  5
15
330
5
100
AcDbSymbolTableRecord
100
AcDbLinetypeTableRecord
  2
BYLAYER
 70
     0
  3

 72
    65
 73
     0
 40
0.0
  0
LTYPE
  5
16
330
5
100
AcDbSymbolTableRecord
100
AcDbLinetypeTableRecord
  2
CONTINUOUS
 70
     0
  3
Solid line
 72
    65
 73
     0
 40
0.0
  0
ENDTAB
  0
TABLE
  2
LAYER
  5
2
330
0
100
AcDbSymbolTable
 70
     2
  0
LAYER
  5
10
330
2
100
AcDbSymbolTableRecord
100
AcDbLayerTableRecord
  2
0
 70
     0
 62
     7
  6
CONTINUOUS
  0
LAYER
  5
6A
330
2
100
AcDbSymbolTableRecord
100
AcDbLayerTableRecord
  2
DEFAULT
 70
     0
 62
    18
  6
CONTINUOUS
  0
ENDTAB
  0
TABLE
  2
STYLE
  5
3
330
0
100
AcDbSymbolTable
 70
     1
  0
STYLE
  5
11
330
3
100
AcDbSymbolTableRecord
100
AcDbTextStyleTableRecord
  2
STANDARD
 70
     0
 40
0.0
 41
1.0
 50
0.0
 71
     0
 42
0.2
  3
txt
  4

  0
ENDTAB
  0
TABLE
  2
VIEW
  5
6
330
0
100
AcDbSymbolTable
 70
     0
  0
ENDTAB
  0
TABLE
  2
UCS
  5
7
330
0
100
AcDbSymbolTable
 70
     0
  0
ENDTAB
  0
TABLE
  2
APPID
  5
9
330
0
100
AcDbSymbolTable
 70
     1
  0
APPID
  5
12
330
9
100
AcDbSymbolTableRecord
100
AcDbRegAppTableRecord
  2
ACAD
 70
     0
  0
ENDTAB
  0
TABLE
  2
DIMSTYLE
  5
A
330
0
100
AcDbSymbolTable
 70
     1
  0
DIMSTYLE
105
27
330
A
100
AcDbSymbolTableRecord
100
AcDbDimStyleTableRecord
  2
STANDARD
 70
     0
  3

  4

  5

  6

  7

 40
1.0
 41
0.18
 42
0.0625
 43
0.38
 44
0.18
 45
0.0
 46
0.0
 47
0.0
 48
0.0
140
0.18
141
0.09
142
0.0
143
25.4
144
1.0
145
0.0
146
1.0
147
0.09
 71
     0
 72
     0
 73
     1
 74
     1
 75
     0
 76
     0
 77
     0
 78
     0
170
     0
171
     2
172
     0
173
     0
174
     0
175
     0
176
     0
177
     0
178
     0
270
     2
271
     4
272
     4
273
     2
274
     2
340
11
275
     0
280
     0
281
     0
282
     0
283
     1
284
     0
285
     0
286
     0
287
     3
288
     0
  0
ENDTAB
  0
TABLE
  2
BLOCK_RECORD
  5
1
330
0
100
AcDbSymbolTable
 70
     1
  0
BLOCK_RECORD
  5
1F
330
1
100
AcDbSymbolTableRecord
100
AcDbBlockTableRecord
  2
*MODEL_SPACE
  0
BLOCK_RECORD
  5
1B
330
1
100
AcDbSymbolTableRecord
100
AcDbBlockTableRecord
  2
*PAPER_SPACE
  0
ENDTAB
  0
ENDSEC
  0
SECTION
  2
BLOCKS
  0
BLOCK
  5
20
330
1F
100
AcDbEntity
  8
0
100
AcDbBlockBegin
  2
*MODEL_SPACE
 70
     0
 10
0.0
 20
0.0
 30
0.0
  3
*MODEL_SPACE
  1

  0
ENDBLK
  5
21
330
1F
100
AcDbEntity
  8
0
100
AcDbBlockEnd
  0
BLOCK
  5
1C
330
1B
100
AcDbEntity
 67
     1
  8
0
100
AcDbBlockBegin
  2
*PAPER_SPACE
 70
     0
 10
0.0
 20
0.0
 30
0.0
  3
*PAPER_SPACE
  1

  0
ENDBLK
  5
1D
330
1B
100
AcDbEntity
 67
     1
  8
0
100
AcDbBlockEnd
  0
ENDSEC
  0
SECTION
  2
ENTITIES
  0
SPLINE
  5
6B
330
1F
100
AcDbEntity
  8
DEFAULT
 62
    18
100
AcDbSpline
210
0.0
220
0.0
230
1.0
 70
    11
 71
     3
 72
    47
 73
    43
 74
     0
 42
0.000000001
 43
0.0000000001
 40
12.44900000000001
 40
12.44900000000001
 40
12.44900000000001
 40
12.44900000000001
 40
14.06900000000001
 40
14.06900000000001
 40
14.06900000000001
 40
16.95430760925071
 40
16.95430760925071
 40
16.95430760925071
 40
17.95430760925071
 40
17.95430760925071
 40
17.95430760925071
 40
18.95430760925071
 40
18.95430760925071
 40
18.95430760925071
 40
19.95430760925071
 40
19.95430760925071
 40
19.95430760925071
 40
21.99518977145409
 40
21.99518977145409
 40
21.99518977145409
 40
22.99518977145409
 40
22.99518977145409
 40
22.99518977145409
 40
23.99518977145409
 40
23.99518977145409
 40
23.99518977145409
 40
24.99518977145409
 40
24.99518977145409
 40
24.99518977145409
 40
27.11752834010897
 40
27.11752834010897
 40
27.11752834010897
 40
27.17852834010897
 40
27.17852834010897
 40
27.17852834010897
 40
35.93752834010898
 40
35.93752834010898
 40
35.93752834010898
 40
38.12652834010898
 40
38.12652834010898
 40
38.12652834010898
 40
50.575528340109
 40
50.575528340109
 40
50.575528340109
 40
50.575528340109
 10
97.37400444444444
 20
18.66748305555555
 30
0.0
 10
97.37400444444444
 20
18.85798305555555
 30
0.0
 10
97.37400444444444
 20
19.04848305555555
 30
0.0
 10
97.37400444444444
 20
19.23898305555555
 30
0.0
 10
97.61742111111111
 20
19.47534416666666
 30
0.0
 10
97.86083777777776
 20
19.71170527777778
 30
0.0
 10
98.10425444444444
 20
19.94806638888889
 30
0.0
 10
99.86073499999999
 20
21.61988027777778
 30
0.0
 10
100.654485
 20
22.50923305555555
 30
0.0
 10
100.6654211111111
 20
23.54604694444444
 30
0.0
 10
100.6654211111111
 20
24.24489972222222
 30
0.0
 10
100.3267544444444
 20
24.89013027777778
 30
0.0
 10
99.3001711111111
 20
24.89013027777778
 30
0.0
 10
98.67575444444444
 20
24.89013027777778
 30
0.0
 10
98.15717111111111
 20
24.57263027777778
 30
0.0
 10
97.8396711111111
 20
24.30804694444445
 30
0.0
 10
97.74089333333332
 20
24.52676916666667
 30
0.0
 10
97.64211555555555
 20
24.74549138888889
 30
0.0
 10
97.54333777777778
 20
24.96421361111111
 30
0.0
 10
98.01958777777777
 20
25.36638027777778
 30
0.0
 10
98.69692111111111
 20
25.66271361111111
 30
0.0
 10
99.4906711111111
 20
25.66271361111111
 30
0.0
 10
100.971985
 20
25.66271361111111
 30
0.0
 10
101.5964016666667
 20
24.64671361111111
 30
0.0
 10
101.5964016666667
 20
23.66246361111111
 30
0.0
 10
101.5964016666667
 20
22.39281638888889
 30
0.0
 10
100.6756516666667
 20
21.36588027777778
 30
0.0
 10
99.22608777777778
 20
19.96888027777778
 30
0.0
 10
99.04264333333333
 20
19.79966453703704
 30
0.0
 10
98.85919888888888
 20
19.6304487962963
 30
0.0
 10
98.67575444444444
 20
19.46123305555555
 30
0.0
 10
98.67575444444442
 20
19.45405990740741
 30
0.0
 10
98.67575444444442
 20
19.44688675925926
 30
0.0
 10
98.67575444444444
 20
19.43971361111111
 30
0.0
 10
99.70574796296296
 20
19.43971361111111
 30
0.0
 10
100.7357414814815
 20
19.43971361111111
 30
0.0
 10
101.765735
 20
19.43971361111111
 30
0.0
 10
101.765735
 20
19.18230342592593
 30
0.0
 10
101.765735
 20
18.92489324074074
 30
0.0
 10
101.765735
 20
18.66748305555555
 30
0.0
 10
100.3018248148148
 20
18.66748305555555
 30
0.0
 10
98.83791462962962
 20
18.66748305555555
 30
0.0
 10
97.37400444444444
 20
18.66748305555555
 30
0.0
  0
SPLINE
  5
6C
330
1F
100
AcDbEntity
  8
DEFAULT
 62
    18
100
AcDbSpline
210
0.0
220
0.0
230
1.0
 70
    11
 71
     3
 72
    59
 73
    55
 74
     0
 42
0.000000001
 43
0.0000000001
 40
0.0
 40
0.0
 40
0.0
 40
0.0
 40
3.744235569512197
 40
3.744235569512197
 40
3.744235569512197
 40
4.744235569512197
 40
4.744235569512197
 40
4.744235569512197
 40
4.835235569512205
 40
4.835235569512205
 40
4.835235569512205
 40
5.835235569512205
 40
5.835235569512205
 40
5.835235569512205
 40
9.537896774645631
 40
9.537896774645631
 40
9.537896774645631
 40
12.3878967746456
 40
12.3878967746456
 40
12.3878967746456
 40
20.97759409178081
 40
20.97759409178081
 40
20.97759409178081
 40
30.04676169415755
 40
30.04676169415755
 40
30.04676169415755
 40
33.04576169415752
 40
33.04576169415752
 40
33.04576169415752
 40
36.94829933010672
 40
36.94829933010672
 40
36.94829933010672
 40
37.94829933010672
 40
37.94829933010672
 40
37.94829933010672
 40
38.00829933010672
 40
38.00829933010672
 40
38.00829933010672
 40
39.00829933010672
 40
39.00829933010672
 40
39.00829933010672
 40
42.89454430437171
 40
42.89454430437171
 40
42.89454430437171
 40
45.80454430437173
 40
45.80454430437173
 40
45.80454430437173
 40
54.83414562447442
 40
54.83414562447442
 40
54.83414562447442
 40
63.48044541108835
 40
63.48044541108835
 40
63.48044541108835
 40
66.42044541108835
 40
66.42044541108835
 40
66.42044541108835
 40
66.42044541108835
 10
93.20406527777774
 20
23.78964
 30
0.0
 10
93.44748194444442
 20
23.4227511111111
 30
0.0
 10
93.69089861111108
 20
23.05586222222221
 30
0.0
 10
93.93431527777776
 20
22.68897333333332
 30
0.0
 10
94.12481527777777
 20
22.40287055555555
 30
0.0
 10
94.28356527777777
 20
22.13864
 30
0.0
 10
94.45254583333332
 20
21.85289
 30
0.0
 10
94.46324675925923
 20
21.85288999999999
 30
0.0
 10
94.47394768518518
 20
21.85288999999999
 30
0.0
 10
94.4846486111111
 20
21.85289
 30
0.0
 10
94.65398194444444
 20
22.15980666666666
 30
0.0
 10
94.82331527777775
 20
22.42439
 30
0.0
 10
94.9926486111111
 20
22.69955666666666
 30
0.0
 10
95.23253749999999
 20
23.06291777777777
 30
0.0
 10
95.47242638888888
 20
23.42627888888888
 30
0.0
 10
95.71231527777776
 20
23.78964
 30
0.0
 10
96.04745416666664
 20
23.78964
 30
0.0
 10
96.38259305555555
 20
23.78964
 30
0.0
 10
96.71773194444442
 20
23.78964
 30
0.0
 10
96.1356486111111
 20
22.96414
 30
0.0
 10
95.55356527777775
 20
22.13864
 30
0.0
 10
94.97148194444442
 20
21.31314
 30
0.0
 10
95.57108657407404
 20
20.43119555555555
 30
0.0
 10
96.17069120370367
 20
19.54925111111111
 30
0.0
 10
96.77029583333331
 20
18.66730666666666
 30
0.0
 10
96.41763564814812
 20
18.66730666666666
 30
0.0
 10
96.06497546296293
 20
18.66730666666666
 30
0.0
 10
95.71231527777776
 20
18.66730666666666
 30
0.0
 10
95.46184305555555
 20
19.05183444444444
 30
0.0
 10
95.21137083333333
 20
19.43636222222222
 30
0.0
 10
94.9608986111111
 20
19.82089
 30
0.0
 10
94.75981527777778
 20
20.11722333333333
 30
0.0
 10
94.59048194444443
 20
20.40297333333333
 30
0.0
 10
94.41056527777776
 20
20.70988999999999
 30
0.0
 10
94.40350972222221
 20
20.70988999999999
 30
0.0
 10
94.39645416666666
 20
20.70988999999999
 30
0.0
 10
94.3893986111111
 20
20.70988999999999
 30
0.0
 10
94.22006527777776
 20
20.40297333333333
 30
0.0
 10
94.04014861111109
 20
20.12780666666666
 30
0.0
 10
93.84964861111109
 20
19.82089
 30
0.0
 10
93.60270416666664
 20
19.43636222222222
 30
0.0
 10
93.3557597222222
 20
19.05183444444444
 30
0.0
 10
93.10881527777777
 20
18.66730666666666
 30
0.0
 10
92.76662083333332
 20
18.66730666666666
 30
0.0
 10
92.42442638888888
 20
18.66730666666666
 30
0.0
 10
92.08223194444443
 20
18.66730666666666
 30
0.0
 10
92.68900972222222
 20
19.53866777777777
 30
0.0
 10
93.2957875
 20
20.41002888888888
 30
0.0
 10
93.90256527777777
 20
21.28138999999999
 30
0.0
 10
93.32400972222221
 20
22.11747333333333
 30
0.0
 10
92.74545416666666
 20
22.95355666666667
 30
0.0
 10
92.1668986111111
 20
23.78964
 30
0.0
 10
92.51262083333332
 20
23.78964
 30
0.0
 10
92.85834305555552
 20
23.78964
 30
0.0
 10
93.20406527777774
 20
23.78964
 30
0.0
  0
POLYLINE
  5
6D
330
1F
100
AcDbEntity
  8
DEFAULT
 62
    18
100
AcDb2dPolyline
 66
     1
 10
0.0
 20
0.0
 30
0.0
 70
     1
  0
VERTEX
  5
6E
330
6D
100
AcDbEntity
  8
DEFAULT
 62
    18
100
AcDbVertex
100
AcDb2dVertex
 10
100.2525652777778
 20
68.05922944444444
 30
0.0
  0
VERTEX
  5
6F
330
6D
100
AcDbEntity
  8
DEFAULT
 62
    18
100
AcDbVertex
100
AcDb2dVertex
 10
100.2525652777778
 20
69.93247944444444
 30
0.0
  0
VERTEX
  5
70
330
6D
100
AcDbEntity
  8
DEFAULT
 62
    18
100
AcDbVertex
100
AcDb2dVertex
 10
97.0563986111111
 20
69.93247944444444
 30
0.0
  0
VERTEX
  5
71
330
6D
100
AcDbEntity
  8
DEFAULT
 62
    18
100
AcDbVertex
100
AcDb2dVertex
 10
97.0563986111111
 20
70.54631277777777
 30
0.0
  0
VERTEX
  5
72
330
6D
100
AcDbEntity
  8
DEFAULT
 62
    18
100
AcDbVertex
100
AcDb2dVertex
 10
100.1255652777778
 20
74.93804333333333
 30
0.0
  0
VERTEX
  5
73
330
6D
100
AcDbEntity
  8
DEFAULT
 62
    18
100
AcDbVertex
100
AcDb2dVertex
 10
101.1309819444444
 20
74.93804333333333
 30
0.0
  0
VERTEX
  5
74
330
6D
100
AcDbEntity
  8
DEFAULT
 62
    18
100
AcDbVertex
100
AcDb2dVertex
 10
101.1309819444444
 20
70.66272944444444
 30
0.0
  0
VERTEX
  5
75
330
6D
100
AcDbEntity
  8
DEFAULT
 62
    18
100
AcDbVertex
100
AcDb2dVertex
 10
102.0940652777778
 20
70.66272944444444
 30
0.0
  0
VERTEX
  5
76
330
6D
100
AcDbEntity
  8
DEFAULT
 62
    18
100
AcDbVertex
100
AcDb2dVertex
 10
102.0940652777778
 20
69.93247944444444
 30
0.0
  0
VERTEX
  5
77
330
6D
100
AcDbEntity
  8
DEFAULT
 62
    18
100
AcDbVertex
100
AcDb2dVertex
 10
101.1309819444444
 20
69.93247944444444
 30
0.0
  0
VERTEX
  5
78
330
6D
100
AcDbEntity
  8
DEFAULT
 62
    18
100
AcDbVertex
100
AcDb2dVertex
 10
101.1309819444444
 20
68.05922944444444
 30
0.0
  0
SEQEND
  5
79
330
6D
100
AcDbEntity
  8
DEFAULT
 62
    18
  0
SPLINE
  5
7A
330
1F
100
AcDbEntity
  8
DEFAULT
 62
    18
100
AcDbSpline
210
0.0
220
0.0
230
1.0
 70
    11
 71
     3
 72
    26
 73
    22
 74
     0
 42
0.000000001
 43
0.0000000001
 40
6.389999999999986
 40
6.389999999999986
 40
6.389999999999986
 40
6.389999999999986
 40
12.89999999999998
 40
12.89999999999998
 40
12.89999999999998
 40
13.89999999999998
 40
13.89999999999998
 40
13.89999999999998
 40
13.98999999999995
 40
13.98999999999995
 40
13.98999999999995
 40
14.98999999999995
 40
14.98999999999995
 40
14.98999999999995
 40
23.15679502620208
 40
23.15679502620208
 40
23.15679502620208
 40
23.21679502620208
 40
23.21679502620208
 40
23.21679502620208
 40
29.60679502620206
 40
29.60679502620206
 40
29.60679502620206
 40
29.60679502620206
 10
100.2525652777778
 20
70.66272944444444
 30
0.0
 10
100.2525652777778
 20
71.42825722222221
 30
0.0
 10
100.2525652777778
 20
72.19378499999999
 30
0.0
 10
100.2525652777778
 20
72.95931277777777
 30
0.0
 10
100.2525652777778
 20
73.31879333333332
 30
0.0
 10
100.2631486111111
 20
73.67862666666666
 30
0.0
 10
100.2843152777778
 20
74.03845999999999
 30
0.0
 10
100.2737319444444
 20
74.03845999999999
 30
0.0
 10
100.2631486111111
 20
74.03845999999999
 30
0.0
 10
100.2525652777778
 20
74.03845999999999
 30
0.0
 10
100.0408986111111
 20
73.6366461111111
 30
0.0
 10
99.87156527777778
 20
73.33995999999999
 30
0.0
 10
99.68106527777776
 20
73.02246
 30
0.0
 10
99.1201486111111
 20
72.2429387037037
 30
0.0
 10
98.55923194444445
 20
71.46341740740742
 30
0.0
 10
97.99831527777778
 20
70.68389611111111
 30
0.0
 10
97.99831527777776
 20
70.67684055555554
 30
0.0
 10
97.99831527777776
 20
70.66978499999999
 30
0.0
 10
97.99831527777778
 20
70.66272944444444
 30
0.0
 10
98.74973194444443
 20
70.66272944444444
 30
0.0
 10
99.5011486111111
 20
70.66272944444444
 30
0.0
 10
100.2525652777778
 20
70.66272944444444
 30
0.0
  0
SPLINE
  5
7B
330
1F
100
AcDbEntity
  8
DEFAULT
 62
    18
100
AcDbSpline
210
0.0
220
0.0
230
1.0
 70
    11
 71
     3
 72
    59
 73
    55
 74
     0
 42
0.000000001
 43
0.0000000001
 40
0.0
 40
0.0
 40
0.0
 40
0.0
 40
3.744235569512153
 40
3.744235569512153
 40
3.744235569512153
 40
4.744235569512153
 40
4.744235569512153
 40
4.744235569512153
 40
4.835235569512161
 40
4.835235569512161
 40
4.835235569512161
 40
5.835235569512161
 40
5.835235569512161
 40
5.835235569512161
 40
9.537896774645585
 40
9.537896774645585
 40
9.537896774645585
 40
12.38789677464555
 40
12.38789677464555
 40
12.38789677464555
 40
20.97759409178077
 40
20.97759409178077
 40
20.97759409178077
 40
30.04676169415751
 40
30.04676169415751
 40
30.04676169415751
 40
33.04576169415748
 40
33.04576169415748
 40
33.04576169415748
 40
36.94829933010669
 40
36.94829933010669
 40
36.94829933010669
 40
37.94829933010669
 40
37.94829933010669
 40
37.94829933010669
 40
38.00829933010669
 40
38.00829933010669
 40
38.00829933010669
 40
39.00829933010669
 40
39.00829933010669
 40
39.00829933010669
 40
42.89454430437168
 40
42.89454430437168
 40
42.89454430437168
 40
45.8045443043717
 40
45.8045443043717
 40
45.8045443043717
 40
54.83414562447439
 40
54.83414562447439
 40
54.83414562447439
 40
63.48044541108833
 40
63.48044541108833
 40
63.48044541108833
 40
66.42044541108834
 40
66.42044541108834
 40
66.42044541108834
 40
66.42044541108834
 10
93.20406527777776
 20
73.18145694444443
 30
0.0
 10
93.44748194444442
 20
72.81456805555554
 30
0.0
 10
93.69089861111108
 20
72.44767916666665
 30
0.0
 10
93.93431527777776
 20
72.08079027777777
 30
0.0
 10
94.12481527777777
 20
71.79504027777777
 30
0.0
 10
94.28356527777777
 20
71.53045694444444
 30
0.0
 10
94.45254583333332
 20
71.24470694444443
 30
0.0
 10
94.46324675925923
 20
71.24470694444443
 30
0.0
 10
94.47394768518518
 20
71.24470694444443
 30
0.0
 10
94.4846486111111
 20
71.24470694444443
 30
0.0
 10
94.65398194444444
 20
71.5516236111111
 30
0.0
 10
94.82331527777775
 20
71.81620694444443
 30
0.0
 10
94.9926486111111
 20
72.09137361111111
 30
0.0
 10
95.23253749999999
 20
72.45473472222221
 30
0.0
 10
95.47242638888888
 20
72.81809583333332
 30
0.0
 10
95.71231527777776
 20
73.18145694444443
 30
0.0
 10
96.04745416666664
 20
73.18145694444443
 30
0.0
 10
96.38259305555555
 20
73.18145694444443
 30
0.0
 10
96.71773194444442
 20
73.18145694444443
 30
0.0
 10
96.1356486111111
 20
72.35595694444443
 30
0.0
 10
95.55356527777775
 20
71.53045694444442
 30
0.0
 10
94.97148194444442
 20
70.70495694444443
 30
0.0
 10
95.57108657407404
 20
69.82301249999999
 30
0.0
 10
96.17069120370367
 20
68.94106805555555
 30
0.0
 10
96.77029583333331
 20
68.0591236111111
 30
0.0
 10
96.41763564814812
 20
68.0591236111111
 30
0.0
 10
96.06497546296293
 20
68.0591236111111
 30
0.0
 10
95.71231527777776
 20
68.0591236111111
 30
0.0
 10
95.46184305555555
 20
68.44365138888888
 30
0.0
 10
95.21137083333333
 20
68.82817916666666
 30
0.0
 10
94.9608986111111
 20
69.21270694444443
 30
0.0
 10
94.75981527777778
 20
69.50904027777777
 30
0.0
 10
94.59048194444443
 20
69.79479027777778
 30
0.0
 10
94.41056527777776
 20
70.10170694444444
 30
0.0
 10
94.40350972222221
 20
70.10170694444444
 30
0.0
 10
94.39645416666666
 20
70.10170694444444
 30
0.0
 10
94.3893986111111
 20
70.10170694444444
 30
0.0
 10
94.22006527777776
 20
69.79479027777778
 30
0.0
 10
94.04014861111109
 20
69.5196236111111
 30
0.0
 10
93.84964861111109
 20
69.21270694444443
 30
0.0
 10
93.60270416666664
 20
68.82817916666666
 30
0.0
 10
93.3557597222222
 20
68.44365138888888
 30
0.0
 10
93.10881527777777
 20
68.0591236111111
 30
0.0
 10
92.76662083333332
 20
68.0591236111111
 30
0.0
 10
92.42442638888888
 20
68.0591236111111
 30
0.0
 10
92.08223194444443
 20
68.0591236111111
 30
0.0
 10
92.68900972222222
 20
68.93048472222222
 30
0.0
 10
93.2957875
 20
69.80184583333333
 30
0.0
 10
93.90256527777777
 20
70.67320694444443
 30
0.0
 10
93.32400972222221
 20
71.50929027777777
 30
0.0
 10
92.74545416666666
 20
72.3453736111111
 30
0.0
 10
92.1668986111111
 20
73.18145694444443
 30
0.0
 10
92.51262083333332
 20
73.18145694444443
 30
0.0
 10
92.85834305555552
 20
73.18145694444443
 30
0.0
 10
93.20406527777776
 20
73.18145694444443
 30
0.0
  0
POLYLINE
  5
7C
330
1F
100
AcDbEntity
  8
DEFAULT
 62
    18
100
AcDb2dPolyline
 66
     1
 10
0.0
 20
0.0
 30
0.0
 70
     1
  0
VERTEX
  5
7D
330
7C
100
AcDbEntity
  8
DEFAULT
 62
    18
100
AcDbVertex
100
AcDb2dVertex
 10
99.3952447222222
 20
125.37567
 30
0.0
  0
VERTEX
  5
7E
330
7C
100
AcDbEntity
  8
DEFAULT
 62
    18
100
AcDbVertex
100
AcDb2dVertex
 10
99.37407805555554
 20
125.37567
 30
0.0
  0
VERTEX
  5
7F
330
7C
100
AcDbEntity
  8
DEFAULT
 62
    18
100
AcDbVertex
100
AcDb2dVertex
 10
98.17816138888888
 20
124.7304394444444
 30
0.0
  0
VERTEX
  5
80
330
7C
100
AcDbEntity
  8
DEFAULT
 62
    18
100
AcDbVertex
100
AcDb2dVertex
 10
97.99824472222221
 20
125.43917
 30
0.0
  0
VERTEX
  5
81
330
7C
100
AcDbEntity
  8
DEFAULT
 62
    18
100
AcDbVertex
100
AcDb2dVertex
 10
99.50107805555554
 20
126.2435033333333
 30
0.0
  0
VERTEX
  5
82
330
7C
100
AcDbEntity
  8
DEFAULT
 62
    18
100
AcDbVertex
100
AcDb2dVertex
 10
100.2948280555555
 20
126.2435033333333
 30
0.0
  0
VERTEX
  5
83
330
7C
100
AcDbEntity
  8
DEFAULT
 62
    18
100
AcDbVertex
100
AcDb2dVertex
 10
100.2948280555555
 20
119.3646894444444
 30
0.0
  0
VERTEX
  5
84
330
7C
100
AcDbEntity
  8
DEFAULT
 62
    18
100
AcDbVertex
100
AcDb2dVertex
 10
99.3952447222222
 20
119.3646894444444
 30
0.0
  0
SEQEND
  5
85
330
7C
100
AcDbEntity
  8
DEFAULT
 62
    18
  0
SPLINE
  5
86
330
1F
100
AcDbEntity
  8
DEFAULT
 62
    18
100
AcDbSpline
210
0.0
220
0.0
230
1.0
 70
    11
 71
     3
 72
    59
 73
    55
 74
     0
 42
0.000000001
 43
0.0000000001
 40
0.0
 40
0.0
 40
0.0
 40
0.0
 40
3.744235569512122
 40
3.744235569512122
 40
3.744235569512122
 40
4.744235569512123
 40
4.744235569512123
 40
4.744235569512123
 40
4.835235569512131
 40
4.835235569512131
 40
4.835235569512131
 40
5.835235569512131
 40
5.835235569512131
 40
5.835235569512131
 40
9.537896774645532
 40
9.537896774645532
 40
9.537896774645532
 40
12.3878967746455
 40
12.3878967746455
 40
12.3878967746455
 40
20.97759409178069
 40
20.97759409178069
 40
20.97759409178069
 40
30.04676169415744
 40
30.04676169415744
 40
30.04676169415744
 40
33.04576169415741
 40
33.04576169415741
 40
33.04576169415741
 40
36.94829933010659
 40
36.94829933010659
 40
36.94829933010659
 40
37.94829933010659
 40
37.94829933010659
 40
37.94829933010659
 40
38.0082993301066
 40
38.0082993301066
 40
38.0082993301066
 40
39.0082993301066
 40
39.0082993301066
 40
39.0082993301066
 40
42.89454430437156
 40
42.89454430437156
 40
42.89454430437156
 40
45.80454430437159
 40
45.80454430437159
 40
45.80454430437159
 40
54.83414562447425
 40
54.83414562447425
 40
54.83414562447425
 40
63.4804454110882
 40
63.4804454110882
 40
63.4804454110882
 40
66.4204454110882
 40
66.4204454110882
 40
66.4204454110882
 40
66.4204454110882
 10
93.20406527777774
 20
124.4868463888889
 30
0.0
 10
93.44748194444439
 20
124.1199575
 30
0.0
 10
93.69089861111104
 20
123.7530686111111
 30
0.0
 10
93.93431527777771
 20
123.3861797222222
 30
0.0
 10
94.12481527777777
 20
123.1004297222222
 30
0.0
 10
94.28356527777777
 20
122.8358463888889
 30
0.0
 10
94.45254583333332
 20
122.5500963888889
 30
0.0
 10
94.46324675925923
 20
122.5500963888889
 30
0.0
 10
94.47394768518518
 20
122.5500963888889
 30
0.0
 10
94.4846486111111
 20
122.5500963888889
 30
0.0
 10
94.65398194444444
 20
122.8570130555555
 30
0.0
 10
94.82331527777775
 20
123.1215963888889
 30
0.0
 10
94.9926486111111
 20
123.3967630555556
 30
0.0
 10
95.23253749999999
 20
123.7601241666667
 30
0.0
 10
95.47242638888888
 20
124.1234852777778
 30
0.0
 10
95.71231527777776
 20
124.4868463888889
 30
0.0
 10
96.04745416666664
 20
124.4868463888889
 30
0.0
 10
96.38259305555555
 20
124.4868463888889
 30
0.0
 10
96.71773194444442
 20
124.4868463888889
 30
0.0
 10
96.1356486111111
 20
123.6613463888889
 30
0.0
 10
95.55356527777775
 20
122.8358463888889
 30
0.0
 10
94.97148194444442
 20
122.0103463888889
 30
0.0
 10
95.57108657407404
 20
121.1284019444444
 30
0.0
 10
96.17069120370367
 20
120.2464575
 30
0.0
 10
96.77029583333331
 20
119.3645130555555
 30
0.0
 10
96.41763564814812
 20
119.3645130555555
 30
0.0
 10
96.06497546296293
 20
119.3645130555555
 30
0.0
 10
95.71231527777776
 20
119.3645130555555
 30
0.0
 10
95.46184305555555
 20
119.7490408333333
 30
0.0
 10
95.21137083333333
 20
120.1335686111111
 30
0.0
 10
94.9608986111111
 20
120.5180963888889
 30
0.0
 10
94.75981527777778
 20
120.8144297222222
 30
0.0
 10
94.59048194444443
 20
121.1001797222222
 30
0.0
 10
94.41056527777776
 20
121.4070963888889
 30
0.0
 10
94.40350972222221
 20
121.4070963888889
 30
0.0
 10
94.39645416666666
 20
121.4070963888889
 30
0.0
 10
94.3893986111111
 20
121.4070963888889
 30
0.0
 10
94.22006527777776
 20
121.1001797222222
 30
0.0
 10
94.04014861111109
 20
120.8250130555555
 30
0.0
 10
93.84964861111109
 20
120.5180963888889
 30
0.0
 10
93.60270416666664
 20
120.1335686111111
 30
0.0
 10
93.3557597222222
 20
119.7490408333333
 30
0.0
 10
93.10881527777777
 20
119.3645130555555
 30
0.0
 10
92.76662083333332
 20
119.3645130555555
 30
0.0
 10
92.42442638888888
 20
119.3645130555555
 30
0.0
 10
92.08223194444443
 20
119.3645130555555
 30
0.0
 10
92.68900972222222
 20
120.2358741666666
 30
0.0
 10
93.2957875
 20
121.1072352777778
 30
0.0
 10
93.90256527777777
 20
121.9785963888889
 30
0.0
 10
93.32400972222221
 20
122.8146797222222
 30
0.0
 10
92.74545416666666
 20
123.6507630555555
 30
0.0
 10
92.1668986111111
 20
124.4868463888889
 30
0.0
 10
92.51262083333332
 20
124.4868463888889
 30
0.0
 10
92.85834305555552
 20
124.4868463888889
 30
0.0
 10
93.20406527777774
 20
124.4868463888889
 30
0.0
  0
POLYLINE
  5
87
330
1F
100
AcDbEntity
  8
DEFAULT
 62
    18
100
AcDb2dPolyline
 66
     1
 10
0.0
 20
0.0
 30
0.0
 70
     1
  0
VERTEX
  5
88
330
87
100
AcDbEntity
  8
DEFAULT
 62
    18
100
AcDbVertex
100
AcDb2dVertex
 10
147.6594780555556
 20
141.8926902777778
 30
0.0
  0
VERTEX
  5
89
330
87
100
AcDbEntity
  8
DEFAULT
 62
    18
100
AcDbVertex
100
AcDb2dVertex
 10
147.6383113888889
 20
141.8926902777778
 30
0.0
  0
VERTEX
  5
8A
330
87
100
AcDbEntity
  8
DEFAULT
 62
    18
100
AcDbVertex
100
AcDb2dVertex
 10
146.4427475
 20
141.2471069444445
 30
0.0
  0
VERTEX
  5
8B
330
87
100
AcDbEntity
  8
DEFAULT
 62
    18
100
AcDbVertex
100
AcDb2dVertex
 10
146.2628308333333
 20
141.9561902777778
 30
0.0
  0
VERTEX
  5
8C
330
87
100
AcDbEntity
  8
DEFAULT
 62
    18
100
AcDbVertex
100
AcDb2dVertex
 10
147.7656641666667
 20
142.7605236111111
 30
0.0
  0
VERTEX
  5
8D
330
87
100
AcDbEntity
  8
DEFAULT
 62
    18
100
AcDbVertex
100
AcDb2dVertex
 10
148.5590613888889
 20
142.7605236111111
 30
0.0
  0
VERTEX
  5
8E
330
87
100
AcDbEntity
  8
DEFAULT
 62
    18
100
AcDbVertex
100
AcDb2dVertex
 10
148.5590613888889
 20
135.8817097222222
 30
0.0
  0
VERTEX
  5
8F
330
87
100
AcDbEntity
  8
DEFAULT
 62
    18
100
AcDbVertex
100
AcDb2dVertex
 10
147.6594780555556
 20
135.8817097222222
 30
0.0
  0
SEQEND
  5
90
330
87
100
AcDbEntity
  8
DEFAULT
 62
    18
  0
SPLINE
  5
91
330
1F
100
AcDbEntity
  8
DEFAULT
 62
    18
100
AcDbSpline
210
0.0
220
0.0
230
1.0
 70
    11
 71
     3
 72
    59
 73
    55
 74
     0
 42
0.000000001
 43
0.0000000001
 40
0.0
 40
0.0
 40
0.0
 40
0.0
 40
3.744235569512153
 40
3.744235569512153
 40
3.744235569512153
 40
4.744235569512153
 40
4.744235569512153
 40
4.744235569512153
 40
4.834235569512128
 40
4.834235569512128
 40
4.834235569512128
 40
5.834235569512128
 40
5.834235569512128
 40
5.834235569512128
 40
9.536896774645529
 40
9.536896774645529
 40
9.536896774645529
 40
12.38689677464549
 40
12.38689677464549
 40
12.38689677464549
 40
20.97659409178069
 40
20.97659409178069
 40
20.97659409178069
 40
30.04576169415743
 40
30.04576169415743
 40
30.04576169415743
 40
33.0447616941574
 40
33.0447616941574
 40
33.0447616941574
 40
36.94729933010659
 40
36.94729933010659
 40
36.94729933010659
 40
37.94729933010659
 40
37.94729933010659
 40
37.94729933010659
 40
38.00729933010659
 40
38.00729933010659
 40
38.00729933010659
 40
39.00729933010659
 40
39.00729933010659
 40
39.00729933010659
 40
42.89354430437156
 40
42.89354430437156
 40
42.89354430437156
 40
45.80354430437158
 40
45.80354430437158
 40
45.80354430437158
 40
54.83314562447425
 40
54.83314562447425
 40
54.83314562447425
 40
63.4788764206534
 40
63.4788764206534
 40
63.4788764206534
 40
66.41787642065341
 40
66.41787642065341
 40
66.41787642065341
 40
66.41787642065341
 10
141.4682986111111
 20
141.0038313888888
 30
0.0
 10
141.7117152777778
 20
140.6369424999999
 30
0.0
 10
141.9551319444444
 20
140.2700536111111
 30
0.0
 10
142.1985486111111
 20
139.9031647222222
 30
0.0
 10
142.3890486111111
 20
139.6174147222222
 30
0.0
 10
142.5481513888889
 20
139.3528313888889
 30
0.0
 10
142.7171319444444
 20
139.0670813888889
 30
0.0
 10
142.7277152777778
 20
139.0670813888889
 30
0.0
 10
142.7382986111111
 20
139.0670813888889
 30
0.0
 10
142.7488819444444
 20
139.0670813888889
 30
0.0
 10
142.9182152777778
 20
139.3739980555555
 30
0.0
 10
143.0875486111111
 20
139.6385813888889
 30
0.0
 10
143.2568819444444
 20
139.9137480555555
 30
0.0
 10
143.4967708333333
 20
140.2771091666666
 30
0.0
 10
143.7366597222222
 20
140.6404702777778
 30
0.0
 10
143.9765486111111
 20
141.0038313888889
 30
0.0
 10
144.3116875
 20
141.0038313888889
 30
0.0
 10
144.6468263888889
 20
141.0038313888889
 30
0.0
 10
144.9819652777778
 20
141.0038313888889
 30
0.0
 10
144.3998819444444
 20
140.1783313888889
 30
0.0
 10
143.8177986111111
 20
139.3528313888889
 30
0.0
 10
143.2357152777778
 20
138.5273313888889
 30
0.0
 10
143.8353199074074
 20
137.6453869444445
 30
0.0
 10
144.434924537037
 20
136.7634425
 30
0.0
 10
145.0345291666666
 20
135.8814980555555
 30
0.0
 10
144.6818689814814
 20
135.8814980555555
 30
0.0
 10
144.3292087962963
 20
135.8814980555555
 30
0.0
 10
143.9765486111111
 20
135.8814980555555
 30
0.0
 10
143.7260763888889
 20
136.2660258333333
 30
0.0
 10
143.4756041666666
 20
136.6505536111111
 30
0.0
 10
143.2251319444444
 20
137.0350813888889
 30
0.0
 10
143.0240486111111
 20
137.3314147222222
 30
0.0
 10
142.8547152777778
 20
137.6171647222222
 30
0.0
 10
142.6747986111111
 20
137.9240813888889
 30
0.0
 10
142.6677430555555
 20
137.9240813888889
 30
0.0
 10
142.6606875
 20
137.9240813888889
 30
0.0
 10
142.6536319444444
 20
137.9240813888889
 30
0.0
 10
142.4842986111111
 20
137.6171647222222
 30
0.0
 10
142.3043819444444
 20
137.3419980555555
 30
0.0
 10
142.1138819444444
 20
137.0350813888889
 30
0.0
 10
141.8669375
 20
136.6505536111111
 30
0.0
 10
141.6199930555556
 20
136.2660258333333
 30
0.0
 10
141.3730486111111
 20
135.8814980555555
 30
0.0
 10
141.0308541666667
 20
135.8814980555555
 30
0.0
 10
140.6886597222222
 20
135.8814980555555
 30
0.0
 10
140.3464652777778
 20
135.8814980555555
 30
0.0
 10
140.9532430555555
 20
136.7528591666666
 30
0.0
 10
141.5600208333333
 20
137.6242202777778
 30
0.0
 10
142.1667986111111
 20
138.4955813888889
 30
0.0
 10
141.5883606481481
 20
139.3316647222222
 30
0.0
 10
141.0099226851852
 20
140.1677480555555
 30
0.0
 10
140.4314847222222
 20
141.0038313888889
 30
0.0
 10
140.7770893518518
 20
141.0038313888889
 30
0.0
 10
141.1226939814815
 20
141.0038313888888
 30
0.0
 10
141.4682986111111
 20
141.0038313888888
 30
0.0
  0
SPLINE
  5
92
330
1F
100
AcDbEntity
  8
DEFAULT
 62
    18
100
AcDbSpline
210
0.0
220
0.0
230
1.0
 70
    11
 71
     3
 72
    47
 73
    43
 74
     0
 42
0.000000001
 43
0.0000000001
 40
12.44900000000001
 40
12.44900000000001
 40
12.44900000000001
 40
12.44900000000001
 40
14.06900000000002
 40
14.06900000000002
 40
14.06900000000002
 40
16.95430760925071
 40
16.95430760925071
 40
16.95430760925071
 40
17.95430760925071
 40
17.95430760925071
 40
17.95430760925071
 40
18.95430760925071
 40
18.95430760925071
 40
18.95430760925071
 40
19.95430760925071
 40
19.95430760925071
 40
19.95430760925071
 40
21.99518977145408
 40
21.99518977145408
 40
21.99518977145408
 40
22.99518977145408
 40
22.99518977145408
 40
22.99518977145408
 40
23.99518977145408
 40
23.99518977145408
 40
23.99518977145408
 40
24.99518977145408
 40
24.99518977145408
 40
24.99518977145408
 40
27.11820649300858
 40
27.11820649300858
 40
27.11820649300858
 40
27.17820649300858
 40
27.17820649300858
 40
27.17820649300858
 40
35.93720649300859
 40
35.93720649300859
 40
35.93720649300859
 40
38.12720649300859
 40
38.12720649300859
 40
38.12720649300859
 40
50.5762064930086
 40
50.5762064930086
 40
50.5762064930086
 40
50.5762064930086
 10
145.6382377777778
 20
68.0593
 30
0.0
 10
145.6382377777778
 20
68.2498
 30
0.0
 10
145.6382377777778
 20
68.4403
 30
0.0
 10
145.6382377777778
 20
68.6308
 30
0.0
 10
145.8816544444444
 20
68.86716111111112
 30
0.0
 10
146.1250711111111
 20
69.10352222222222
 30
0.0
 10
146.3684877777778
 20
69.33988333333333
 30
0.0
 10
148.1249683333333
 20
71.01205
 30
0.0
 10
148.9187183333333
 20
71.90105
 30
0.0
 10
148.9296544444444
 20
72.93821666666666
 30
0.0
 10
148.9296544444444
 20
73.63671666666666
 30
0.0
 10
148.590635
 20
74.28194722222221
 30
0.0
 10
147.5640516666667
 20
74.28194722222221
 30
0.0
 10
146.9399877777778
 20
74.28194722222221
 30
0.0
 10
146.4214044444444
 20
73.96444722222222
 30
0.0
 10
146.1039044444444
 20
73.69986388888888
 30
0.0
 10
146.0051266666667
 20
73.91858611111111
 30
0.0
 10
145.9063488888889
 20
74.13730833333334
 30
0.0
 10
145.8075711111111
 20
74.35603055555555
 30
0.0
 10
146.2838211111111
 20
74.75819722222222
 30
0.0
 10
146.9611544444444
 20
75.05453055555556
 30
0.0
 10
147.7549044444444
 20
75.05453055555556
 30
0.0
 10
149.2362183333333
 20
75.05453055555556
 30
0.0
 10
149.860635
 20
74.03853055555555
 30
0.0
 10
149.860635
 20
73.05428055555555
 30
0.0
 10
149.860635
 20
71.78463333333333
 30
0.0
 10
148.939885
 20
70.75805
 30
0.0
 10
147.4903211111111
 20
69.36104999999999
 30
0.0
 10
147.3068766666667
 20
69.19171666666665
 30
0.0
 10
147.1234322222222
 20
69.02238333333332
 30
0.0
 10
146.9399877777778
 20
68.85305
 30
0.0
 10
146.9399877777778
 20
68.84599444444444
 30
0.0
 10
146.9399877777778
 20
68.83893888888889
 30
0.0
 10
146.9399877777778
 20
68.83188333333332
 30
0.0
 10
147.9699812962963
 20
68.83188333333332
 30
0.0
 10
148.9999748148148
 20
68.83188333333332
 30
0.0
 10
150.0299683333333
 20
68.83188333333332
 30
0.0
 10
150.0299683333333
 20
68.57435555555554
 30
0.0
 10
150.0299683333333
 20
68.31682777777776
 30
0.0
 10
150.0299683333333
 20
68.0593
 30
0.0
 10
148.5660581481481
 20
68.0593
 30
0.0
 10
147.102147962963
 20
68.0593
 30
0.0
 10
145.6382377777778
 20
68.0593
 30
0.0
  0
SPLINE
  5
93
330
1F
100
AcDbEntity
  8
DEFAULT
 62
    18
100
AcDbSpline
210
0.0
220
0.0
230
1.0
 70
    11
 71
     3
 72
    59
 73
    55
 74
     0
 42
0.000000001
 43
0.0000000001
 40
0.0
 40
0.0
 40
0.0
 40
0.0
 40
3.744235569512153
 40
3.744235569512153
 40
3.744235569512153
 40
4.744235569512153
 40
4.744235569512153
 40
4.744235569512153
 40
4.835235569512161
 40
4.835235569512161
 40
4.835235569512161
 40
5.835235569512161
 40
5.835235569512161
 40
5.835235569512161
 40
9.537345913626714
 40
9.537345913626714
 40
9.537345913626714
 40
12.38734591362674
 40
12.38734591362674
 40
12.38734591362674
 40
20.97646699788211
 40
20.97646699788211
 40
20.97646699788211
 40
30.04563460025885
 40
30.04563460025885
 40
30.04563460025885
 40
33.04563460025885
 40
33.04563460025885
 40
33.04563460025885
 40
36.9476265274673
 40
36.9476265274673
 40
36.9476265274673
 40
37.9476265274673
 40
37.9476265274673
 40
37.9476265274673
 40
38.00862652746734
 40
38.00862652746734
 40
38.00862652746734
 40
39.00862652746734
 40
39.00862652746734
 40
39.00862652746734
 40
42.89487150173233
 40
42.89487150173233
 40
42.89487150173233
 40
45.80487150173235
 40
45.80487150173235
 40
45.80487150173235
 40
54.83447282183504
 40
54.83447282183504
 40
54.83447282183504
 40
63.48020361801419
 40
63.48020361801419
 40
63.48020361801419
 40
66.41920361801421
 40
66.41920361801421
 40
66.41920361801421
 40
66.41920361801421
 10
141.4682986111111
 20
73.18145694444443
 30
0.0
 10
141.7117152777778
 20
72.81456805555554
 30
0.0
 10
141.9551319444444
 20
72.44767916666665
 30
0.0
 10
142.1985486111111
 20
72.08079027777777
 30
0.0
 10
142.3886958333333
 20
71.79504027777777
 30
0.0
 10
142.5481513888889
 20
71.53045694444444
 30
0.0
 10
142.7167791666666
 20
71.24470694444443
 30
0.0
 10
142.7274800925926
 20
71.24470694444443
 30
0.0
 10
142.7381810185185
 20
71.24470694444443
 30
0.0
 10
142.7488819444444
 20
71.24470694444443
 30
0.0
 10
142.9178625
 20
71.5516236111111
 30
0.0
 10
143.0875486111111
 20
71.81620694444443
 30
0.0
 10
143.2568819444444
 20
72.09137361111111
 30
0.0
 10
143.4966532407407
 20
72.45473472222221
 30
0.0
 10
143.736424537037
 20
72.81809583333332
 30
0.0
 10
143.9761958333333
 20
73.18145694444443
 30
0.0
 10
144.3113347222222
 20
73.18145694444443
 30
0.0
 10
144.6464736111111
 20
73.18145694444443
 30
0.0
 10
144.9816125
 20
73.18145694444443
 30
0.0
 10
144.3996467592592
 20
72.35595694444443
 30
0.0
 10
143.8176810185185
 20
71.53045694444442
 30
0.0
 10
143.2357152777778
 20
70.70495694444443
 30
0.0
 10
143.8353199074074
 20
69.82301249999999
 30
0.0
 10
144.434924537037
 20
68.94106805555555
 30
0.0
 10
145.0345291666666
 20
68.0591236111111
 30
0.0
 10
144.6817513888889
 20
68.0591236111111
 30
0.0
 10
144.3289736111111
 20
68.0591236111111
 30
0.0
 10
143.9761958333333
 20
68.0591236111111
 30
0.0
 10
143.7258412037037
 20
68.44365138888888
 30
0.0
 10
143.475486574074
 20
68.82817916666666
 30
0.0
 10
143.2251319444444
 20
69.21270694444443
 30
0.0
 10
143.0240486111111
 20
69.50904027777777
 30
0.0
 10
142.8547152777778
 20
69.79479027777778
 30
0.0
 10
142.6747986111111
 20
70.10170694444444
 30
0.0
 10
142.6676254629629
 20
70.10170694444444
 30
0.0
 10
142.6604523148148
 20
70.10170694444444
 30
0.0
 10
142.6532791666666
 20
70.10170694444444
 30
0.0
 10
142.4842986111111
 20
69.79479027777778
 30
0.0
 10
142.3040291666667
 20
69.5196236111111
 30
0.0
 10
142.1138819444444
 20
69.21270694444443
 30
0.0
 10
141.8669375
 20
68.82817916666666
 30
0.0
 10
141.6199930555556
 20
68.44365138888888
 30
0.0
 10
141.3730486111111
 20
68.0591236111111
 30
0.0
 10
141.0308541666667
 20
68.0591236111111
 30
0.0
 10
140.6886597222222
 20
68.0591236111111
 30
0.0
 10
140.3464652777778
 20
68.0591236111111
 30
0.0
 10
140.9532430555555
 20
68.93048472222222
 30
0.0
 10
141.5600208333333
 20
69.80184583333333
 30
0.0
 10
142.1667986111111
 20
70.67320694444443
 30
0.0
 10
141.5883606481481
 20
71.50929027777777
 30
0.0
 10
141.0099226851852
 20
72.3453736111111
 30
0.0
 10
140.4314847222222
 20
73.18145694444443
 30
0.0
 10
140.7770893518518
 20
73.18145694444443
 30
0.0
 10
141.1226939814815
 20
73.18145694444443
 30
0.0
 10
141.4682986111111
 20
73.18145694444443
 30
0.0
  0
SPLINE
  5
94
330
1F
100
AcDbEntity
  8
DEFAULT
 62
    18
100
AcDbSpline
210
0.0
220
0.0
230
1.0
 70
    11
 71
     3
 72
    47
 73
    43
 74
     0
 42
0.000000001
 43
0.0000000001
 40
12.44900000000001
 40
12.44900000000001
 40
12.44900000000001
 40
12.44900000000001
 40
14.06900000000002
 40
14.06900000000002
 40
14.06900000000002
 40
16.95430760925071
 40
16.95430760925071
 40
16.95430760925071
 40
17.95430760925071
 40
17.95430760925071
 40
17.95430760925071
 40
18.95430760925071
 40
18.95430760925071
 40
18.95430760925071
 40
19.95430760925071
 40
19.95430760925071
 40
19.95430760925071
 40
21.9951897714541
 40
21.9951897714541
 40
21.9951897714541
 40
22.9951897714541
 40
22.9951897714541
 40
22.9951897714541
 40
23.9951897714541
 40
23.9951897714541
 40
23.9951897714541
 40
24.9951897714541
 40
24.9951897714541
 40
24.9951897714541
 40
27.1182064930086
 40
27.1182064930086
 40
27.1182064930086
 40
27.1782064930086
 40
27.1782064930086
 40
27.1782064930086
 40
35.93720649300862
 40
35.93720649300862
 40
35.93720649300862
 40
38.12720649300861
 40
38.12720649300861
 40
38.12720649300861
 40
50.57620649300863
 40
50.57620649300863
 40
50.57620649300863
 40
50.57620649300863
 10
145.6382377777778
 20
99.92677499999999
 30
0.0
 10
145.6382377777778
 20
100.117275
 30
0.0
 10
145.6382377777778
 20
100.307775
 30
0.0
 10
145.6382377777778
 20
100.498275
 30
0.0
 10
145.8816544444444
 20
100.7346361111111
 30
0.0
 10
146.1250711111111
 20
100.9709972222222
 30
0.0
 10
146.3684877777778
 20
101.2073583333333
 30
0.0
 10
148.1249683333333
 20
102.879525
 30
0.0
 10
148.9187183333333
 20
103.768525
 30
0.0
 10
148.9296544444444
 20
104.8056916666666
 30
0.0
 10
148.9296544444444
 20
105.5041916666667
 30
0.0
 10
148.590635
 20
106.1494222222222
 30
0.0
 10
147.5640516666667
 20
106.1494222222222
 30
0.0
 10
146.9399877777778
 20
106.1494222222222
 30
0.0
 10
146.4214044444444
 20
105.8319222222222
 30
0.0
 10
146.1039044444444
 20
105.5673388888889
 30
0.0
 10
146.0051266666667
 20
105.7860611111111
 30
0.0
 10
145.9063488888889
 20
106.0047833333333
 30
0.0
 10
145.8075711111111
 20
106.2235055555555
 30
0.0
 10
146.2838211111111
 20
106.6256722222222
 30
0.0
 10
146.9611544444444
 20
106.9220055555555
 30
0.0
 10
147.7549044444444
 20
106.9220055555555
 30
0.0
 10
149.2362183333333
 20
106.9220055555555
 30
0.0
 10
149.860635
 20
105.9060055555556
 30
0.0
 10
149.860635
 20
104.9217555555555
 30
0.0
 10
149.860635
 20
103.6521083333333
 30
0.0
 10
148.939885
 20
102.625525
 30
0.0
 10
147.4903211111111
 20
101.228525
 30
0.0
 10
147.3068766666667
 20
101.0591916666667
 30
0.0
 10
147.1234322222222
 20
100.8898583333333
 30
0.0
 10
146.9399877777778
 20
100.720525
 30
0.0
 10
146.9399877777778
 20
100.7134694444444
 30
0.0
 10
146.9399877777778
 20
100.7064138888889
 30
0.0
 10
146.9399877777778
 20
100.6993583333333
 30
0.0
 10
147.9699812962963
 20
100.6993583333333
 30
0.0
 10
148.9999748148148
 20
100.6993583333333
 30
0.0
 10
150.0299683333333
 20
100.6993583333333
 30
0.0
 10
150.0299683333333
 20
100.4418305555555
 30
0.0
 10
150.0299683333333
 20
100.1843027777778
 30
0.0
 10
150.0299683333333
 20
99.92677499999999
 30
0.0
 10
148.5660581481481
 20
99.92677499999998
 30
0.0
 10
147.102147962963
 20
99.92677499999998
 30
0.0
 10
145.6382377777778
 20
99.92677499999999
 30
0.0
  0
SPLINE
  5
95
330
1F
100
AcDbEntity
  8
DEFAULT
 62
    18
100
AcDbSpline
210
0.0
220
0.0
230
1.0
 70
    11
 71
     3
 72
    59
 73
    55
 74
     0
 42
0.000000001
 43
0.0000000001
 40
0.0
 40
0.0
 40
0.0
 40
0.0
 40
3.744235569512201
 40
3.744235569512201
 40
3.744235569512201
 40
4.744235569512201
 40
4.744235569512201
 40
4.744235569512201
 40
4.835235569512209
 40
4.835235569512209
 40
4.835235569512209
 40
5.835235569512209
 40
5.835235569512209
 40
5.835235569512209
 40
9.537345913626737
 40
9.537345913626737
 40
9.537345913626737
 40
12.38734591362676
 40
12.38734591362676
 40
12.38734591362676
 40
20.97646699788211
 40
20.97646699788211
 40
20.97646699788211
 40
30.04563460025885
 40
30.04563460025885
 40
30.04563460025885
 40
33.04563460025885
 40
33.04563460025885
 40
33.04563460025885
 40
36.94762652746728
 40
36.94762652746728
 40
36.94762652746728
 40
37.94762652746728
 40
37.94762652746728
 40
37.94762652746728
 40
38.00862652746731
 40
38.00862652746731
 40
38.00862652746731
 40
39.00862652746731
 40
39.00862652746731
 40
39.00862652746731
 40
42.89487150173228
 40
42.89487150173228
 40
42.89487150173228
 40
45.80487150173231
 40
45.80487150173231
 40
45.80487150173231
 40
54.83447282183497
 40
54.83447282183497
 40
54.83447282183497
 40
63.48020361801412
 40
63.48020361801412
 40
63.48020361801412
 40
66.41920361801414
 40
66.41920361801414
 40
66.41920361801414
 40
66.41920361801414
 10
141.4682986111111
 20
105.0489319444444
 30
0.0
 10
141.7117152777778
 20
104.6820430555556
 30
0.0
 10
141.9551319444444
 20
104.3151541666667
 30
0.0
 10
142.1985486111111
 20
103.9482652777778
 30
0.0
 10
142.3886958333333
 20
103.6625152777778
 30
0.0
 10
142.5481513888889
 20
103.3979319444444
 30
0.0
 10
142.7167791666666
 20
103.1121819444444
 30
0.0
 10
142.7274800925926
 20
103.1121819444444
 30
0.0
 10
142.7381810185185
 20
103.1121819444444
 30
0.0
 10
142.7488819444444
 20
103.1121819444444
 30
0.0
 10
142.9178625
 20
103.4190986111111
 30
0.0
 10
143.0875486111111
 20
103.6836819444444
 30
0.0
 10
143.2568819444444
 20
103.9588486111111
 30
0.0
 10
143.4966532407407
 20
104.3222097222222
 30
0.0
 10
143.736424537037
 20
104.6855708333333
 30
0.0
 10
143.9761958333333
 20
105.0489319444444
 30
0.0
 10
144.3113347222222
 20
105.0489319444444
 30
0.0
 10
144.6464736111111
 20
105.0489319444444
 30
0.0
 10
144.9816125
 20
105.0489319444444
 30
0.0
 10
144.3996467592592
 20
104.2234319444444
 30
0.0
 10
143.8176810185185
 20
103.3979319444444
 30
0.0
 10
143.2357152777778
 20
102.5724319444444
 30
0.0
 10
143.8353199074074
 20
101.6904875
 30
0.0
 10
144.434924537037
 20
100.8085430555556
 30
0.0
 10
145.0345291666666
 20
99.9265986111111
 30
0.0
 10
144.6817513888889
 20
99.9265986111111
 30
0.0
 10
144.3289736111111
 20
99.9265986111111
 30
0.0
 10
143.9761958333333
 20
99.9265986111111
 30
0.0
 10
143.7258412037037
 20
100.3111263888889
 30
0.0
 10
143.475486574074
 20
100.6956541666667
 30
0.0
 10
143.2251319444444
 20
101.0801819444444
 30
0.0
 10
143.0240486111111
 20
101.3765152777778
 30
0.0
 10
142.8547152777778
 20
101.6622652777778
 30
0.0
 10
142.6747986111111
 20
101.9691819444444
 30
0.0
 10
142.6676254629629
 20
101.9691819444444
 30
0.0
 10
142.6604523148148
 20
101.9691819444444
 30
0.0
 10
142.6532791666666
 20
101.9691819444444
 30
0.0
 10
142.4842986111111
 20
101.6622652777778
 30
0.0
 10
142.3040291666667
 20
101.3870986111111
 30
0.0
 10
142.1138819444444
 20
101.0801819444444
 30
0.0
 10
141.8669375
 20
100.6956541666667
 30
0.0
 10
141.6199930555556
 20
100.3111263888889
 30
0.0
 10
141.3730486111111
 20
99.9265986111111
 30
0.0
 10
141.0308541666667
 20
99.9265986111111
 30
0.0
 10
140.6886597222222
 20
99.9265986111111
 30
0.0
 10
140.3464652777778
 20
99.9265986111111
 30
0.0
 10
140.9532430555555
 20
100.7979597222222
 30
0.0
 10
141.5600208333333
 20
101.6693208333333
 30
0.0
 10
142.1667986111111
 20
102.5406819444444
 30
0.0
 10
141.5883606481481
 20
103.3767652777778
 30
0.0
 10
141.0099226851852
 20
104.2128486111111
 30
0.0
 10
140.4314847222222
 20
105.0489319444444
 30
0.0
 10
140.7770893518518
 20
105.0489319444444
 30
0.0
 10
141.1226939814815
 20
105.0489319444444
 30
0.0
 10
141.4682986111111
 20
105.0489319444444
 30
0.0
  0
SPLINE
  5
96
330
1F
100
AcDbEntity
  8
DEFAULT
 62
    18
100
AcDbSpline
210
0.0
220
0.0
230
1.0
 70
    11
 71
     3
 72
    38
 73
    34
 74
     0
 42
0.000000001
 43
0.0000000001
 40
2.159999999999997
 40
2.159999999999997
 40
2.159999999999997
 40
2.159999999999997
 40
3.159999999999997
 40
3.159999999999997
 40
3.159999999999997
 40
4.159999999999997
 40
4.159999999999997
 40
4.159999999999997
 40
4.251000000000005
 40
4.251000000000005
 40
4.251000000000005
 40
5.251000000000005
 40
5.251000000000005
 40
5.251000000000005
 40
6.251000000000005
 40
6.251000000000005
 40
6.251000000000005
 40
7.251000000000005
 40
7.251000000000005
 40
7.251000000000005
 40
8.251000000000005
 40
8.251000000000005
 40
8.251000000000005
 40
9.251000000000005
 40
9.251000000000005
 40
9.251000000000005
 40
10.251
 40
10.251
 40
10.251
 40
11.251
 40
11.251
 40
11.251
 40
13.411
 40
13.411
 40
13.411
 40
13.411
 10
154.9934105555556
 20
24.89034194444444
 30
0.0
 10
154.8029105555555
 20
24.90092527777778
 30
0.0
 10
154.5598466666667
 20
24.89034194444444
 30
0.0
 10
154.2952633333333
 20
24.84800861111111
 30
0.0
 10
152.8347633333333
 20
24.60423916666667
 30
0.0
 10
152.0618272222222
 20
23.53567527777777
 30
0.0
 10
151.9030772222222
 20
22.40325861111111
 30
0.0
 10
151.9137781481481
 20
22.40325861111111
 30
0.0
 10
151.9244790740741
 20
22.40325861111111
 30
0.0
 10
151.93518
 20
22.40325861111111
 30
0.0
 10
152.2632633333333
 20
22.83717527777777
 30
0.0
 10
152.8347633333333
 20
23.19700861111111
 30
0.0
 10
153.5964105555556
 20
23.19700861111111
 30
0.0
 10
154.8134938888889
 20
23.19700861111111
 30
0.0
 10
155.6707438888889
 20
22.31859194444444
 30
0.0
 10
155.6707438888889
 20
20.97450861111111
 30
0.0
 10
155.6707438888889
 20
19.71509194444444
 30
0.0
 10
154.8134938888889
 20
18.55092527777778
 30
0.0
 10
153.3847438888889
 20
18.55092527777778
 30
0.0
 10
151.9140133333333
 20
18.55092527777778
 30
0.0
 10
150.95093
 20
19.69427805555555
 30
0.0
 10
150.95093
 20
21.48250861111111
 30
0.0
 10
150.95093
 20
22.83717527777777
 30
0.0
 10
151.4377633333333
 20
23.90609194444444
 30
0.0
 10
152.1150966666667
 20
24.58342527777777
 30
0.0
 10
152.6865966666667
 20
25.14434194444444
 30
0.0
 10
153.4482438888889
 20
25.49359194444444
 30
0.0
 10
154.3160772222222
 20
25.59942527777778
 30
0.0
 10
154.5912438888889
 20
25.64175861111111
 30
0.0
 10
154.82443
 20
25.65234194444444
 30
0.0
 10
154.9934105555556
 20
25.65234194444444
 30
0.0
 10
154.9934105555556
 20
25.39834194444444
 30
0.0
 10
154.9934105555556
 20
25.14434194444445
 30
0.0
 10
154.9934105555556
 20
24.89034194444444
 30
0.0
  0
SPLINE
  5
97
330
1F
100
AcDbEntity
  8
DEFAULT
 62
    18
100
AcDbSpline
210
0.0
220
0.0
230
1.0
 70
    11
 71
     3
 72
    20
 73
    16
 74
     0
 42
0.000000001
 43
0.0000000001
 40
1.0
 40
1.0
 40
1.0
 40
1.0
 40
2.0
 40
2.0
 40
2.0
 40
3.0
 40
3.0
 40
3.0
 40
4.0
 40
4.0
 40
4.0
 40
5.0
 40
5.0
 40
5.0
 40
6.0
 40
6.0
 40
6.0
 40
6.0
 10
154.7288272222222
 20
20.92159194444444
 30
0.0
 10
154.7288272222222
 20
21.90584194444444
 30
0.0
 10
154.1679105555556
 20
22.49850861111111
 30
0.0
 10
153.3106605555556
 20
22.49850861111111
 30
0.0
 10
152.7500966666666
 20
22.49850861111111
 30
0.0
 10
152.2315133333333
 20
22.14925861111111
 30
0.0
 10
151.9771605555555
 20
21.65184194444444
 30
0.0
 10
151.9140133333333
 20
21.54636138888889
 30
0.0
 10
151.8713272222222
 20
21.40842527777778
 30
0.0
 10
151.8713272222222
 20
21.23909194444444
 30
0.0
 10
151.8928466666667
 20
20.10667527777778
 30
0.0
 10
152.41143
 20
19.27059194444444
 30
0.0
 10
153.3847438888889
 20
19.27059194444444
 30
0.0
 10
154.18943
 20
19.27059194444444
 30
0.0
 10
154.7288272222222
 20
19.93734194444444
 30
0.0
 10
154.7288272222222
 20
20.92159194444444
 30
0.0
  0
SPLINE
  5
98
330
1F
100
AcDbEntity
  8
DEFAULT
 62
    18
100
AcDbSpline
210
0.0
220
0.0
230
1.0
 70
    11
 71
     3
 72
    50
 73
    46
 74
     0
 42
0.000000001
 43
0.0000000001
 40
2.219999999999999
 40
2.219999999999999
 40
2.219999999999999
 40
2.219999999999999
 40
9.659999999999997
 40
9.659999999999997
 40
9.659999999999997
 40
14.72582668475739
 40
14.72582668475739
 40
14.72582668475739
 40
15.72582668475739
 40
15.72582668475739
 40
15.72582668475739
 40
16.72582668475739
 40
16.72582668475739
 40
16.72582668475739
 40
17.72582668475739
 40
17.72582668475739
 40
17.72582668475739
 40
18.72582668475739
 40
18.72582668475739
 40
18.72582668475739
 40
19.72582668475739
 40
19.72582668475739
 40
19.72582668475739
 40
21.84172389398093
 40
21.84172389398093
 40
21.84172389398093
 40
22.84172389398093
 40
22.84172389398093
 40
22.84172389398093
 40
23.84172389398093
 40
23.84172389398093
 40
23.84172389398093
 40
24.84172389398093
 40
24.84172389398093
 40
24.84172389398093
 40
25.84172389398093
 40
25.84172389398093
 40
25.84172389398093
 40
35.28615082206926
 40
35.28615082206926
 40
35.28615082206926
 40
44.61615082206924
 40
44.61615082206924
 40
44.61615082206924
 40
46.83615082206924
 40
46.83615082206924
 40
46.83615082206924
 40
46.83615082206924
 10
149.7444652777778
 20
24.76323611111111
 30
0.0
 10
148.8695763888889
 20
24.76323611111111
 30
0.0
 10
147.9946875
 20
24.76323611111111
 30
0.0
 10
147.1197986111111
 20
24.76323611111111
 30
0.0
 10
147.0316041666667
 20
24.17409722222222
 30
0.0
 10
146.9434097222222
 20
23.58495833333333
 30
0.0
 10
146.8552152777778
 20
22.99581944444444
 30
0.0
 10
147.0143180555555
 20
23.01733888888889
 30
0.0
 10
147.1624847222222
 20
23.03815277777777
 30
0.0
 10
147.4161319444444
 20
23.03815277777777
 30
0.0
 10
147.9452986111111
 20
23.03815277777777
 30
0.0
 10
148.4744652777778
 20
22.92173611111111
 30
0.0
 10
148.8977986111111
 20
22.66808888888889
 30
0.0
 10
149.4375486111111
 20
22.36081944444444
 30
0.0
 10
149.8820486111111
 20
21.76850555555555
 30
0.0
 10
149.8820486111111
 20
20.90067222222222
 30
0.0
 10
149.8820486111111
 20
19.55658888888889
 30
0.0
 10
148.8131319444445
 20
18.55117222222222
 30
0.0
 10
147.3208819444444
 20
18.55117222222222
 30
0.0
 10
146.5694652777778
 20
18.55117222222222
 30
0.0
 10
145.9344652777778
 20
18.76283888888889
 30
0.0
 10
145.6063819444444
 20
18.97450555555555
 30
0.0
 10
145.6841106481481
 20
19.21086666666666
 30
0.0
 10
145.7618393518518
 20
19.44722777777777
 30
0.0
 10
145.8395680555555
 20
19.68358888888888
 30
0.0
 10
146.1249652777778
 20
19.51425555555555
 30
0.0
 10
146.6858819444444
 20
19.30258888888888
 30
0.0
 10
147.3106513888889
 20
19.30258888888888
 30
0.0
 10
148.1887152777778
 20
19.30258888888888
 30
0.0
 10
148.9401319444445
 20
19.87408888888888
 30
0.0
 10
148.9401319444445
 20
20.79483888888888
 30
0.0
 10
148.9295486111111
 20
21.68383888888889
 30
0.0
 10
148.3368819444444
 20
22.31848611111111
 30
0.0
 10
146.9610486111111
 20
22.31848611111111
 30
0.0
 10
146.5694652777778
 20
22.31848611111111
 30
0.0
 10
146.2629013888889
 20
22.27615277777777
 30
0.0
 10
146.0085486111111
 20
22.24440277777777
 30
0.0
 10
146.1567152777778
 20
23.34506944444444
 30
0.0
 10
146.3048819444444
 20
24.44573611111111
 30
0.0
 10
146.4530486111111
 20
25.54640277777777
 30
0.0
 10
147.5501875
 20
25.54640277777777
 30
0.0
 10
148.6473263888889
 20
25.54640277777777
 30
0.0
 10
149.7444652777778
 20
25.54640277777777
 30
0.0
 10
149.7444652777778
 20
25.28534722222221
 30
0.0
 10
149.7444652777778
 20
25.02429166666666
 30
0.0
 10
149.7444652777778
 20
24.76323611111111
 30
0.0
  0
SPLINE
  5
99
330
1F
100
AcDbEntity
  8
DEFAULT
 62
    18
100
AcDbSpline
210
0.0
220
0.0
230
1.0
 70
    11
 71
     3
 72
    59
 73
    55
 74
     0
 42
0.000000001
 43
0.0000000001
 40
0.0
 40
0.0
 40
0.0
 40
0.0
 40
3.744235569512153
 40
3.744235569512153
 40
3.744235569512153
 40
4.744235569512153
 40
4.744235569512153
 40
4.744235569512153
 40
4.834235569512128
 40
4.834235569512128
 40
4.834235569512128
 40
5.834235569512128
 40
5.834235569512128
 40
5.834235569512128
 40
9.536896774645552
 40
9.536896774645552
 40
9.536896774645552
 40
12.38689677464552
 40
12.38689677464552
 40
12.38689677464552
 40
20.97659409178073
 40
20.97659409178073
 40
20.97659409178073
 40
30.04576169415747
 40
30.04576169415747
 40
30.04576169415747
 40
33.04476169415744
 40
33.04476169415744
 40
33.04476169415744
 40
36.94813728459194
 40
36.94813728459194
 40
36.94813728459194
 40
37.94813728459194
 40
37.94813728459194
 40
37.94813728459194
 40
38.00813728459195
 40
38.00813728459195
 40
38.00813728459195
 40
39.00813728459195
 40
39.00813728459195
 40
39.00813728459195
 40
42.89522372561687
 40
42.89522372561687
 40
42.89522372561687
 40
45.8052237256169
 40
45.8052237256169
 40
45.8052237256169
 40
54.8356456980388
 40
54.8356456980388
 40
54.8356456980388
 40
63.48055414174139
 40
63.48055414174139
 40
63.48055414174139
 40
66.41955414174141
 40
66.41955414174141
 40
66.41955414174141
 40
66.41955414174141
 10
141.4682986111111
 20
23.78963999999999
 30
0.0
 10
141.7117152777778
 20
23.4227511111111
 30
0.0
 10
141.9551319444444
 20
23.05586222222221
 30
0.0
 10
142.1985486111111
 20
22.68897333333332
 30
0.0
 10
142.3890486111111
 20
22.40322333333333
 30
0.0
 10
142.5481513888889
 20
22.13864
 30
0.0
 10
142.7171319444444
 20
21.85324277777778
 30
0.0
 10
142.7277152777778
 20
21.85324277777778
 30
0.0
 10
142.7382986111111
 20
21.85324277777778
 30
0.0
 10
142.7488819444444
 20
21.85324277777778
 30
0.0
 10
142.9182152777778
 20
22.15980666666666
 30
0.0
 10
143.0875486111111
 20
22.42439
 30
0.0
 10
143.2568819444444
 20
22.69955666666666
 30
0.0
 10
143.4967708333333
 20
23.06291777777777
 30
0.0
 10
143.7366597222222
 20
23.42627888888888
 30
0.0
 10
143.9765486111111
 20
23.78964
 30
0.0
 10
144.3116875
 20
23.78964
 30
0.0
 10
144.6468263888889
 20
23.78964
 30
0.0
 10
144.9819652777778
 20
23.78964
 30
0.0
 10
144.3998819444444
 20
22.96414
 30
0.0
 10
143.8177986111111
 20
22.13864
 30
0.0
 10
143.2357152777778
 20
21.31314
 30
0.0
 10
143.8353199074074
 20
20.43119555555555
 30
0.0
 10
144.434924537037
 20
19.54925111111111
 30
0.0
 10
145.0345291666666
 20
18.66730666666666
 30
0.0
 10
144.6818689814814
 20
18.66730666666666
 30
0.0
 10
144.3292087962963
 20
18.66730666666666
 30
0.0
 10
143.9765486111111
 20
18.66730666666666
 30
0.0
 10
143.7260763888889
 20
19.05195203703704
 30
0.0
 10
143.4756041666666
 20
19.4365974074074
 30
0.0
 10
143.2251319444444
 20
19.82124277777777
 30
0.0
 10
143.0240486111111
 20
20.11757611111111
 30
0.0
 10
142.8547152777778
 20
20.40297333333333
 30
0.0
 10
142.6747986111111
 20
20.71024277777778
 30
0.0
 10
142.6677430555555
 20
20.71024277777778
 30
0.0
 10
142.6606875
 20
20.71024277777778
 30
0.0
 10
142.6536319444444
 20
20.71024277777778
 30
0.0
 10
142.4842986111111
 20
20.40297333333333
 30
0.0
 10
142.3043819444444
 20
20.12780666666666
 30
0.0
 10
142.1138819444444
 20
19.82124277777777
 30
0.0
 10
141.8669375
 20
19.4365974074074
 30
0.0
 10
141.6199930555556
 20
19.05195203703704
 30
0.0
 10
141.3730486111111
 20
18.66730666666666
 30
0.0
 10
141.0308541666667
 20
18.66730666666666
 30
0.0
 10
140.6886597222222
 20
18.66730666666666
 30
0.0
 10
140.3464652777778
 20
18.66730666666666
 30
0.0
 10
140.9532430555555
 20
19.53878537037037
 30
0.0
 10
141.5600208333333
 20
20.41026407407407
 30
0.0
 10
142.1667986111111
 20
21.28174277777777
 30
0.0
 10
141.5883606481481
 20
22.11770851851852
 30
0.0
 10
141.0099226851852
 20
22.95367425925926
 30
0.0
 10
140.4314847222222
 20
23.78964
 30
0.0
 10
140.7770893518518
 20
23.78963999999999
 30
0.0
 10
141.1226939814815
 20
23.78963999999999
 30
0.0
 10
141.4682986111111
 20
23.78963999999999
 30
0.0
  0
SPLINE
  5
9A
330
1F
100
AcDbEntity
  8
DEFAULT
 62
     1
100
AcDbSpline
210
0.0
220
0.0
230
1.0
 70
    11
 71
     3
 72
    17
 73
    13
 74
     0
 42
0.000000001
 43
0.0000000001
 40
0.0
 40
0.0
 40
0.0
 40
0.0
 40
1.0
 40
1.0
 40
1.0
 40
2.0
 40
2.0
 40
2.0
 40
3.0
 40
3.0
 40
3.0
 40
4.0
 40
4.0
 40
4.0
 40
4.0
 10
74.49865861111111
 20
122.8612816666666
 30
0.0
 10
71.6905475
 20
122.8577538888889
 30
0.0
 10
69.4186586111111
 20
125.1331705555555
 30
0.0
 10
69.4186586111111
 20
127.9412816666666
 30
0.0
 10
69.4186586111111
 20
130.7493927777778
 30
0.0
 10
71.6905475
 20
133.0177538888889
 30
0.0
 10
74.49865861111111
 20
133.0177538888889
 30
0.0
 10
77.30324194444444
 20
133.0177538888889
 30
0.0
 10
79.57865861111111
 20
130.745865
 30
0.0
 10
79.57865861111111
 20
127.9377538888889
 30
0.0
 10
79.57865861111111
 20
125.1366983333333
 30
0.0
 10
77.30324194444444
 20
122.8577538888889
 30
0.0
 10
74.49865861111111
 20
122.8612816666666
 30
0.0
  0
SPLINE
  5
9B
330
1F
100
AcDbEntity
  8
DEFAULT
 62
     1
100
AcDbSpline
210
0.0
220
0.0
230
1.0
 70
    11
 71
     3
 72
    17
 73
    13
 74
     0
 42
0.000000001
 43
0.0000000001
 40
0.0
 40
0.0
 40
0.0
 40
0.0
 40
1.0
 40
1.0
 40
1.0
 40
2.0
 40
2.0
 40
2.0
 40
3.0
 40
3.0
 40
3.0
 40
4.0
 40
4.0
 40
4.0
 40
4.0
 10
46.40696416666667
 20
122.8612816666666
 30
0.0
 10
43.60238083333333
 20
122.8577538888889
 30
0.0
 10
41.32696416666666
 20
125.1366983333333
 30
0.0
 10
41.32696416666666
 20
127.9412816666666
 30
0.0
 10
41.32696416666666
 20
130.7493927777778
 30
0.0
 10
43.60238083333333
 20
133.0177538888889
 30
0.0
 10
46.40696416666667
 20
133.0177538888889
 30
0.0
 10
49.21154749999999
 20
133.0177538888889
 30
0.0
 10
51.48696416666667
 20
130.745865
 30
0.0
 10
51.48696416666667
 20
127.9412816666666
 30
0.0
 10
51.48696416666667
 20
125.1366983333333
 30
0.0
 10
49.21154749999999
 20
122.8612816666666
 30
0.0
 10
46.40696416666667
 20
122.8612816666666
 30
0.0
  0
SPLINE
  5
9C
330
1F
100
AcDbEntity
  8
DEFAULT
 62
     1
100
AcDbSpline
210
0.0
220
0.0
230
1.0
 70
    11
 71
     3
 72
    38
 73
    34
 74
     0
 42
0.000000001
 43
0.0000000001
 40
1.0
 40
1.0
 40
1.0
 40
1.0
 40
2.0
 40
2.0
 40
2.0
 40
3.0
 40
3.0
 40
3.0
 40
11.44999999999999
 40
11.44999999999999
 40
11.44999999999999
 40
19.94999999999999
 40
19.94999999999999
 40
19.94999999999999
 40
28.39999999999998
 40
28.39999999999998
 40
28.39999999999998
 40
29.39999999999998
 40
29.39999999999998
 40
29.39999999999998
 40
30.39999999999998
 40
30.39999999999998
 40
30.39999999999998
 40
31.39999999999998
 40
31.39999999999998
 40
31.39999999999998
 40
32.39999999999998
 40
32.39999999999998
 40
32.39999999999998
 40
33.39999999999998
 40
33.39999999999998
 40
33.39999999999998
 40
34.39999999999998
 40
34.39999999999998
 40
34.39999999999998
 40
34.39999999999998
 10
62.39485305555555
 20
134.4500316666667
 30
0.0
 10
62.33840861111111
 20
134.4500316666667
 30
0.0
 10
61.89038083333332
 20
133.3246705555555
 30
0.0
 10
61.89038083333332
 20
131.9382538888889
 30
0.0
 10
61.89038083333332
 20
130.555365
 30
0.0
 10
61.93976972222222
 20
129.7757261111111
 30
0.0
 10
61.93976972222222
 20
129.4300038888889
 30
0.0
 10
61.93976972222222
 20
128.4363464814815
 30
0.0
 10
61.93976972222222
 20
127.4426890740741
 30
0.0
 10
61.93976972222222
 20
126.4490316666667
 30
0.0
 10
60.94023268518518
 20
126.4490316666667
 30
0.0
 10
59.94069564814814
 20
126.4490316666667
 30
0.0
 10
58.94115861111111
 20
126.4490316666667
 30
0.0
 10
58.9411586111111
 20
127.4426890740741
 30
0.0
 10
58.9411586111111
 20
128.4363464814815
 30
0.0
 10
58.94115861111111
 20
129.4300038888889
 30
0.0
 10
58.94115861111111
 20
129.7757261111111
 30
0.0
 10
58.99054749999999
 20
130.555365
 30
0.0
 10
58.99054749999999
 20
131.9382538888889
 30
0.0
 10
58.99054749999999
 20
133.3246705555555
 30
0.0
 10
58.54251972222222
 20
134.4500316666667
 30
0.0
 10
58.48960305555556
 20
134.4500316666667
 30
0.0
 10
41.32696416666666
 20
139.9039761111111
 30
0.0
 10
35.15688083333333
 20
131.7406983333333
 30
0.0
 10
35.15688083333333
 20
125.1508094444444
 30
0.0
 10
35.15688083333333
 20
118.3280872222222
 30
0.0
 10
45.43682527777778
 20
119.4322816666667
 30
0.0
 10
60.44046416666666
 20
119.4287538888889
 30
0.0
 10
75.44410305555556
 20
119.4322816666667
 30
0.0
 10
85.72757527777776
 20
118.3280872222222
 30
0.0
 10
85.72757527777776
 20
125.1508094444444
 30
0.0
 10
85.72757527777776
 20
131.7406983333333
 30
0.0
 10
79.55749194444444
 20
139.9039761111111
 30
0.0
 10
62.39485305555555
 20
134.4500316666667
 30
0.0
  0
SPLINE
  5
9D
330
1F
100
AcDbEntity
  8
DEFAULT
 62
    18
100
AcDbSpline
210
0.0
220
0.0
230
1.0
 70
    11
 71
     3
 72
    17
 73
    13
 74
     0
 42
0.000000001
 43
0.0000000001
 40
0.0
 40
0.0
 40
0.0
 40
0.0
 40
1.0
 40
1.0
 40
1.0
 40
2.0
 40
2.0
 40
2.0
 40
3.0
 40
3.0
 40
3.0
 40
4.0
 40
4.0
 40
4.0
 40
4.0
 10
114.8782380555555
 20
176.0018211111111
 30
0.0
 10
113.9783019444444
 20
176.0011155555555
 30
0.0
 10
113.2466408333333
 20
176.7313655555555
 30
0.0
 10
113.2480519444444
 20
177.6305961111111
 30
0.0
 10
113.2480519444444
 20
178.5305322222222
 30
0.0
 10
113.9768908333333
 20
179.261135
 30
0.0
 10
114.8789436111111
 20
179.2593711111111
 30
0.0
 10
115.7760575
 20
179.2604294444444
 30
0.0
 10
116.5063075
 20
178.5298266666667
 30
0.0
 10
116.5063075
 20
177.6313016666666
 30
0.0
 10
116.5063075
 20
176.7288961111111
 30
0.0
 10
115.7767630555555
 20
176.0007627777778
 30
0.0
 10
114.8782380555555
 20
176.0018211111111
 30
0.0
  0
SPLINE
  5
9E
330
1F
100
AcDbEntity
  8
DEFAULT
 62
    18
100
AcDbSpline
210
0.0
220
0.0
230
1.0
 70
    11
 71
     3
 72
    17
 73
    13
 74
     0
 42
0.000000001
 43
0.0000000001
 40
0.0
 40
0.0
 40
0.0
 40
0.0
 40
1.0
 40
1.0
 40
1.0
 40
2.0
 40
2.0
 40
2.0
 40
3.0
 40
3.0
 40
3.0
 40
4.0
 40
4.0
 40
4.0
 40
4.0
 10
114.8775325
 20
182.5190377777778
 30
0.0
 10
112.1780769444444
 20
182.5208016666666
 30
0.0
 10
109.9890908333333
 20
180.3307572222222
 30
0.0
 10
109.9883852777778
 20
177.6295377777778
 30
0.0
 10
109.9876797222222
 20
174.92726
 30
0.0
 10
112.1766658333333
 20
172.7400377777778
 30
0.0
 10
114.8782380555555
 20
172.7389794444444
 30
0.0
 10
117.5762825
 20
172.7386266666666
 30
0.0
 10
119.7680908333333
 20
174.9293766666667
 30
0.0
 10
119.7673852777777
 20
177.6327127777778
 30
0.0
 10
119.7666797222222
 20
180.3307572222222
 30
0.0
 10
117.5769880555555
 20
182.5200961111111
 30
0.0
 10
114.8775325
 20
182.5190377777778
 30
0.0
  0
SPLINE
  5
9F
330
1F
100
AcDbEntity
  8
DEFAULT
 62
    18
100
AcDbSpline
210
0.0
220
0.0
230
1.0
 70
    11
 71
     3
 72
    17
 73
    13
 74
     0
 42
0.000000001
 43
0.0000000001
 40
0.0
 40
0.0
 40
0.0
 40
0.0
 40
1.0
 40
1.0
 40
1.0
 40
2.0
 40
2.0
 40
2.0
 40
3.0
 40
3.0
 40
3.0
 40
4.0
 40
4.0
 40
4.0
 40
4.0
 10
125.2293730555556
 20
175.999775
 30
0.0
 10
124.3266147222222
 20
176.0004805555555
 30
0.0
 10
123.5977758333333
 20
176.7296722222222
 30
0.0
 10
123.5998925
 20
177.6303138888889
 30
0.0
 10
123.5984813888889
 20
178.5306027777777
 30
0.0
 10
124.3294369444444
 20
179.2580305555555
 30
0.0
 10
125.2293730555556
 20
179.2605
 30
0.0
 10
126.1286036111111
 20
179.2615583333333
 30
0.0
 10
126.8574425
 20
178.533425
 30
0.0
 10
126.8574425
 20
177.62855
 30
0.0
 10
126.8602647222222
 20
176.730025
 30
0.0
 10
126.1264869444444
 20
175.999775
 30
0.0
 10
125.2293730555556
 20
175.999775
 30
0.0
  0
SPLINE
  5
A0
330
1F
100
AcDbEntity
  8
DEFAULT
 62
    18
100
AcDbSpline
210
0.0
220
0.0
230
1.0
 70
    11
 71
     3
 72
    26
 73
    22
 74
     0
 42
0.000000001
 43
0.0000000001
 40
0.0
 40
0.0
 40
0.0
 40
0.0
 40
1.0
 40
1.0
 40
1.0
 40
2.0
 40
2.0
 40
2.0
 40
11.23600000000005
 40
11.23600000000005
 40
11.23600000000005
 40
12.23600000000005
 40
12.23600000000005
 40
12.23600000000005
 40
13.23600000000005
 40
13.23600000000005
 40
13.23600000000005
 40
14.23600000000005
 40
14.23600000000005
 40
14.23600000000005
 40
15.23600000000005
 40
15.23600000000005
 40
15.23600000000005
 40
15.23600000000005
 10
125.2272563888889
 20
182.5198138888889
 30
0.0
 10
124.6575202777778
 20
182.5198138888889
 30
0.0
 10
124.1089508333333
 20
182.4217416666667
 30
0.0
 10
123.5998925
 20
182.241825
 30
0.0
 10
123.5991869444444
 20
183.3876472222222
 30
0.0
 10
123.5984813888889
 20
184.5338222222222
 30
0.0
 10
123.5977758333333
 20
185.6796444444444
 30
0.0
 10
122.5116906481481
 20
185.6796444444444
 30
0.0
 10
121.4256054629629
 20
185.6796444444444
 30
0.0
 10
120.3395202777778
 20
185.6796444444444
 30
0.0
 10
120.3384619444444
 20
182.9960638888889
 30
0.0
 10
120.3377563888889
 20
180.3128361111111
 30
0.0
 10
120.3366980555555
 20
177.6292555555555
 30
0.0
 10
120.3381091666667
 20
174.9280361111111
 30
0.0
 10
122.5292119444444
 20
172.7394027777778
 30
0.0
 10
125.2286675
 20
172.7397555555555
 30
0.0
 10
127.9295341666667
 20
172.7386972222222
 30
0.0
 10
130.1185202777778
 20
174.9312111111111
 30
0.0
 10
130.1199313888889
 20
177.6292555555555
 30
0.0
 10
130.1167563888889
 20
180.3301222222222
 30
0.0
 10
127.9281230555555
 20
182.5194611111111
 30
0.0
 10
125.2272563888889
 20
182.5198138888889
 30
0.0
  0
SPLINE
  5
A1
330
1F
100
AcDbEntity
  8
DEFAULT
 62
    18
100
AcDbSpline
210
0.0
220
0.0
230
1.0
 70
    11
 71
     3
 72
    29
 73
    25
 74
     0
 42
0.000000001
 43
0.0000000001
 40
0.0
 40
0.0
 40
0.0
 40
0.0
 40
1.0
 40
1.0
 40
1.0
 40
2.0
 40
2.0
 40
2.0
 40
3.0
 40
3.0
 40
3.0
 40
4.0
 40
4.0
 40
4.0
 40
5.0
 40
5.0
 40
5.0
 40
6.0
 40
6.0
 40
6.0
 40
7.0
 40
7.0
 40
7.0
 40
8.0
 40
8.0
 40
8.0
 40
8.0
 10
140.467715
 20
177.6289380555556
 30
0.0
 10
140.4705372222222
 20
174.9298352777778
 30
0.0
 10
138.2808455555555
 20
172.7401436111111
 30
0.0
 10
135.5803316666667
 20
172.7387325
 30
0.0
 10
132.8787594444444
 20
172.7387325
 30
0.0
 10
130.6883622222222
 20
174.9280713888889
 30
0.0
 10
130.6890677777778
 20
177.6278797222222
 30
0.0
 10
130.69189
 20
179.7604213888889
 30
0.0
 10
132.0493788888889
 20
181.5691130555556
 30
0.0
 10
133.9501455555555
 20
182.2415075
 30
0.0
 10
133.94944
 20
180.7044547222222
 30
0.0
 10
133.9490872222222
 20
179.1677547222222
 30
0.0
 10
133.9483816666666
 20
177.6307019444444
 30
0.0
 10
133.9487344444444
 20
176.7311186111111
 30
0.0
 10
134.6786316666666
 20
175.9998102777778
 30
0.0
 10
135.5824483333333
 20
175.9998102777778
 30
0.0
 10
136.4802677777778
 20
175.9998102777778
 30
0.0
 10
137.2108705555555
 20
176.7275908333333
 30
0.0
 10
137.2087538888889
 20
177.6289380555556
 30
0.0
 10
137.2091066666667
 20
179.1674019444444
 30
0.0
 10
137.2098122222222
 20
180.7058658333333
 30
0.0
 10
137.210165
 20
182.2443297222222
 30
0.0
 10
139.1095205555555
 20
181.5698186111111
 30
0.0
 10
140.4705372222222
 20
179.7597158333333
 30
0.0
 10
140.467715
 20
177.6289380555556
 30
0.0
  0
SPLINE
  5
A2
330
1F
100
AcDbEntity
  8
DEFAULT
 62
    18
100
AcDbSpline
210
0.0
220
0.0
230
1.0
 70
    11
 71
     3
 72
    17
 73
    13
 74
     0
 42
0.000000001
 43
0.0000000001
 40
0.0
 40
0.0
 40
0.0
 40
0.0
 40
1.0
 40
1.0
 40
1.0
 40
2.0
 40
2.0
 40
2.0
 40
3.0
 40
3.0
 40
3.0
 40
4.0
 40
4.0
 40
4.0
 40
4.0
 10
145.9302672222222
 20
175.9990694444444
 30
0.0
 10
145.0324477777777
 20
175.9976583333333
 30
0.0
 10
144.3014922222222
 20
176.7279083333333
 30
0.0
 10
144.3000811111111
 20
177.62855
 30
0.0
 10
144.3021977777778
 20
178.5306027777777
 30
0.0
 10
145.0317422222222
 20
179.2587361111111
 30
0.0
 10
145.9309727777778
 20
179.2608527777778
 30
0.0
 10
146.8316144444444
 20
179.2587361111111
 30
0.0
 10
147.5611588888889
 20
178.5306027777777
 30
0.0
 10
147.5611588888889
 20
177.62855
 30
0.0
 10
147.5618644444444
 20
176.7296722222222
 30
0.0
 10
146.8330255555555
 20
176.0008333333333
 30
0.0
 10
145.9302672222222
 20
175.9990694444444
 30
0.0
  0
SPLINE
  5
A3
330
1F
100
AcDbEntity
  8
DEFAULT
 62
    18
100
AcDbSpline
210
0.0
220
0.0
230
1.0
 70
    11
 71
     3
 72
    26
 73
    22
 74
     0
 42
0.000000001
 43
0.0000000001
 40
0.0
 40
0.0
 40
0.0
 40
0.0
 40
1.0
 40
1.0
 40
1.0
 40
2.0
 40
2.0
 40
2.0
 40
3.0
 40
3.0
 40
3.0
 40
4.0
 40
4.0
 40
4.0
 40
5.0
 40
5.0
 40
5.0
 40
6.0
 40
6.0
 40
6.0
 40
7.0
 40
7.0
 40
7.0
 40
7.0
 10
145.9309727777778
 20
182.5205194444444
 30
0.0
 10
143.2308116666667
 20
182.5187555555555
 30
0.0
 10
141.04112
 20
180.3308277777778
 30
0.0
 10
141.04112
 20
177.6292555555555
 30
0.0
 10
141.04112
 20
174.9280361111111
 30
0.0
 10
143.2308116666667
 20
172.7383444444444
 30
0.0
 10
145.9323838888889
 20
172.7383444444444
 30
0.0
 10
146.5000033333333
 20
172.7397555555555
 30
0.0
 10
147.051395
 20
172.8357111111111
 30
0.0
 10
147.5618644444444
 20
173.0163333333333
 30
0.0
 10
147.5615116666667
 20
171.8701583333333
 30
0.0
 10
147.5615116666667
 20
170.7236305555555
 30
0.0
 10
147.5611588888889
 20
169.5774555555555
 30
0.0
 10
148.6473616666667
 20
169.5788666666666
 30
0.0
 10
149.7332116666666
 20
169.579925
 30
0.0
 10
150.8194144444444
 20
169.5813361111111
 30
0.0
 10
150.8197672222222
 20
172.2631527777777
 30
0.0
 10
150.8204727777778
 20
174.9453222222222
 30
0.0
 10
150.8208255555555
 20
177.6271388888889
 30
0.0
 10
150.8236477777778
 20
180.3308277777778
 30
0.0
 10
148.6339561111111
 20
182.5205194444444
 30
0.0
 10
145.9309727777778
 20
182.5205194444444
 30
0.0
  0
POLYLINE
  5
A4
330
1F
100
AcDbEntity
  8
DEFAULT
 62
     1
100
AcDb2dPolyline
 66
     1
 10
0.0
 20
0.0
 30
0.0
 70
     1
  0
VERTEX
  5
A5
330
A4
100
AcDbEntity
  8
DEFAULT
 62
     1
100
AcDbVertex
100
AcDb2dVertex
 10
160.1251277777778
 20
0.1248833333333333
 30
0.0
  0
VERTEX
  5
A6
330
A4
100
AcDbEntity
  8
DEFAULT
 62
     1
100
AcDbVertex
100
AcDb2dVertex
 10
0.1252361111111175
 20
0.1248833333333333
 30
0.0
  0
VERTEX
  5
A7
330
A4
100
AcDbEntity
  8
DEFAULT
 62
     1
100
AcDbVertex
100
AcDb2dVertex
 10
0.1252361111111175
 20
190.1249972222222
 30
0.0
  0
VERTEX
  5
A8
330
A4
100
AcDbEntity
  8
DEFAULT
 62
     1
100
AcDbVertex
100
AcDb2dVertex
 10
160.1251277777778
 20
190.1249972222222
 30
0.0
  0
SEQEND
  5
A9
330
A4
100
AcDbEntity
  8
DEFAULT
 62
     1
  0
SPLINE
  5
AA
330
1F
100
AcDbEntity
  8
DEFAULT
 62
     1
100
AcDbSpline
210
0.0
220
0.0
230
1.0
 70
    11
 71
     3
 72
   221
 73
   217
 74
     0
 42
0.000000001
 43
0.0000000001
 40
1.0
 40
1.0
 40
1.0
 40
1.0
 40
2.0
 40
2.0
 40
2.0
 40
3.0
 40
3.0
 40
3.0
 40
4.0
 40
4.0
 40
4.0
 40
5.0
 40
5.0
 40
5.0
 40
6.0
 40
6.0
 40
6.0
 40
7.0
 40
7.0
 40
7.0
 40
8.0
 40
8.0
 40
8.0
 40
9.0
 40
9.0
 40
9.0
 40
10.0
 40
10.0
 40
10.0
 40
11.0
 40
11.0
 40
11.0
 40
12.0
 40
12.0
 40
12.0
 40
13.0
 40
13.0
 40
13.0
 40
14.0
 40
14.0
 40
14.0
 40
15.0
 40
15.0
 40
15.0
 40
16.0
 40
16.0
 40
16.0
 40
17.0
 40
17.0
 40
17.0
 40
18.0
 40
18.0
 40
18.0
 40
19.0
 40
19.0
 40
19.0
 40
20.0
 40
20.0
 40
20.0
 40
21.0
 40
21.0
 40
21.0
 40
22.0
 40
22.0
 40
22.0
 40
23.0
 40
23.0
 40
23.0
 40
24.0
 40
24.0
 40
24.0
 40
25.0
 40
25.0
 40
25.0
 40
26.0
 40
26.0
 40
26.0
 40
35.92678195590089
 40
35.92678195590089
 40
35.92678195590089
 40
36.92678195590089
 40
36.92678195590089
 40
36.92678195590089
 40
37.92678195590089
 40
37.92678195590089
 40
37.92678195590089
 40
38.92678195590089
 40
38.92678195590089
 40
38.92678195590089
 40
39.92678195590089
 40
39.92678195590089
 40
39.92678195590089
 40
40.92678195590089
 40
40.92678195590089
 40
40.92678195590089
 40
41.92678195590089
 40
41.92678195590089
 40
41.92678195590089
 40
42.92678195590089
 40
42.92678195590089
 40
42.92678195590089
 40
43.92678195590089
 40
43.92678195590089
 40
43.92678195590089
 40
44.92678195590089
 40
44.92678195590089
 40
44.92678195590089
 40
45.92678195590089
 40
45.92678195590089
 40
45.92678195590089
 40
46.92678195590089
 40
46.92678195590089
 40
46.92678195590089
 40
47.92678195590089
 40
47.92678195590089
 40
47.92678195590089
 40
48.92678195590089
 40
48.92678195590089
 40
48.92678195590089
 40
49.92678195590089
 40
49.92678195590089
 40
49.92678195590089
 40
50.92678195590089
 40
50.92678195590089
 40
50.92678195590089
 40
51.92678195590089
 40
51.92678195590089
 40
51.92678195590089
 40
52.92678195590089
 40
52.92678195590089
 40
52.92678195590089
 40
53.92678195590089
 40
53.92678195590089
 40
53.92678195590089
 40
54.92678195590089
 40
54.92678195590089
 40
54.92678195590089
 40
55.92678195590089
 40
55.92678195590089
 40
55.92678195590089
 40
56.92678195590089
 40
56.92678195590089
 40
56.92678195590089
 40
57.92678195590089
 40
57.92678195590089
 40
57.92678195590089
 40
58.92678195590089
 40
58.92678195590089
 40
58.92678195590089
 40
59.92678195590089
 40
59.92678195590089
 40
59.92678195590089
 40
60.92678195590089
 40
60.92678195590089
 40
60.92678195590089
 40
61.92678195590089
 40
61.92678195590089
 40
61.92678195590089
 40
62.92678195590089
 40
62.92678195590089
 40
62.92678195590089
 40
63.92678195590089
 40
63.92678195590089
 40
63.92678195590089
 40
64.92678195590089
 40
64.92678195590089
 40
64.92678195590089
 40
65.92678195590089
 40
65.92678195590089
 40
65.92678195590089
 40
66.92678195590089
 40
66.92678195590089
 40
66.92678195590089
 40
67.92678195590089
 40
67.92678195590089
 40
67.92678195590089
 40
68.92678195590089
 40
68.92678195590089
 40
68.92678195590089
 40
69.92678195590089
 40
69.92678195590089
 40
69.92678195590089
 40
70.92678195590089
 40
70.92678195590089
 40
70.92678195590089
 40
71.92678195590089
 40
71.92678195590089
 40
71.92678195590089
 40
72.92678195590089
 40
72.92678195590089
 40
72.92678195590089
 40
73.92678195590089
 40
73.92678195590089
 40
73.92678195590089
 40
74.92678195590089
 40
74.92678195590089
 40
74.92678195590089
 40
75.92678195590089
 40
75.92678195590089
 40
75.92678195590089
 40
76.92678195590089
 40
76.92678195590089
 40
76.92678195590089
 40
77.92678195590089
 40
77.92678195590089
 40
77.92678195590089
 40
78.92678195590089
 40
78.92678195590089
 40
78.92678195590089
 40
79.92678195590089
 40
79.92678195590089
 40
79.92678195590089
 40
80.92678195590089
 40
80.92678195590089
 40
80.92678195590089
 40
81.92678195590089
 40
81.92678195590089
 40
81.92678195590089
 40
81.92678195590089
 10
127.4352219444444
 20
142.5367566666667
 30
0.0
 10
127.4352219444444
 20
139.9508955555555
 30
0.0
 10
116.1216386111111
 20
139.4605344444444
 30
0.0
 10
116.3756386111111
 20
137.9647566666667
 30
0.0
 10
116.4497219444444
 20
137.2027566666667
 30
0.0
 10
115.5642497222222
 20
136.7723677777778
 30
0.0
 10
114.0861108333333
 20
136.6453677777778
 30
0.0
 10
113.3251691666667
 20
136.5793983333333
 30
0.0
 10
112.5645802777778
 20
136.5137816666667
 30
0.0
 10
111.8036386111111
 20
136.4478122222222
 30
0.0
 10
111.7471941666666
 20
136.4478122222222
 30
0.0
 10
111.2250830555555
 20
137.2980066666667
 30
0.0
 10
111.1298330555555
 20
138.3951455555555
 30
0.0
 10
111.0345830555555
 20
139.49934
 30
0.0
 10
111.0275275
 20
140.1202288888889
 30
0.0
 10
111.0028330555556
 20
140.3953955555556
 30
0.0
 10
110.8874747222222
 20
141.7228983333333
 30
0.0
 10
110.7724691666667
 20
143.0507538888889
 30
0.0
 10
110.6571108333333
 20
144.3782566666667
 30
0.0
 10
109.6612191666667
 20
144.2911205555556
 30
0.0
 10
108.6649747222222
 20
144.2043372222222
 30
0.0
 10
107.6690830555556
 20
144.1172011111111
 30
0.0
 10
107.7854997222222
 20
142.7896983333333
 30
0.0
 10
107.9019163888889
 20
141.4618427777777
 30
0.0
 10
108.0183330555555
 20
140.13434
 30
0.0
 10
108.0394997222222
 20
139.8591733333333
 30
0.0
 10
108.1418052777778
 20
139.24534
 30
0.0
 10
108.2405830555556
 20
138.1446733333333
 30
0.0
 10
108.3358330555556
 20
137.0404788888889
 30
0.0
 10
107.9689441666667
 20
136.1126733333333
 30
0.0
 10
107.9160275
 20
136.1056177777778
 30
0.0
 10
107.1127525
 20
136.0361205555555
 30
0.0
 10
106.3098302777778
 20
135.9669761111111
 30
0.0
 10
105.5065552777778
 20
135.8974788888889
 30
0.0
 10
104.2683052777778
 20
135.7881177777778
 30
0.0
 10
103.1923330555555
 20
136.2502566666666
 30
0.0
 10
103.0900275
 20
137.0933955555555
 30
0.0
 10
101.9858330555555
 20
146.4243677777777
 30
0.0
 10
92.15391638888889
 20
151.6772288888889
 30
0.0
 10
92.15391638888889
 20
154.8275344444444
 30
0.0
 10
92.15391638888889
 20
161.4174233333333
 30
0.0
 10
85.98383305555555
 20
169.5807011111111
 30
0.0
 10
68.82119416666666
 20
164.1267566666666
 30
0.0
 10
68.09094416666666
 20
163.8233677777778
 30
0.0
 10
66.78919416666666
 20
163.3718122222222
 30
0.0
 10
64.91594416666666
 20
164.1267566666666
 30
0.0
 10
47.75330527777777
 20
169.5807011111111
 30
0.0
 10
41.58322194444443
 20
161.4174233333333
 30
0.0
 10
41.58322194444443
 20
154.8275344444444
 30
0.0
 10
41.58322194444443
 20
150.7952844444444
 30
0.0
 10
31.38794416666667
 20
146.2973677777778
 30
0.0
 10
30.17438861111111
 20
137.1075066666667
 30
0.0
 10
30.05444416666666
 20
136.0879788888889
 30
0.0
 10
29.57466638888889
 20
135.8233955555555
 30
0.0
 10
27.37333305555556
 20
136.0174233333333
 30
0.0
 10
20.69983583333332
 20
136.600565
 30
0.0
 10
14.02669138888888
 20
137.1840594444444
 30
0.0
 10
7.35319416666667
 20
137.7672011111111
 30
0.0
 10
6.125527499999998
 20
141.2420622222222
 30
0.0
 10
17.19922194444444
 20
139.6686733333333
 30
0.0
 10
18.34574972222221
 20
142.16634
 30
0.0
 10
19.3970275
 20
144.4488122222222
 30
0.0
 10
17.48849972222221
 20
147.3768677777778
 30
0.0
 10
18.34574972222221
 20
148.2905622222222
 30
0.0
 10
18.36338861111111
 20
148.3434788888889
 30
0.0
 10
19.2523886111111
 20
148.4951733333333
 30
0.0
 10
20.16255527777778
 20
148.16709
 30
0.0
 10
21.07272194444444
 20
147.8354788888889
 30
0.0
 10
21.56661083333332
 20
147.6026455555555
 30
0.0
 10
21.79238861111111
 20
147.5215066666667
 30
0.0
 10
22.88846916666666
 20
147.1228677777778
 30
0.0
 10
23.98419694444444
 20
146.7242288888889
 30
0.0
 10
25.0802775
 20
146.32559
 30
0.0
 10
25.42247194444444
 20
147.2650372222222
 30
0.0
 10
25.76466638888889
 20
148.2048372222222
 30
0.0
 10
26.10686083333333
 20
149.1442844444445
 30
0.0
 10
25.00972194444444
 20
149.5429233333333
 30
0.0
 10
23.91258305555555
 20
149.9415622222222
 30
0.0
 10
22.81544416666666
 20
150.3402011111111
 30
0.0
 10
22.59319416666667
 20
150.42134
 30
0.0
 10
22.0640275
 20
150.5624511111111
 30
0.0
 10
21.15386083333334
 20
150.8905344444444
 30
0.0
 10
20.24369416666666
 20
151.2221455555556
 30
0.0
 10
19.66161083333333
 20
151.9100622222222
 30
0.0
 10
19.6827775
 20
151.9629788888889
 30
0.0
 10
19.26649972222222
 20
153.7586177777778
 30
0.0
 10
27.82136083333333
 20
167.0124788888889
 30
0.0
 10
29.60641638888888
 20
167.2276733333333
 30
0.0
 10
29.64522194444444
 20
167.2664788888889
 30
0.0
 10
30.51658305555555
 20
167.0301177777778
 30
0.0
 10
31.20097194444443
 20
166.3457288888889
 30
0.0
 10
31.88536083333332
 20
165.66134
 30
0.0
 10
32.2381386111111
 20
165.2450622222222
 30
0.0
 10
32.40747194444444
 20
165.0757288888889
 30
0.0
 10
33.2319136111111
 20
164.2512872222222
 30
0.0
 10
34.0560025
 20
163.4271983333333
 30
0.0
 10
34.88044416666666
 20
162.6027566666667
 30
0.0
 10
35.58705805555554
 20
163.3107816666667
 30
0.0
 10
36.29402472222222
 20
164.0184538888889
 30
0.0
 10
37.0006386111111
 20
164.7264788888889
 30
0.0
 10
36.17513861111111
 20
165.5495094444444
 30
0.0
 10
35.34963861111112
 20
166.3728927777778
 30
0.0
 10
34.52413861111111
 20
167.1959233333333
 30
0.0
 10
34.35480527777776
 20
167.3652566666667
 30
0.0
 10
33.93499972222221
 20
167.7145066666667
 30
0.0
 10
33.25061083333333
 20
168.3988955555556
 30
0.0
 10
32.56622194444444
 20
169.0832844444444
 30
0.0
 10
32.32633305555554
 20
169.9511177777778
 30
0.0
 10
32.36866638888888
 20
169.9899233333333
 30
0.0
 10
32.73908305555555
 20
171.7961455555555
 30
0.0
 10
46.09172194444444
 20
180.3122011111111
 30
0.0
 10
47.80622194444444
 20
179.7618677777778
 30
0.0
 10
47.85561083333332
 20
179.7795066666667
 30
0.0
 10
48.5435275
 20
179.1974233333333
 30
0.0
 10
48.8751386111111
 20
178.2872566666667
 30
0.0
 10
49.20674972222222
 20
177.3806177777778
 30
0.0
 10
49.34786083333333
 20
176.8514511111111
 30
0.0
 10
49.42899972222222
 20
176.6256733333333
 30
0.0
 10
49.82869694444444
 20
175.5295927777778
 30
0.0
 10
50.22874694444444
 20
174.433865
 30
0.0
 10
50.62844416666666
 20
173.3377844444444
 30
0.0
 10
51.56683305555555
 20
173.6799788888889
 30
0.0
 10
52.50522194444444
 20
174.0221733333333
 30
0.0
 10
53.44361083333332
 20
174.3643677777778
 30
0.0
 10
53.04497194444443
 20
175.4604483333333
 30
0.0
 10
52.64633305555555
 20
176.5561761111111
 30
0.0
 10
52.24769416666666
 20
177.6522566666667
 30
0.0
 10
52.16655527777777
 20
177.8780344444444
 30
0.0
 10
51.93372194444444
 20
178.3719233333333
 30
0.0
 10
51.60211083333333
 20
179.28209
 30
0.0
 10
51.27049972222221
 20
180.1922566666667
 30
0.0
 10
51.42219416666666
 20
181.0777288888889
 30
0.0
 10
51.47511083333333
 20
181.0988955555556
 30
0.0
 10
52.58636083333333
 20
182.5699788888889
 30
0.0
 10
68.2426386111111
 20
184.5314233333333
 30
0.0
 10
69.55497194444445
 20
183.3002288888889
 30
0.0
 10
69.60436083333333
 20
183.2967011111111
 30
0.0
 10
69.98536083333333
 20
182.4782566666667
 30
0.0
 10
69.90069416666665
 20
181.5116455555556
 30
0.0
 10
69.81602749999999
 20
180.5485622222222
 30
0.0
 10
69.7207775
 20
180.01234
 30
0.0
 10
69.69961083333332
 20
179.7724511111111
 30
0.0
 10
69.5983636111111
 20
178.6107538888889
 30
0.0
 10
69.49746916666666
 20
177.4487038888889
 30
0.0
 10
69.39622194444443
 20
176.2870066666667
 30
0.0
 10
70.3921136111111
 20
176.1998705555555
 30
0.0
 10
71.38835805555556
 20
176.1130872222222
 30
0.0
 10
72.38424972222221
 20
176.0259511111111
 30
0.0
 10
72.48549694444444
 20
177.1876483333333
 30
0.0
 10
72.58639138888888
 20
178.3496983333333
 30
0.0
 10
72.68763861111111
 20
179.5113955555555
 30
0.0
 10
72.70880527777777
 20
179.7512844444444
 30
0.0
 10
72.70880527777777
 20
180.29809
 30
0.0
 10
72.78994416666666
 20
181.2611733333333
 30
0.0
 10
72.87461083333332
 20
182.2207288888889
 30
0.0
 10
73.38261083333333
 20
182.9580344444445
 30
0.0
 10
73.44258305555555
 20
182.9615622222222
 30
0.0
 10
75.07594416666666
 20
183.82234
 30
0.0
 10
89.98433305555555
 20
178.9610622222222
 30
0.0
 10
90.64755527777778
 20
177.2888955555555
 30
0.0
 10
90.69341638888889
 20
177.2642011111111
 30
0.0
 10
90.68988861111112
 20
176.36109
 30
0.0
 10
90.20658305555554
 20
175.5214788888889
 30
0.0
 10
89.7232775
 20
174.6853955555555
 30
0.0
 10
89.40930527777776
 20
174.2373677777778
 30
0.0
 10
89.28936083333333
 20
174.0292288888889
 30
0.0
 10
88.70727749999999
 20
173.0192261111111
 30
0.0
 10
88.12519416666666
 20
172.0088705555555
 30
0.0
 10
87.54311083333333
 20
170.9988677777778
 30
0.0
 10
88.40847472222221
 20
170.5003927777778
 30
0.0
 10
89.27419138888888
 20
170.001565
 30
0.0
 10
90.13955527777777
 20
169.50309
 30
0.0
 10
90.7216386111111
 20
170.5130927777778
 30
0.0
 10
91.30372194444443
 20
171.5234483333333
 30
0.0
 10
91.88580527777778
 20
172.5334511111111
 30
0.0
 10
92.00927749999998
 20
172.74159
 30
0.0
 10
92.23858305555555
 20
173.2354788888889
 30
0.0
 10
92.71836083333334
 20
174.0715622222222
 30
0.0
 10
93.20519416666667
 20
174.9111733333333
 30
0.0
 10
93.98130527777778
 20
175.3662566666667
 30
0.0
 10
94.03069416666666
 20
175.3380344444444
 30
0.0
 10
95.87219416666665
 20
175.4262288888889
 30
0.0
 10
107.2351663888889
 20
164.7935066666667
 30
0.0
 10
107.1258052777778
 20
162.9978677777778
 30
0.0
 10
107.1575552777778
 20
162.9555344444444
 30
0.0
 10
106.7730275
 20
162.13709
 30
0.0
 10
105.9792775
 20
161.5797011111111
 30
0.0
 10
105.1890552777778
 20
161.02584
 30
0.0
 10
104.7163330555556
 20
160.7542011111111
 30
0.0
 10
104.5187775
 20
160.6166177777778
 30
0.0
 10
103.5638080555555
 20
159.94634
 30
0.0
 10
102.6091913888889
 20
159.2760622222222
 30
0.0
 10
101.6542219444444
 20
158.6057844444444
 30
0.0
 10
102.2281913888889
 20
157.78734
 30
0.0
 10
102.8018080555555
 20
156.9688955555555
 30
0.0
 10
103.3757775
 20
156.1504511111111
 30
0.0
 10
104.3307469444444
 20
156.8207288888889
 30
0.0
 10
105.2853636111111
 20
157.4910066666666
 30
0.0
 10
106.2403330555556
 20
158.1612844444444
 30
0.0
 10
106.4378886111111
 20
158.2988677777778
 30
0.0
 10
106.8541663888889
 20
158.6481177777778
 30
0.0
 10
107.6479163888889
 20
159.2055066666667
 30
0.0
 10
108.4381386111111
 20
159.7593677777778
 30
0.0
 10
109.3377219444444
 20
159.8475622222222
 30
0.0
 10
109.3694719444444
 20
159.8017011111111
 30
0.0
 10
110.4595552777778
 20
159.3995344444444
 30
0.0
 10
114.3224719444444
 20
151.3068122222222
 30
0.0
 10
115.6877219444444
 20
146.5760622222222
 30
0.0
 10
115.6877219444444
 20
146.5654788888889
 30
0.0
 10
115.6912497222222
 20
146.5513677777778
 30
0.0
 10
115.6983052777778
 20
146.5407844444444
 30
0.0
 10
116.1181108333333
 20
145.7752566666666
 30
0.0
 10
124.9622497222222
 20
145.2496177777778
 30
0.0
 10
125.2515275
 20
143.3940066666667
 30
0.0
 10
126.7966941666667
 20
145.3801455555555
 30
0.0
 10
127.4352219444444
 20
143.8067566666667
 30
0.0
 10
127.4352219444444
 20
142.5367566666667
 30
0.0
  0
SPLINE
  5
AB
330
1F
100
AcDbEntity
  8
DEFAULT
 62
    18
100
AcDbSpline
210
0.0
220
0.0
230
1.0
 70
    11
 71
     3
 72
    17
 73
    13
 74
     0
 42
0.000000001
 43
0.0000000001
 40
0.0
 40
0.0
 40
0.0
 40
0.0
 40
1.0
 40
1.0
 40
1.0
 40
2.0
 40
2.0
 40
2.0
 40
3.0
 40
3.0
 40
3.0
 40
4.0
 40
4.0
 40
4.0
 40
4.0
 10
57.12167194444444
 20
178.4491111111111
 30
0.0
 10
56.89765805555555
 20
178.4223
 30
0.0
 10
56.6937525
 20
178.5828138888889
 30
0.0
 10
56.66694138888889
 20
178.8061222222222
 30
0.0
 10
56.64083583333333
 20
179.0297833333333
 30
0.0
 10
56.79993861111111
 20
179.2340416666667
 30
0.0
 10
57.02465805555555
 20
179.2601472222222
 30
0.0
 10
57.24831916666667
 20
179.2876638888889
 30
0.0
 10
57.45187194444444
 20
179.1275027777777
 30
0.0
 10
57.47868305555555
 20
178.9034888888889
 30
0.0
 10
57.50549416666666
 20
178.6784166666666
 30
0.0
 10
57.34568583333333
 20
178.4759222222222
 30
0.0
 10
57.12167194444444
 20
178.4491111111111
 30
0.0
  0
SPLINE
  5
AC
330
1F
100
AcDbEntity
  8
DEFAULT
 62
    18
100
AcDbSpline
210
0.0
220
0.0
230
1.0
 70
    11
 71
     3
 72
    17
 73
    13
 74
     0
 42
0.000000001
 43
0.0000000001
 40
0.0
 40
0.0
 40
0.0
 40
0.0
 40
1.0
 40
1.0
 40
1.0
 40
2.0
 40
2.0
 40
2.0
 40
3.0
 40
3.0
 40
3.0
 40
4.0
 40
4.0
 40
4.0
 40
4.0
 10
56.92658583333333
 20
180.0718888888889
 30
0.0
 10
56.25489694444445
 20
179.9918083333333
 30
0.0
 10
55.77547194444444
 20
179.38115
 30
0.0
 10
55.85590527777778
 20
178.7087555555555
 30
0.0
 10
55.93669138888888
 20
178.0360083333333
 30
0.0
 10
56.54629138888889
 20
177.5569361111111
 30
0.0
 10
57.21868583333333
 20
177.6373694444444
 30
0.0
 10
57.89037472222222
 20
177.71745
 30
0.0
 10
58.37085805555555
 20
178.3281083333333
 30
0.0
 10
58.29042472222223
 20
179.0012083333333
 30
0.0
 10
58.20963861111111
 20
179.6728972222222
 30
0.0
 10
57.59933305555555
 20
180.1523222222222
 30
0.0
 10
56.92658583333333
 20
180.0718888888889
 30
0.0
  0
SPLINE
  5
AD
330
1F
100
AcDbEntity
  8
DEFAULT
 62
    18
100
AcDbSpline
210
0.0
220
0.0
230
1.0
 70
    11
 71
     3
 72
    17
 73
    13
 74
     0
 42
0.000000001
 43
0.0000000001
 40
0.0
 40
0.0
 40
0.0
 40
0.0
 40
1.0
 40
1.0
 40
1.0
 40
2.0
 40
2.0
 40
2.0
 40
3.0
 40
3.0
 40
3.0
 40
4.0
 40
4.0
 40
4.0
 40
4.0
 10
59.69843138888888
 20
178.7574741666666
 30
0.0
 10
59.47406472222222
 20
178.7310158333333
 30
0.0
 10
59.27086472222221
 20
178.8908241666666
 30
0.0
 10
59.24440638888888
 20
179.1148380555555
 30
0.0
 10
59.21688972222221
 20
179.3384991666667
 30
0.0
 10
59.37669805555554
 20
179.5420519444444
 30
0.0
 10
59.60141749999999
 20
179.5695686111111
 30
0.0
 10
59.82472583333332
 20
179.5963797222222
 30
0.0
 10
60.02863138888888
 20
179.4365713888889
 30
0.0
 10
60.05544249999999
 20
179.2118519444444
 30
0.0
 10
60.0822536111111
 20
178.9885436111111
 30
0.0
 10
59.92173972222221
 20
178.7846380555555
 30
0.0
 10
59.69843138888888
 20
178.7574741666666
 30
0.0
  0
SPLINE
  5
AE
330
1F
100
AcDbEntity
  8
DEFAULT
 62
    18
100
AcDbSpline
210
0.0
220
0.0
230
1.0
 70
    11
 71
     3
 72
    26
 73
    22
 74
     0
 42
0.000000001
 43
0.0000000001
 40
0.0
 40
0.0
 40
0.0
 40
0.0
 40
1.0
 40
1.0
 40
1.0
 40
2.0
 40
2.0
 40
2.0
 40
3.0
 40
3.0
 40
3.0
 40
4.0
 40
4.0
 40
4.0
 40
5.0
 40
5.0
 40
5.0
 40
6.0
 40
6.0
 40
6.0
 40
7.0
 40
7.0
 40
7.0
 40
7.0
 10
59.50440361111111
 20
180.3806047222222
 30
0.0
 10
59.3615286111111
 20
180.3636713888889
 30
0.0
 10
59.22817861111111
 20
180.3227491666667
 30
0.0
 10
59.10682305555554
 20
180.2627769444444
 30
0.0
 10
59.07225083333333
 20
180.5478213888888
 30
0.0
 10
59.03803138888888
 20
180.8332186111111
 30
0.0
 10
59.00345916666667
 20
181.1182630555555
 30
0.0
 10
58.73323138888888
 20
181.0861602777778
 30
0.0
 10
58.46265083333333
 20
181.0540575
 30
0.0
 10
58.19242305555555
 20
181.0219547222222
 30
0.0
 10
58.27250361111111
 20
180.3537936111111
 30
0.0
 10
58.35223138888889
 20
179.6856325
 30
0.0
 10
58.43231194444444
 20
179.0174713888889
 30
0.0
 10
58.51274527777777
 20
178.3450769444444
 30
0.0
 10
59.12410916666666
 20
177.8660047222222
 30
0.0
 10
59.79579805555555
 20
177.9460852777777
 30
0.0
 10
60.46819249999999
 20
178.0265186111111
 30
0.0
 10
60.94726472222222
 20
178.6371769444444
 30
0.0
 10
60.86788972222222
 20
179.3088658333333
 30
0.0
 10
60.78604527777777
 20
179.9812602777777
 30
0.0
 10
60.1760925
 20
180.4610380555555
 30
0.0
 10
59.50440361111111
 20
180.3806047222222
 30
0.0
  0
SPLINE
  5
AF
330
1F
100
AcDbEntity
  8
DEFAULT
 62
    18
100
AcDbSpline
210
0.0
220
0.0
230
1.0
 70
    11
 71
     3
 72
    29
 73
    25
 74
     0
 42
0.000000001
 43
0.0000000001
 40
0.0
 40
0.0
 40
0.0
 40
0.0
 40
1.0
 40
1.0
 40
1.0
 40
2.0
 40
2.0
 40
2.0
 40
3.0
 40
3.0
 40
3.0
 40
4.0
 40
4.0
 40
4.0
 40
5.0
 40
5.0
 40
5.0
 40
6.0
 40
6.0
 40
6.0
 40
7.0
 40
7.0
 40
7.0
 40
8.0
 40
8.0
 40
8.0
 40
8.0
 10
63.44274416666666
 20
179.6176875
 30
0.0
 10
63.52388305555555
 20
178.9459986111111
 30
0.0
 10
63.04445805555556
 20
178.3353402777778
 30
0.0
 10
62.37276916666667
 20
178.2549069444444
 30
0.0
 10
61.70037472222222
 20
178.1741208333333
 30
0.0
 10
61.0897163888889
 20
178.6535458333333
 30
0.0
 10
61.00928305555556
 20
179.3255875
 30
0.0
 10
60.94648861111111
 20
179.8565180555555
 30
0.0
 10
61.23047472222223
 20
180.3472319444444
 30
0.0
 10
61.68379416666667
 20
180.5712458333333
 30
0.0
 10
61.7293025
 20
180.1884819444444
 30
0.0
 10
61.77516361111111
 20
179.8060708333333
 30
0.0
 10
61.82067194444444
 20
179.4233069444444
 30
0.0
 10
61.84783583333333
 20
179.1992930555555
 30
0.0
 10
62.05103583333334
 20
179.0391319444444
 30
0.0
 10
62.27610805555556
 20
179.0662958333333
 30
0.0
 10
62.49941638888888
 20
179.0927541666667
 30
0.0
 10
62.65922472222222
 20
179.2959541666667
 30
0.0
 10
62.63170805555555
 20
179.5203208333333
 30
0.0
 10
62.58584694444444
 20
179.9030847222222
 30
0.0
 10
62.54033861111111
 20
180.2862013888889
 30
0.0
 10
62.4944775
 20
180.6689652777777
 30
0.0
 10
62.98730805555555
 20
180.5581930555555
 30
0.0
 10
63.37994972222222
 20
180.1475597222222
 30
0.0
 10
63.44274416666666
 20
179.6176875
 30
0.0
  0
SPLINE
  5
B0
330
1F
100
AcDbEntity
  8
DEFAULT
 62
    18
100
AcDbSpline
210
0.0
220
0.0
230
1.0
 70
    11
 71
     3
 72
    17
 73
    13
 74
     0
 42
0.000000001
 43
0.0000000001
 40
0.0
 40
0.0
 40
0.0
 40
0.0
 40
1.0
 40
1.0
 40
1.0
 40
2.0
 40
2.0
 40
2.0
 40
3.0
 40
3.0
 40
3.0
 40
4.0
 40
4.0
 40
4.0
 40
4.0
 10
64.85177388888887
 20
179.3748352777777
 30
0.0
 10
64.62846555555554
 20
179.3476713888889
 30
0.0
 10
64.42455999999999
 20
179.5074797222222
 30
0.0
 10
64.39704333333333
 20
179.7321991666666
 30
0.0
 10
64.37093777777777
 20
179.9558602777778
 30
0.0
 10
64.5307461111111
 20
180.1597658333333
 30
0.0
 10
64.75546555555555
 20
180.1869297222222
 30
0.0
 10
64.97912666666666
 20
180.2130352777777
 30
0.0
 10
65.18197388888888
 20
180.0539325
 30
0.0
 10
65.20878499999999
 20
179.8292130555555
 30
0.0
 10
65.23630166666666
 20
179.6048463888889
 30
0.0
 10
65.07649333333332
 20
179.4019991666666
 30
0.0
 10
64.85177388888887
 20
179.3748352777777
 30
0.0
  0
SPLINE
  5
B1
330
1F
100
AcDbEntity
  8
DEFAULT
 62
    18
100
AcDbSpline
210
0.0
220
0.0
230
1.0
 70
    11
 71
     3
 72
    26
 73
    22
 74
     0
 42
0.000000001
 43
0.0000000001
 40
0.0
 40
0.0
 40
0.0
 40
0.0
 40
1.0
 40
1.0
 40
1.0
 40
2.0
 40
2.0
 40
2.0
 40
3.0
 40
3.0
 40
3.0
 40
4.0
 40
4.0
 40
4.0
 40
5.0
 40
5.0
 40
5.0
 40
6.0
 40
6.0
 40
6.0
 40
7.0
 40
7.0
 40
7.0
 40
7.0
 10
64.65739333333333
 20
180.9986713888889
 30
0.0
 10
63.98499888888888
 20
180.9171797222222
 30
0.0
 10
63.50557388888889
 20
180.3075797222222
 30
0.0
 10
63.58600722222221
 20
179.6348325
 30
0.0
 10
63.66679333333333
 20
178.9624380555555
 30
0.0
 10
64.27709888888889
 20
178.4823075
 30
0.0
 10
64.94949333333332
 20
178.5630936111111
 30
0.0
 10
65.09095722222222
 20
178.5800269444444
 30
0.0
 10
65.22536555555556
 20
178.6205963888889
 30
0.0
 10
65.34636833333333
 20
178.6805686111111
 30
0.0
 10
65.38058777777778
 20
178.3951713888889
 30
0.0
 10
65.41480722222221
 20
178.1101269444444
 30
0.0
 10
65.44902666666665
 20
177.8247297222222
 30
0.0
 10
65.71925444444443
 20
177.8575380555555
 30
0.0
 10
65.98983499999999
 20
177.8899936111111
 30
0.0
 10
66.26006277777778
 20
177.9228019444444
 30
0.0
 10
66.180335
 20
178.5906102777778
 30
0.0
 10
66.10025444444445
 20
179.2580658333333
 30
0.0
 10
66.02052666666667
 20
179.9258741666666
 30
0.0
 10
65.9404461111111
 20
180.5996797222222
 30
0.0
 10
65.32978777777777
 20
181.0791047222222
 30
0.0
 10
64.65739333333333
 20
180.9986713888889
 30
0.0
  0
SPLINE
  5
B2
330
1F
100
AcDbEntity
  8
DEFAULT
 62
     1
100
AcDbSpline
210
0.0
220
0.0
230
1.0
 70
    11
 71
     3
 72
    59
 73
    55
 74
     0
 42
0.000000001
 43
0.0000000001
 40
1.0
 40
1.0
 40
1.0
 40
1.0
 40
50.76999999999998
 40
50.76999999999998
 40
50.76999999999998
 40
51.76999999999998
 40
51.76999999999998
 40
51.76999999999998
 40
52.76999999999998
 40
52.76999999999998
 40
52.76999999999998
 40
53.76999999999998
 40
53.76999999999998
 40
53.76999999999998
 40
54.76999999999998
 40
54.76999999999998
 40
54.76999999999998
 40
55.76999999999998
 40
55.76999999999998
 40
55.76999999999998
 40
56.76999999999998
 40
56.76999999999998
 40
56.76999999999998
 40
57.76999999999998
 40
57.76999999999998
 40
57.76999999999998
 40
58.76999999999998
 40
58.76999999999998
 40
58.76999999999998
 40
59.76999999999998
 40
59.76999999999998
 40
59.76999999999998
 40
60.76999999999998
 40
60.76999999999998
 40
60.76999999999998
 40
61.76999999999998
 40
61.76999999999998
 40
61.76999999999998
 40
62.76999999999998
 40
62.76999999999998
 40
62.76999999999998
 40
63.76999999999998
 40
63.76999999999998
 40
63.76999999999998
 40
64.76999999999998
 40
64.76999999999998
 40
64.76999999999998
 40
65.76999999999998
 40
65.76999999999998
 40
65.76999999999998
 40
66.76999999999998
 40
66.76999999999998
 40
66.76999999999998
 40
67.76999999999998
 40
67.76999999999998
 40
67.76999999999998
 40
67.76999999999998
 10
132.7721147222222
 20
94.65433472222222
 30
0.0
 10
126.9195313888889
 20
94.65433472222223
 30
0.0
 10
121.0669480555555
 20
94.65433472222223
 30
0.0
 10
115.2143647222222
 20
94.65433472222222
 30
0.0
 10
115.2143647222222
 20
94.65433472222222
 30
0.0
 10
112.8119480555555
 20
95.51864027777778
 30
0.0
 10
112.8084202777778
 20
99.01466805555556
 30
0.0
 10
112.8084202777778
 20
100.2070569444444
 30
0.0
 10
113.5668925
 20
104.2322513888889
 30
0.0
 10
116.4596702777778
 20
106.3312791666667
 30
0.0
 10
121.0916425
 20
109.5697791666666
 30
0.0
 10
122.7426425
 20
110.8503625
 30
0.0
 10
124.6723369444444
 20
112.8541402777778
 30
0.0
 10
125.0991980555555
 20
113.2986402777778
 30
0.0
 10
126.1681147222222
 20
111.2207791666667
 30
0.0
 10
126.6620036111111
 20
110.5081680555556
 30
0.0
 10
126.7008091666667
 20
110.4623069444444
 30
0.0
 10
126.0340591666667
 20
109.4568902777778
 30
0.0
 10
124.9051702777778
 20
108.6631402777778
 30
0.0
 10
123.7692258333333
 20
107.8729180555556
 30
0.0
 10
123.1095313888889
 20
107.4636958333333
 30
0.0
 10
122.8273091666667
 20
107.2696680555556
 30
0.0
 10
122.5546119444444
 20
107.0791680555556
 30
0.0
 10
122.2815619444444
 20
106.8886680555556
 30
0.0
 10
122.0088647222222
 20
106.6981680555556
 30
0.0
 10
122.5814230555555
 20
105.8797236111111
 30
0.0
 10
123.1543341666667
 20
105.0612791666667
 30
0.0
 10
123.7268925
 20
104.2428347222222
 30
0.0
 10
123.9985313888889
 20
104.4322763888889
 30
0.0
 10
124.2701702777778
 20
104.6213652777778
 30
0.0
 10
124.5418091666667
 20
104.8108069444445
 30
0.0
 10
124.8275591666667
 20
105.0083625
 30
0.0
 10
125.4343369444444
 20
105.4951958333333
 30
0.0
 10
126.5632258333333
 20
106.2854180555556
 30
0.0
 10
127.7026980555555
 20
107.0791680555556
 30
0.0
 10
128.8774480555555
 20
107.3508069444444
 30
0.0
 10
128.9056702777778
 20
107.3084736111111
 30
0.0
 10
129.3819202777778
 20
106.6311402777778
 30
0.0
 10
130.1368647222222
 20
106.5323625
 30
0.0
 10
129.9851702777778
 20
106.0490569444444
 30
0.0
 10
129.8899202777777
 20
105.7562513888889
 30
0.0
 10
129.4171980555555
 20
104.6555847222222
 30
0.0
 10
129.3925036111111
 20
104.5885569444444
 30
0.0
 10
128.7292813888889
 20
102.9834180555556
 30
0.0
 10
128.1577813888889
 20
102.0379736111111
 30
0.0
 10
128.0625313888889
 20
100.9196680555555
 30
0.0
 10
127.2723091666667
 20
99.51208472222221
 30
0.0
 10
125.8470869444444
 20
100.0976958333333
 30
0.0
 10
125.9211702777778
 20
99.4838625
 30
0.0
 10
126.1575313888889
 20
97.54358472222222
 30
0.0
 10
129.0079758333333
 20
97.2119736111111
 30
0.0
 10
131.4456702777778
 20
96.7216125
 30
0.0
 10
132.8991147222222
 20
96.42880694444443
 30
0.0
 10
132.7721147222222
 20
95.3105013888889
 30
0.0
 10
132.7721147222222
 20
94.65433472222222
 30
0.0
  0
SPLINE
  5
B3
330
1F
100
AcDbEntity
  8
DEFAULT
 62
     1
100
AcDbSpline
210
0.0
220
0.0
230
1.0
 70
    11
 71
     3
 72
    56
 73
    52
 74
     0
 42
0.000000001
 43
0.0000000001
 40
1.0
 40
1.0
 40
1.0
 40
1.0
 40
52.30000000000001
 40
52.30000000000001
 40
52.30000000000001
 40
53.30000000000001
 40
53.30000000000001
 40
53.30000000000001
 40
54.30000000000001
 40
54.30000000000001
 40
54.30000000000001
 40
55.30000000000001
 40
55.30000000000001
 40
55.30000000000001
 40
56.30000000000001
 40
56.30000000000001
 40
56.30000000000001
 40
57.30000000000001
 40
57.30000000000001
 40
57.30000000000001
 40
58.30000000000001
 40
58.30000000000001
 40
58.30000000000001
 40
59.30000000000001
 40
59.30000000000001
 40
59.30000000000001
 40
60.30000000000001
 40
60.30000000000001
 40
60.30000000000001
 40
61.30000000000001
 40
61.30000000000001
 40
61.30000000000001
 40
62.30000000000001
 40
62.30000000000001
 40
62.30000000000001
 40
63.30000000000001
 40
63.30000000000001
 40
63.30000000000001
 40
64.30000000000001
 40
64.30000000000001
 40
64.30000000000001
 40
65.30000000000001
 40
65.30000000000001
 40
65.30000000000001
 40
66.30000000000001
 40
66.30000000000001
 40
66.30000000000001
 40
67.30000000000001
 40
67.30000000000001
 40
67.30000000000001
 40
68.30000000000001
 40
68.30000000000001
 40
68.30000000000001
 40
68.30000000000001
 10
134.9395813888889
 20
68.05926472222222
 30
0.0
 10
128.9070813888889
 20
68.05926472222222
 30
0.0
 10
122.8745813888889
 20
68.05926472222222
 30
0.0
 10
116.8420813888889
 20
68.05926472222222
 30
0.0
 10
116.8420813888889
 20
68.71543138888889
 30
0.0
 10
116.9690813888889
 20
69.83373694444444
 30
0.0
 10
115.5156369444444
 20
70.1265425
 30
0.0
 10
113.0779425
 20
70.61690361111111
 30
0.0
 10
110.2274980555555
 20
70.94851472222221
 30
0.0
 10
109.9911369444444
 20
72.8887925
 30
0.0
 10
109.9170536111111
 20
73.50262583333333
 30
0.0
 10
111.3422758333333
 20
72.91701472222222
 30
0.0
 10
112.1324980555556
 20
74.32459805555554
 30
0.0
 10
112.1501369444444
 20
74.37751472222222
 30
0.0
 10
113.3531091666667
 20
74.4127925
 30
0.0
 10
114.6513313888889
 20
73.94007027777778
 30
0.0
 10
115.9495536111111
 20
73.46382027777777
 30
0.0
 10
116.6656925
 20
73.15337583333333
 30
0.0
 10
116.9867202777778
 20
73.03695916666666
 30
0.0
 10
117.2996341666667
 20
72.92160083333333
 30
0.0
 10
117.6121952777778
 20
72.80659527777777
 30
0.0
 10
117.9251091666666
 20
72.69123694444444
 30
0.0
 10
118.2662452777778
 20
73.63068416666667
 30
0.0
 10
118.6070286111111
 20
74.57048416666666
 30
0.0
 10
118.9481647222222
 20
75.50993138888889
 30
0.0
 10
118.6352508333333
 20
75.62528972222222
 30
0.0
 10
118.3226897222222
 20
75.74029527777778
 30
0.0
 10
118.0097758333333
 20
75.85565361111111
 30
0.0
 10
117.6887480555555
 20
75.97207027777777
 30
0.0
 10
116.9443869444444
 20
76.1907925
 30
0.0
 10
115.6461647222222
 20
76.66351472222222
 30
0.0
 10
114.3585258333333
 20
77.13270916666666
 30
0.0
 10
113.4624702777778
 20
77.92998694444444
 30
0.0
 10
113.4624702777778
 20
77.99348694444444
 30
0.0
 10
113.4871647222222
 20
78.06051472222221
 30
0.0
 10
113.9598869444444
 20
79.16118138888888
 30
0.0
 10
114.0551369444444
 20
79.45398694444444
 30
0.0
 10
114.4079147222222
 20
80.21598694444444
 30
0.0
 10
114.8241925
 20
80.9074313888889
 30
0.0
 10
115.1558036111111
 20
80.75926472222221
 30
0.0
 10
118.1438313888889
 20
79.43282027777778
 30
0.0
 10
124.8042758333333
 20
75.91209805555555
 30
0.0
 10
126.1201369444444
 20
74.9842925
 30
0.0
 10
127.4113036111111
 20
74.0776536111111
 30
0.0
 10
128.7871369444444
 20
72.59951472222222
 30
0.0
 10
129.5138591666667
 20
72.1585425
 30
0.0
 10
130.2405813888889
 20
71.71757027777777
 30
0.0
 10
134.4209980555555
 20
70.70862583333333
 30
0.0
 10
134.9395813888889
 20
70.25707027777777
 30
0.0
 10
136.4141925
 20
68.96237583333333
 30
0.0
 10
134.9395813888889
 20
68.05926472222222
 30
0.0
 10
134.9395813888889
 20
68.05926472222222
 30
0.0
  0
SPLINE
  5
B4
330
1F
100
AcDbEntity
  8
DEFAULT
 62
     1
100
AcDbSpline
210
0.0
220
0.0
230
1.0
 70
    11
 71
     3
 72
   296
 73
   292
 74
     0
 42
0.000000001
 43
0.0000000001
 40
1.0
 40
1.0
 40
1.0
 40
1.0
 40
2.0
 40
2.0
 40
2.0
 40
3.0
 40
3.0
 40
3.0
 40
5.829999999999998
 40
5.829999999999998
 40
5.829999999999998
 40
14.33
 40
14.33
 40
14.33
 40
17.16
 40
17.16
 40
17.16
 40
18.16
 40
18.16
 40
18.16
 40
19.16
 40
19.16
 40
19.16
 40
20.16
 40
20.16
 40
20.16
 40
21.16
 40
21.16
 40
21.16
 40
22.16
 40
22.16
 40
22.16
 40
23.16
 40
23.16
 40
23.16
 40
24.16
 40
24.16
 40
24.16
 40
34.08000000000001
 40
34.08000000000001
 40
34.08000000000001
 40
42.58000000000001
 40
42.58000000000001
 40
42.58000000000001
 40
52.50000000000003
 40
52.50000000000003
 40
52.50000000000003
 40
53.50000000000003
 40
53.50000000000003
 40
53.50000000000003
 40
54.50000000000003
 40
54.50000000000003
 40
54.50000000000003
 40
55.50000000000003
 40
55.50000000000003
 40
55.50000000000003
 40
124.9520280481427
 40
124.9520280481427
 40
124.9520280481427
 40
125.9520280481427
 40
125.9520280481427
 40
125.9520280481427
 40
126.9520280481427
 40
126.9520280481427
 40
126.9520280481427
 40
127.9520280481427
 40
127.9520280481427
 40
127.9520280481427
 40
130.7820280481427
 40
130.7820280481427
 40
130.7820280481427
 40
139.2820280481427
 40
139.2820280481427
 40
139.2820280481427
 40
142.1120280481427
 40
142.1120280481427
 40
142.1120280481427
 40
143.1120280481427
 40
143.1120280481427
 40
143.1120280481427
 40
144.1120280481427
 40
144.1120280481427
 40
144.1120280481427
 40
145.1120280481427
 40
145.1120280481427
 40
145.1120280481427
 40
146.1120280481427
 40
146.1120280481427
 40
146.1120280481427
 40
147.1120280481427
 40
147.1120280481427
 40
147.1120280481427
 40
148.1120280481427
 40
148.1120280481427
 40
148.1120280481427
 40
149.1120280481427
 40
149.1120280481427
 40
149.1120280481427
 40
150.1120280481427
 40
150.1120280481427
 40
150.1120280481427
 40
151.1120280481427
 40
151.1120280481427
 40
151.1120280481427
 40
152.1120280481427
 40
152.1120280481427
 40
152.1120280481427
 40
153.1120280481427
 40
153.1120280481427
 40
153.1120280481427
 40
154.1120280481427
 40
154.1120280481427
 40
154.1120280481427
 40
155.1120280481427
 40
155.1120280481427
 40
155.1120280481427
 40
156.1120280481427
 40
156.1120280481427
 40
156.1120280481427
 40
157.1120280481427
 40
157.1120280481427
 40
157.1120280481427
 40
158.1120280481427
 40
158.1120280481427
 40
158.1120280481427
 40
159.1120280481427
 40
159.1120280481427
 40
159.1120280481427
 40
160.1120280481427
 40
160.1120280481427
 40
160.1120280481427
 40
161.1120280481427
 40
161.1120280481427
 40
161.1120280481427
 40
162.1120280481427
 40
162.1120280481427
 40
162.1120280481427
 40
163.1120280481427
 40
163.1120280481427
 40
163.1120280481427
 40
164.1120280481427
 40
164.1120280481427
 40
164.1120280481427
 40
165.1120280481427
 40
165.1120280481427
 40
165.1120280481427
 40
166.1120280481427
 40
166.1120280481427
 40
166.1120280481427
 40
167.1120280481427
 40
167.1120280481427
 40
167.1120280481427
 40
168.1120280481427
 40
168.1120280481427
 40
168.1120280481427
 40
169.1120280481427
 40
169.1120280481427
 40
169.1120280481427
 40
170.1120280481427
 40
170.1120280481427
 40
170.1120280481427
 40
171.1120280481427
 40
171.1120280481427
 40
171.1120280481427
 40
172.1120280481427
 40
172.1120280481427
 40
172.1120280481427
 40
173.1120280481427
 40
173.1120280481427
 40
173.1120280481427
 40
174.1120280481427
 40
174.1120280481427
 40
174.1120280481427
 40
175.1120280481427
 40
175.1120280481427
 40
175.1120280481427
 40
176.1120280481427
 40
176.1120280481427
 40
176.1120280481427
 40
177.1120280481427
 40
177.1120280481427
 40
177.1120280481427
 40
178.1120280481427
 40
178.1120280481427
 40
178.1120280481427
 40
179.1120280481427
 40
179.1120280481427
 40
179.1120280481427
 40
180.1120280481427
 40
180.1120280481427
 40
180.1120280481427
 40
181.1120280481427
 40
181.1120280481427
 40
181.1120280481427
 40
182.1120280481427
 40
182.1120280481427
 40
182.1120280481427
 40
183.1120280481427
 40
183.1120280481427
 40
183.1120280481427
 40
184.1120280481427
 40
184.1120280481427
 40
184.1120280481427
 40
185.1120280481427
 40
185.1120280481427
 40
185.1120280481427
 40
186.1120280481427
 40
186.1120280481427
 40
186.1120280481427
 40
187.1120280481427
 40
187.1120280481427
 40
187.1120280481427
 40
188.1120280481427
 40
188.1120280481427
 40
188.1120280481427
 40
189.1120280481427
 40
189.1120280481427
 40
189.1120280481427
 40
190.1120280481427
 40
190.1120280481427
 40
190.1120280481427
 40
191.1120280481427
 40
191.1120280481427
 40
191.1120280481427
 40
192.1120280481427
 40
192.1120280481427
 40
192.1120280481427
 40
193.1120280481427
 40
193.1120280481427
 40
193.1120280481427
 40
194.1120280481427
 40
194.1120280481427
 40
194.1120280481427
 40
195.1120280481427
 40
195.1120280481427
 40
195.1120280481427
 40
196.1120280481427
 40
196.1120280481427
 40
196.1120280481427
 40
197.1120280481427
 40
197.1120280481427
 40
197.1120280481427
 40
198.1120280481427
 40
198.1120280481427
 40
198.1120280481427
 40
199.1120280481427
 40
199.1120280481427
 40
199.1120280481427
 40
200.1120280481427
 40
200.1120280481427
 40
200.1120280481427
 40
201.1120280481427
 40
201.1120280481427
 40
201.1120280481427
 40
202.1120280481427
 40
202.1120280481427
 40
202.1120280481427
 40
203.1120280481427
 40
203.1120280481427
 40
203.1120280481427
 40
204.1120280481427
 40
204.1120280481427
 40
204.1120280481427
 40
205.1120280481427
 40
205.1120280481427
 40
205.1120280481427
 40
206.1120280481427
 40
206.1120280481427
 40
206.1120280481427
 40
207.1120280481427
 40
207.1120280481427
 40
207.1120280481427
 40
208.1120280481427
 40
208.1120280481427
 40
208.1120280481427
 40
209.1120280481427
 40
209.1120280481427
 40
209.1120280481427
 40
210.1120280481427
 40
210.1120280481427
 40
210.1120280481427
 40
211.1120280481427
 40
211.1120280481427
 40
211.1120280481427
 40
212.1120280481427
 40
212.1120280481427
 40
212.1120280481427
 40
213.1120280481427
 40
213.1120280481427
 40
213.1120280481427
 40
214.1120280481427
 40
214.1120280481427
 40
214.1120280481427
 40
214.1120280481427
 10
75.33301333333333
 20
18.66723611111111
 30
0.0
 10
75.27656888888887
 20
18.66723611111111
 30
0.0
 10
74.83206888888888
 20
19.78554166666666
 30
0.0
 10
74.8285411111111
 20
21.16843055555555
 30
0.0
 10
74.8285411111111
 20
22.55131944444444
 30
0.0
 10
74.88145777777777
 20
23.32743055555556
 30
0.0
 10
74.88145777777777
 20
23.669625
 30
0.0
 10
74.88145777777777
 20
24.00241203703703
 30
0.0
 10
74.88145777777777
 20
24.33519907407407
 30
0.0
 10
74.88145777777777
 20
24.66798611111111
 30
0.0
 10
73.88192074074072
 20
24.66798611111111
 30
0.0
 10
72.88238370370368
 20
24.66798611111111
 30
0.0
 10
71.88284666666665
 20
24.66798611111111
 30
0.0
 10
71.88284666666665
 20
24.33519907407407
 30
0.0
 10
71.88284666666665
 20
24.00241203703703
 30
0.0
 10
71.88284666666665
 20
23.669625
 30
0.0
 10
71.88284666666665
 20
23.32743055555556
 30
0.0
 10
71.93223555555555
 20
22.55131944444444
 30
0.0
 10
71.93223555555555
 20
21.16843055555555
 30
0.0
 10
71.93223555555555
 20
19.78554166666666
 30
0.0
 10
71.46656888888887
 20
18.66723611111111
 30
0.0
 10
71.41717999999999
 20
18.66723611111111
 30
0.0
 10
70.54581888888887
 20
18.66723611111111
 30
0.0
 10
68.81015222222221
 20
19.034125
 30
0.0
 10
67.9387911111111
 20
19.90548611111111
 30
0.0
 10
62.12254388888888
 20
25.72526111111111
 30
0.0
 10
56.30664944444444
 20
31.54468333333333
 30
0.0
 10
50.49040222222221
 20
37.36445833333332
 30
0.0
 10
49.62256888888888
 20
38.23229166666666
 30
0.0
 10
47.9045411111111
 20
38.60270833333333
 30
0.0
 10
47.02612444444443
 20
38.60623611111111
 30
0.0
 10
46.97673555555555
 20
38.60623611111111
 30
0.0
 10
46.52165222222221
 20
39.38940277777778
 30
0.0
 10
46.52165222222221
 20
40.35601388888888
 30
0.0
 10
46.51812444444443
 20
41.32615277777778
 30
0.0
 10
46.56751333333332
 20
41.86590277777778
 30
0.0
 10
46.5710411111111
 20
42.10579166666666
 30
0.0
 10
46.5710411111111
 20
43.27231018518518
 30
0.0
 10
46.5710411111111
 20
44.4388287037037
 30
0.0
 10
46.5710411111111
 20
45.60534722222222
 30
0.0
 10
45.57150407407406
 20
45.60534722222221
 30
0.0
 10
44.57196703703702
 20
45.60534722222221
 30
0.0
 10
43.57242999999999
 20
45.60534722222222
 30
0.0
 10
43.57242999999999
 20
44.4388287037037
 30
0.0
 10
43.57242999999999
 20
43.27231018518518
 30
0.0
 10
43.57242999999999
 20
42.10579166666666
 30
0.0
 10
43.57242999999999
 20
41.86590277777778
 30
0.0
 10
43.6182911111111
 20
41.32615277777778
 30
0.0
 10
43.6182911111111
 20
40.35601388888888
 30
0.0
 10
43.61476333333333
 20
39.38940277777778
 30
0.0
 10
43.16673555555555
 20
38.60623611111111
 30
0.0
 10
43.1102911111111
 20
38.60623611111111
 30
0.0
 10
42.23892999999999
 20
38.60623611111111
 30
0.0
 10
40.37626333333333
 20
38.10529166666667
 30
0.0
 10
39.50490222222221
 20
37.23393055555555
 30
0.0
 10
33.72993
 20
31.45895833333333
 30
0.0
 10
27.95495777777777
 20
25.68398611111111
 30
0.0
 10
22.17998555555555
 20
19.90901388888889
 30
0.0
 10
21.31215222222222
 20
19.03765277777778
 30
0.0
 10
19.57648555555555
 20
18.66723611111111
 30
0.0
 10
18.70865222222222
 20
18.66723611111111
 30
0.0
 10
18.65220777777778
 20
18.66723611111111
 30
0.0
 10
18.20770777777777
 20
19.78554166666666
 30
0.0
 10
18.20770777777777
 20
21.16843055555555
 30
0.0
 10
18.20770777777777
 20
22.55131944444444
 30
0.0
 10
18.25709666666666
 20
23.32743055555556
 30
0.0
 10
18.25709666666666
 20
23.669625
 30
0.0
 10
18.25709666666666
 20
24.00241203703703
 30
0.0
 10
18.25709666666666
 20
24.33519907407407
 30
0.0
 10
18.25709666666666
 20
24.66798611111111
 30
0.0
 10
17.25755962962963
 20
24.66798611111111
 30
0.0
 10
16.25802259259259
 20
24.66798611111111
 30
0.0
 10
15.25848555555555
 20
24.66798611111111
 30
0.0
 10
15.25848555555555
 20
24.33519907407407
 30
0.0
 10
15.25848555555555
 20
24.00241203703703
 30
0.0
 10
15.25848555555555
 20
23.669625
 30
0.0
 10
15.25848555555555
 20
23.32743055555556
 30
0.0
 10
15.30787444444444
 20
22.55131944444444
 30
0.0
 10
15.30434666666666
 20
21.16843055555555
 30
0.0
 10
15.30434666666666
 20
19.78554166666666
 30
0.0
 10
14.85984666666666
 20
18.66723611111111
 30
0.0
 10
14.80340222222221
 20
18.66723611111111
 30
0.0
 10
13.9320411111111
 20
18.66723611111111
 30
0.0
 10
12.19990222222221
 20
19.03765277777778
 30
0.0
 10
11.3285411111111
 20
19.90901388888889
 30
0.0
 10
10.05501333333333
 20
21.18606944444444
 30
0.0
 10
10.04090222222221
 20
26.92929166666667
 30
0.0
 10
10.04090222222221
 20
29.81501388888888
 30
0.0
 10
9.991513333333328
 20
30.85923611111111
 30
0.0
 10
11.27562444444443
 20
34.64454166666666
 30
0.0
 10
12.03056888888888
 20
35.22309722222222
 30
0.0
 10
12.07642999999999
 20
35.25484722222222
 30
0.0
 10
12.95837444444444
 20
35.26543055555555
 30
0.0
 10
13.79798555555555
 20
34.78565277777777
 30
0.0
 10
14.63759666666666
 20
34.30234722222222
 30
0.0
 10
15.08562444444444
 20
33.988375
 30
0.0
 10
15.29023555555555
 20
33.86843055555555
 30
0.0
 10
16.30164944444444
 20
33.28740555555555
 30
0.0
 10
17.31271055555554
 20
32.70673333333333
 30
0.0
 10
18.32412444444444
 20
32.12570833333333
 30
0.0
 10
18.82259944444444
 20
32.99248333333333
 30
0.0
 10
19.32142722222222
 20
33.85890555555556
 30
0.0
 10
19.81990222222221
 20
34.72568055555556
 30
0.0
 10
18.80848833333333
 20
35.30670555555555
 30
0.0
 10
17.79742722222222
 20
35.88737777777778
 30
0.0
 10
16.78601333333333
 20
36.46840277777778
 30
0.0
 10
16.57787444444443
 20
36.58834722222222
 30
0.0
 10
16.08398555555555
 20
36.81765277777778
 30
0.0
 10
15.24084666666666
 20
37.29743055555555
 30
0.0
 10
14.40476333333332
 20
37.78073611111111
 30
0.0
 10
13.96731888888889
 20
38.55331944444444
 30
0.0
 10
13.97790222222222
 20
38.60623611111111
 30
0.0
 10
14.18956888888889
 20
39.62929166666667
 30
0.0
 10
16.41559666666666
 20
43.05829166666666
 30
0.0
 10
17.29401333333333
 20
43.42518055555555
 30
0.0
 10
17.34692999999999
 20
43.44634722222222
 30
0.0
 10
18.20417999999999
 20
43.227625
 30
0.0
 10
18.88856888888888
 20
42.54323611111111
 30
0.0
 10
19.57295777777777
 20
41.85884722222222
 30
0.0
 10
19.92220777777777
 20
41.43904166666666
 30
0.0
 10
20.0915411111111
 20
41.26970833333333
 30
0.0
 10
20.9170411111111
 20
40.44667777777777
 30
0.0
 10
21.74254111111111
 20
39.62329444444444
 30
0.0
 10
22.56804111111111
 20
38.80026388888889
 30
0.0
 10
23.27465499999999
 20
39.50687777777777
 30
0.0
 10
23.98162166666667
 20
40.21384444444444
 30
0.0
 10
24.68823555555555
 20
40.92045833333333
 30
0.0
 10
23.86273555555555
 20
41.74489999999999
 30
0.0
 10
23.03723555555554
 20
42.56898888888889
 30
0.0
 10
22.21173555555555
 20
43.39343055555555
 30
0.0
 10
22.04240222222221
 20
43.56276388888888
 30
0.0
 10
21.62259666666666
 20
43.91201388888889
 30
0.0
 10
20.93820777777777
 20
44.59640277777777
 30
0.0
 10
20.25381888888888
 20
45.27726388888888
 30
0.0
 10
20.03156888888888
 20
46.13804166666666
 30
0.0
 10
20.05273555555555
 20
46.18743055555556
 30
0.0
 10
20.52545777777777
 20
47.11876388888889
 30
0.0
 10
23.62284666666666
 20
49.90218055555555
 30
0.0
 10
24.56123555555555
 20
50.03270833333332
 30
0.0
 10
24.62473555555555
 20
50.03270833333332
 30
0.0
 10
25.3937911111111
 20
49.59879166666666
 30
0.0
 10
25.87356888888889
 20
48.76976388888889
 30
0.0
 10
26.35687444444443
 20
47.93015277777778
 30
0.0
 10
26.58617999999999
 20
47.43626388888889
 30
0.0
 10
26.70612444444444
 20
47.228125
 30
0.0
 10
27.29067722222222
 20
46.21918055555555
 30
0.0
 10
27.87487722222222
 20
45.21023611111111
 30
0.0
 10
28.45942999999999
 20
44.20129166666666
 30
0.0
 10
29.32479388888888
 20
44.70117777777777
 30
0.0
 10
30.19051055555555
 20
45.2007111111111
 30
0.0
 10
31.05587444444443
 20
45.70059722222221
 30
0.0
 10
30.47026333333332
 20
46.71059999999999
 30
0.0
 10
29.88465222222221
 20
47.72095555555555
 30
0.0
 10
29.2990411111111
 20
48.73095833333333
 30
0.0
 10
29.17909666666666
 20
48.93909722222222
 30
0.0
 10
28.86512444444444
 20
49.38359722222221
 30
0.0
 10
28.38181888888888
 20
50.21968055555555
 30
0.0
 10
27.89851333333332
 20
51.05929166666666
 30
0.0
 10
27.90556888888888
 20
51.94829166666666
 30
0.0
 10
27.94437444444443
 20
51.98709722222222
 30
0.0
 10
28.64640222222221
 20
52.76320833333333
 30
0.0
 10
32.47756888888888
 20
54.60470833333333
 30
0.0
 10
33.41948555555555
 20
54.47770833333333
 30
0.0
 10
33.47240222222221
 20
54.47065277777777
 30
0.0
 10
34.10740222222221
 20
53.85329166666666
 30
0.0
 10
34.35434666666666
 20
52.91843055555555
 30
0.0
 10
34.60834666666666
 20
51.98356944444443
 30
0.0
 10
34.70006888888888
 20
51.44381944444444
 30
0.0
 10
34.76356888888888
 20
51.21451388888889
 30
0.0
 10
35.06589944444443
 20
50.08809444444444
 30
0.0
 10
35.36787722222221
 20
48.96132222222222
 30
0.0
 10
35.67020777777777
 20
47.83490277777777
 30
0.0
 10
36.63576055555555
 20
48.09348888888888
 30
0.0
 10
37.60096055555555
 20
48.35242777777778
 30
0.0
 10
38.56651333333333
 20
48.61101388888888
 30
0.0
 10
38.26418277777777
 20
49.73743333333333
 30
0.0
 10
37.96220499999999
 20
50.86420555555555
 30
0.0
 10
37.65987444444443
 20
51.99062499999999
 30
0.0
 10
37.59637444444444
 20
52.21993055555555
 30
0.0
 10
37.40940222222221
 20
52.7349861111111
 30
0.0
 10
37.15892999999999
 20
53.66984722222222
 30
0.0
 10
36.90845777777777
 20
54.60470833333333
 30
0.0
 10
37.14834666666666
 20
55.45843055555555
 30
0.0
 10
37.19067999999999
 20
55.49018055555555
 30
0.0
 10
37.68809666666666
 20
55.86765277777778
 30
0.0
 10
40.71493
 20
56.57320833333333
 30
0.0
 10
45.07173555555555
 20
56.57320833333333
 30
0.0
 10
49.42501333333333
 20
56.57320833333333
 30
0.0
 10
52.45184666666665
 20
55.86765277777778
 30
0.0
 10
52.94926333333333
 20
55.49018055555555
 30
0.0
 10
52.99159666666666
 20
55.45843055555555
 30
0.0
 10
53.23148555555554
 20
54.60470833333333
 30
0.0
 10
52.98101333333332
 20
53.66984722222222
 30
0.0
 10
52.72701333333333
 20
52.7349861111111
 30
0.0
 10
52.54356888888888
 20
52.21993055555555
 30
0.0
 10
52.48006888888888
 20
51.99062499999999
 30
0.0
 10
52.17773833333332
 20
50.86420555555555
 30
0.0
 10
51.87576055555554
 20
49.73743333333333
 30
0.0
 10
51.57342999999999
 20
48.61101388888888
 30
0.0
 10
52.53898277777777
 20
48.35242777777778
 30
0.0
 10
53.50418277777776
 20
48.09348888888888
 30
0.0
 10
54.46973555555555
 20
47.83490277777777
 30
0.0
 10
54.77206611111109
 20
48.96132222222222
 30
0.0
 10
55.07404388888888
 20
50.08809444444444
 30
0.0
 10
55.37637444444444
 20
51.21451388888889
 30
0.0
 10
55.43987444444444
 20
51.44381944444444
 30
0.0
 10
55.53159666666666
 20
51.98356944444443
 30
0.0
 10
55.78206888888887
 20
52.91843055555555
 30
0.0
 10
56.0325411111111
 20
53.85329166666666
 30
0.0
 10
56.66401333333332
 20
54.47065277777777
 30
0.0
 10
56.72045777777777
 20
54.47770833333333
 30
0.0
 10
57.66237444444443
 20
54.60470833333333
 30
0.0
 10
61.49706888888888
 20
52.76320833333333
 30
0.0
 10
62.19556888888888
 20
51.98709722222222
 30
0.0
 10
62.23437444444443
 20
51.94829166666666
 30
0.0
 10
62.24142999999999
 20
51.05929166666666
 30
0.0
 10
61.75106888888888
 20
50.21968055555555
 30
0.0
 10
61.2712911111111
 20
49.38359722222221
 30
0.0
 10
60.95731888888888
 20
48.93909722222222
 30
0.0
 10
60.83737444444444
 20
48.73095833333333
 30
0.0
 10
60.25423277777777
 20
47.72095555555555
 30
0.0
 10
59.67073833333333
 20
46.71059999999999
 30
0.0
 10
59.08759666666666
 20
45.70059722222221
 30
0.0
 10
59.95190222222222
 20
45.2007111111111
 30
0.0
 10
60.81620777777776
 20
44.70117777777777
 30
0.0
 10
61.68051333333333
 20
44.20129166666666
 30
0.0
 10
62.26365499999999
 20
45.21023611111111
 30
0.0
 10
62.84714944444443
 20
46.21918055555555
 30
0.0
 10
63.4302911111111
 20
47.228125
 30
0.0
 10
63.55376333333333
 20
47.43626388888889
 30
0.0
 10
63.78306888888888
 20
47.93015277777778
 30
0.0
 10
64.26637444444444
 20
48.76976388888889
 30
0.0
 10
64.74967999999998
 20
49.59879166666666
 30
0.0
 10
65.51167999999998
 20
50.03270833333332
 30
0.0
 10
65.57517999999999
 20
50.03270833333332
 30
0.0
 10
66.51356888888888
 20
49.90218055555555
 30
0.0
 10
69.61448555555555
 20
47.11876388888889
 30
0.0
 10
70.08720777777776
 20
46.18743055555556
 30
0.0
 10
70.10837444444444
 20
46.13804166666666
 30
0.0
 10
69.88612444444443
 20
45.27726388888888
 30
0.0
 10
69.20173555555554
 20
44.59640277777777
 30
0.0
 10
68.51381888888888
 20
43.91201388888889
 30
0.0
 10
68.0975411111111
 20
43.56276388888888
 30
0.0
 10
67.92468
 20
43.39343055555555
 30
0.0
 10
67.10023833333332
 20
42.56898888888889
 30
0.0
 10
66.27614944444443
 20
41.74489999999999
 30
0.0
 10
65.45170777777777
 20
40.92045833333333
 30
0.0
 10
66.15726333333332
 20
40.21384444444444
 30
0.0
 10
66.86281888888888
 20
39.50687777777777
 30
0.0
 10
67.56837444444443
 20
38.80026388888889
 30
0.0
 10
68.39493277777777
 20
39.62329444444444
 30
0.0
 10
69.22184388888887
 20
40.44667777777777
 30
0.0
 10
70.04840222222221
 20
41.26970833333333
 30
0.0
 10
70.21773555555555
 20
41.43904166666666
 30
0.0
 10
70.56698555555555
 20
41.85884722222222
 30
0.0
 10
71.24784666666665
 20
42.54323611111111
 30
0.0
 10
71.93576333333333
 20
43.227625
 30
0.0
 10
72.79301333333332
 20
43.44634722222222
 30
0.0
 10
72.84592999999998
 20
43.42518055555555
 30
0.0
 10
73.7172911111111
 20
43.05829166666666
 30
0.0
 10
75.95037444444444
 20
39.62929166666667
 30
0.0
 10
76.15851333333332
 20
38.60623611111111
 30
0.0
 10
76.17262444444444
 20
38.55331944444444
 30
0.0
 10
75.73517999999999
 20
37.78073611111111
 30
0.0
 10
74.8920411111111
 20
37.29743055555555
 30
0.0
 10
74.05595777777776
 20
36.81765277777778
 30
0.0
 10
73.56206888888887
 20
36.58834722222222
 30
0.0
 10
73.35392999999998
 20
36.46840277777778
 30
0.0
 10
72.3425161111111
 20
35.88737777777778
 30
0.0
 10
71.33145499999999
 20
35.30670555555555
 30
0.0
 10
70.3200411111111
 20
34.72568055555556
 30
0.0
 10
70.8185161111111
 20
33.85890555555556
 30
0.0
 10
71.31734388888887
 20
32.99248333333333
 30
0.0
 10
71.81581888888888
 20
32.12570833333333
 30
0.0
 10
72.82723277777777
 20
32.70673333333333
 30
0.0
 10
73.83829388888888
 20
33.28740555555555
 30
0.0
 10
74.84970777777777
 20
33.86843055555555
 30
0.0
 10
75.05784666666665
 20
33.988375
 30
0.0
 10
75.50234666666665
 20
34.30234722222222
 30
0.0
 10
76.34195777777776
 20
34.78565277777777
 30
0.0
 10
77.18156888888888
 20
35.26543055555555
 30
0.0
 10
78.06351333333332
 20
35.25484722222222
 30
0.0
 10
78.10937444444444
 20
35.22309722222222
 30
0.0
 10
78.8607911111111
 20
34.64454166666666
 30
0.0
 10
80.15195777777777
 20
30.85923611111111
 30
0.0
 10
80.09551333333332
 20
29.81501388888888
 30
0.0
 10
80.09551333333332
 20
27.01748611111111
 30
0.0
 10
79.96851333333332
 20
21.40126388888889
 30
0.0
 10
78.81140222222221
 20
19.90548611111111
 30
0.0
 10
77.94356888888888
 20
19.04118055555556
 30
0.0
 10
76.2079022222222
 20
18.67076388888889
 30
0.0
 10
75.33301333333333
 20
18.66723611111111
 30
0.0
  0
SPLINE
  5
B5
330
1F
100
AcDbEntity
  8
DEFAULT
 62
     1
100
AcDbSpline
210
0.0
220
0.0
230
1.0
 70
    11
 71
     3
 72
   314
 73
   310
 74
     0
 42
0.000000001
 43
0.0000000001
 40
1.0
 40
1.0
 40
1.0
 40
1.0
 40
2.0
 40
2.0
 40
2.0
 40
3.0
 40
3.0
 40
3.0
 40
4.0
 40
4.0
 40
4.0
 40
5.0
 40
5.0
 40
5.0
 40
6.0
 40
6.0
 40
6.0
 40
7.0
 40
7.0
 40
7.0
 40
8.0
 40
8.0
 40
8.0
 40
9.0
 40
9.0
 40
9.0
 40
18.91999999999996
 40
18.91999999999996
 40
18.91999999999996
 40
27.41999999999997
 40
27.41999999999997
 40
27.41999999999997
 40
37.33999999999993
 40
37.33999999999993
 40
37.33999999999993
 40
38.33999999999993
 40
38.33999999999993
 40
38.33999999999993
 40
39.33999999999993
 40
39.33999999999993
 40
39.33999999999993
 40
40.33999999999993
 40
40.33999999999993
 40
40.33999999999993
 40
41.33999999999993
 40
41.33999999999993
 40
41.33999999999993
 40
42.33999999999993
 40
42.33999999999993
 40
42.33999999999993
 40
43.33999999999993
 40
43.33999999999993
 40
43.33999999999993
 40
44.33999999999993
 40
44.33999999999993
 40
44.33999999999993
 40
45.33999999999993
 40
45.33999999999993
 40
45.33999999999993
 40
46.33999999999993
 40
46.33999999999993
 40
46.33999999999993
 40
47.33999999999993
 40
47.33999999999993
 40
47.33999999999993
 40
48.33999999999993
 40
48.33999999999993
 40
48.33999999999993
 40
49.33999999999993
 40
49.33999999999993
 40
49.33999999999993
 40
50.33999999999993
 40
50.33999999999993
 40
50.33999999999993
 40
51.33999999999993
 40
51.33999999999993
 40
51.33999999999993
 40
52.33999999999993
 40
52.33999999999993
 40
52.33999999999993
 40
53.33999999999993
 40
53.33999999999993
 40
53.33999999999993
 40
54.33999999999993
 40
54.33999999999993
 40
54.33999999999993
 40
55.33999999999993
 40
55.33999999999993
 40
55.33999999999993
 40
56.33999999999993
 40
56.33999999999993
 40
56.33999999999993
 40
57.33999999999993
 40
57.33999999999993
 40
57.33999999999993
 40
58.33999999999993
 40
58.33999999999993
 40
58.33999999999993
 40
59.33999999999993
 40
59.33999999999993
 40
59.33999999999993
 40
60.33999999999993
 40
60.33999999999993
 40
60.33999999999993
 40
61.33999999999993
 40
61.33999999999993
 40
61.33999999999993
 40
62.33999999999993
 40
62.33999999999993
 40
62.33999999999993
 40
63.33999999999993
 40
63.33999999999993
 40
63.33999999999993
 40
64.33999999999993
 40
64.33999999999993
 40
64.33999999999993
 40
65.33999999999993
 40
65.33999999999993
 40
65.33999999999993
 40
66.33999999999993
 40
66.33999999999993
 40
66.33999999999993
 40
67.33999999999993
 40
67.33999999999993
 40
67.33999999999993
 40
68.33999999999993
 40
68.33999999999993
 40
68.33999999999993
 40
69.33999999999993
 40
69.33999999999993
 40
69.33999999999993
 40
70.33999999999993
 40
70.33999999999993
 40
70.33999999999993
 40
71.33999999999993
 40
71.33999999999993
 40
71.33999999999993
 40
72.33999999999993
 40
72.33999999999993
 40
72.33999999999993
 40
73.33999999999993
 40
73.33999999999993
 40
73.33999999999993
 40
74.33999999999993
 40
74.33999999999993
 40
74.33999999999993
 40
75.33999999999993
 40
75.33999999999993
 40
75.33999999999993
 40
76.33999999999993
 40
76.33999999999993
 40
76.33999999999993
 40
77.33999999999993
 40
77.33999999999993
 40
77.33999999999993
 40
78.33999999999993
 40
78.33999999999993
 40
78.33999999999993
 40
79.33999999999993
 40
79.33999999999993
 40
79.33999999999993
 40
80.33999999999993
 40
80.33999999999993
 40
80.33999999999993
 40
81.33999999999993
 40
81.33999999999993
 40
81.33999999999993
 40
82.33999999999993
 40
82.33999999999993
 40
82.33999999999993
 40
83.33999999999993
 40
83.33999999999993
 40
83.33999999999993
 40
84.33999999999993
 40
84.33999999999993
 40
84.33999999999993
 40
85.33999999999993
 40
85.33999999999993
 40
85.33999999999993
 40
86.33999999999993
 40
86.33999999999993
 40
86.33999999999993
 40
87.33999999999993
 40
87.33999999999993
 40
87.33999999999993
 40
88.33999999999993
 40
88.33999999999993
 40
88.33999999999993
 40
89.33999999999993
 40
89.33999999999993
 40
89.33999999999993
 40
90.33999999999993
 40
90.33999999999993
 40
90.33999999999993
 40
91.33999999999993
 40
91.33999999999993
 40
91.33999999999993
 40
92.33999999999993
 40
92.33999999999993
 40
92.33999999999993
 40
93.33999999999993
 40
93.33999999999993
 40
93.33999999999993
 40
94.33999999999993
 40
94.33999999999993
 40
94.33999999999993
 40
95.33999999999993
 40
95.33999999999993
 40
95.33999999999993
 40
96.33999999999993
 40
96.33999999999993
 40
96.33999999999993
 40
97.33999999999993
 40
97.33999999999993
 40
97.33999999999993
 40
98.33999999999993
 40
98.33999999999993
 40
98.33999999999993
 40
99.33999999999993
 40
99.33999999999993
 40
99.33999999999993
 40
100.3399999999999
 40
100.3399999999999
 40
100.3399999999999
 40
101.3399999999999
 40
101.3399999999999
 40
101.3399999999999
 40
102.3399999999999
 40
102.3399999999999
 40
102.3399999999999
 40
103.3399999999999
 40
103.3399999999999
 40
103.3399999999999
 40
104.3399999999999
 40
104.3399999999999
 40
104.3399999999999
 40
105.3399999999999
 40
105.3399999999999
 40
105.3399999999999
 40
106.3399999999999
 40
106.3399999999999
 40
106.3399999999999
 40
107.3399999999999
 40
107.3399999999999
 40
107.3399999999999
 40
108.3399999999999
 40
108.3399999999999
 40
108.3399999999999
 40
109.3399999999999
 40
109.3399999999999
 40
109.3399999999999
 40
110.3399999999999
 40
110.3399999999999
 40
110.3399999999999
 40
111.3399999999999
 40
111.3399999999999
 40
111.3399999999999
 40
112.3399999999999
 40
112.3399999999999
 40
112.3399999999999
 40
113.3399999999999
 40
113.3399999999999
 40
113.3399999999999
 40
114.3399999999999
 40
114.3399999999999
 40
114.3399999999999
 40
115.3399999999999
 40
115.3399999999999
 40
115.3399999999999
 40
116.3399999999999
 40
116.3399999999999
 40
116.3399999999999
 40
117.3399999999999
 40
117.3399999999999
 40
117.3399999999999
 40
118.3399999999999
 40
118.3399999999999
 40
118.3399999999999
 40
119.3399999999999
 40
119.3399999999999
 40
119.3399999999999
 40
120.3399999999999
 40
120.3399999999999
 40
120.3399999999999
 40
121.3399999999999
 40
121.3399999999999
 40
121.3399999999999
 40
122.3399999999999
 40
122.3399999999999
 40
122.3399999999999
 40
123.3399999999999
 40
123.3399999999999
 40
123.3399999999999
 40
124.3399999999999
 40
124.3399999999999
 40
124.3399999999999
 40
125.3399999999999
 40
125.3399999999999
 40
125.3399999999999
 40
126.3399999999999
 40
126.3399999999999
 40
126.3399999999999
 40
127.3399999999999
 40
127.3399999999999
 40
127.3399999999999
 40
128.3399999999999
 40
128.3399999999999
 40
128.3399999999999
 40
129.3399999999999
 40
129.3399999999999
 40
129.3399999999999
 40
129.3399999999999
 10
81.47201694444443
 20
69.81359333333333
 30
0.0
 10
80.80632527777777
 20
69.14790166666667
 30
0.0
 10
80.14098638888888
 20
68.48256277777777
 30
0.0
 10
79.47529472222222
 20
67.81687111111111
 30
0.0
 10
79.47529472222222
 20
67.19598222222223
 30
0.0
 10
76.86826694444443
 20
67.81334333333334
 30
0.0
 10
75.99690583333332
 20
67.81334333333334
 30
0.0
 10
74.71279472222221
 20
68.16612111111111
 30
0.0
 10
73.4463225
 20
68.16964888888889
 30
0.0
 10
72.07754472222221
 20
67.81687111111111
 30
0.0
 10
71.20971138888888
 20
67.81687111111111
 30
0.0
 10
68.6026836111111
 20
67.19951
 30
0.0
 10
68.6026836111111
 20
67.81687111111111
 30
0.0
 10
62.56912527777777
 20
73.85042944444444
 30
0.0
 10
56.53521416666666
 20
79.88434055555555
 30
0.0
 10
50.50165583333332
 20
85.91789888888889
 30
0.0
 10
50.50165583333332
 20
86.53878777777777
 30
0.0
 10
47.89815583333332
 20
85.92142666666666
 30
0.0
 10
47.02679472222222
 20
85.92142666666666
 30
0.0
 10
46.97387805555555
 20
85.92142666666666
 30
0.0
 10
46.51526694444444
 20
86.70459333333334
 30
0.0
 10
46.51526694444444
 20
87.67120444444444
 30
0.0
 10
46.51526694444444
 20
88.63781555555555
 30
0.0
 10
46.56465583333333
 20
89.18109333333334
 30
0.0
 10
46.56465583333333
 20
89.42098222222222
 30
0.0
 10
46.56465583333333
 20
90.58750074074074
 30
0.0
 10
46.56465583333333
 20
91.75401925925924
 30
0.0
 10
46.56465583333333
 20
92.92053777777777
 30
0.0
 10
45.5651187962963
 20
92.92053777777777
 30
0.0
 10
44.56558175925926
 20
92.92053777777777
 30
0.0
 10
43.56604472222222
 20
92.92053777777777
 30
0.0
 10
43.56604472222222
 20
91.75401925925927
 30
0.0
 10
43.56604472222222
 20
90.58750074074074
 30
0.0
 10
43.56604472222222
 20
89.42098222222222
 30
0.0
 10
43.56604472222222
 20
89.18109333333334
 30
0.0
 10
43.61543361111111
 20
88.63781555555555
 30
0.0
 10
43.61543361111111
 20
87.67120444444444
 30
0.0
 10
43.61543361111111
 20
86.70459333333334
 30
0.0
 10
43.16387805555555
 20
85.92142666666666
 30
0.0
 10
43.10743361111111
 20
85.92142666666666
 30
0.0
 10
42.2360725
 20
85.92142666666666
 30
0.0
 10
39.63257249999999
 20
86.53878777777777
 30
0.0
 10
39.63257249999999
 20
85.91789888888889
 30
0.0
 10
38.96582249999999
 20
85.25220722222222
 30
0.0
 10
38.29907249999999
 20
84.58686833333333
 30
0.0
 10
37.6323225
 20
83.92117666666667
 30
0.0
 10
37.59704472222221
 20
83.88589888888889
 30
0.0
 10
37.56176694444444
 20
83.85062111111111
 30
0.0
 10
37.52648916666666
 20
83.81534333333333
 30
0.0
 10
32.19495861111111
 20
78.48240166666666
 30
0.0
 10
26.86307527777777
 20
73.14981277777777
 30
0.0
 10
21.53154472222222
 20
67.81687111111111
 30
0.0
 10
21.53154472222222
 20
67.19951
 30
0.0
 10
18.9315725
 20
67.81687111111111
 30
0.0
 10
18.06021138888889
 20
67.81687111111111
 30
0.0
 10
16.69143361111111
 20
68.16964888888889
 30
0.0
 10
15.42143361111111
 20
68.16964888888889
 30
0.0
 10
14.1373225
 20
67.81687111111111
 30
0.0
 10
13.26596138888889
 20
67.81687111111111
 30
0.0
 10
10.66246138888889
 20
67.19951
 30
0.0
 10
10.66246138888889
 20
67.81687111111111
 30
0.0
 10
9.99676972222222
 20
68.4836211111111
 30
0.0
 10
9.331430833333334
 20
69.15037111111111
 30
0.0
 10
8.665739166666667
 20
69.8171211111111
 30
0.0
 10
7.826128055555557
 20
70.65320444444444
 30
0.0
 10
8.55285027777778
 20
72.62170444444445
 30
0.0
 10
9.02910027777778
 20
73.35901
 30
0.0
 10
9.06085027777778
 20
73.4048711111111
 30
0.0
 10
9.914572499999997
 20
73.64123222222221
 30
0.0
 10
10.84943361111111
 20
73.39076
 30
0.0
 10
11.78429472222222
 20
73.14028777777777
 30
0.0
 10
12.2958225
 20
72.94978777777779
 30
0.0
 10
12.52512805555556
 20
72.88981555555556
 30
0.0
 10
13.65295861111111
 20
72.587485
 30
0.0
 10
14.78043638888889
 20
72.28550722222222
 30
0.0
 10
15.90826694444444
 20
71.98317666666667
 30
0.0
 10
16.16685305555556
 20
72.94872944444444
 30
0.0
 10
16.42579194444444
 20
73.91392944444443
 30
0.0
 10
16.68437805555555
 20
74.87948222222221
 30
0.0
 10
15.55795861111111
 20
75.18181277777778
 30
0.0
 10
14.43118638888888
 20
75.48379055555556
 30
0.0
 10
13.30476694444445
 20
75.78612111111111
 30
0.0
 10
13.07193361111111
 20
75.84609333333333
 30
0.0
 10
12.53218361111111
 20
75.94134333333334
 30
0.0
 10
11.5973225
 20
76.19181555555556
 30
0.0
 10
10.66246138888889
 20
76.44228777777778
 30
0.0
 10
10.0415725
 20
77.07728777777778
 30
0.0
 10
10.03804472222222
 20
77.13020444444444
 30
0.0
 10
9.98512805555556
 20
78.17089888888889
 30
0.0
 10
11.27276694444444
 20
81.95620444444444
 30
0.0
 10
12.02771138888889
 20
82.53475999999999
 30
0.0
 10
12.07004472222222
 20
82.57003777777777
 30
0.0
 10
12.95551694444444
 20
82.58062111111111
 30
0.0
 10
13.79512805555555
 20
82.09731555555555
 30
0.0
 10
14.63473916666666
 20
81.61401000000001
 30
0.0
 10
15.07923916666667
 20
81.30356555555555
 30
0.0
 10
15.28737805555555
 20
81.18362111111111
 30
0.0
 10
16.29879194444445
 20
80.60153777777778
 30
0.0
 10
17.30985305555555
 20
80.01945444444445
 30
0.0
 10
18.32126694444445
 20
79.4373711111111
 30
0.0
 10
18.81974194444444
 20
80.30414611111111
 30
0.0
 10
19.31856972222222
 20
81.17056833333334
 30
0.0
 10
19.81704472222222
 20
82.03734333333334
 30
0.0
 10
18.80563083333333
 20
82.61942666666666
 30
0.0
 10
17.79456972222222
 20
83.20151
 30
0.0
 10
16.78315583333333
 20
83.78359333333333
 30
0.0
 10
16.57501694444444
 20
83.90001
 30
0.0
 10
16.08112805555555
 20
84.12931555555555
 30
0.0
 10
15.24151694444444
 20
84.61262111111111
 30
0.0
 10
14.40190583333333
 20
85.09592666666666
 30
0.0
 10
13.96093361111111
 20
85.86851
 30
0.0
 10
13.97504472222222
 20
85.92142666666666
 30
0.0
 10
14.18318361111111
 20
86.94448222222222
 30
0.0
 10
16.41626694444444
 20
90.36995444444445
 30
0.0
 10
17.29115583333333
 20
90.73684333333334
 30
0.0
 10
17.3440725
 20
90.76153777777779
 30
0.0
 10
18.2013225
 20
90.53928777777776
 30
0.0
 10
18.88571138888889
 20
89.85489888888888
 30
0.0
 10
19.57010027777778
 20
89.17403777777777
 30
0.0
 10
19.91935027777778
 20
88.75423222222221
 30
0.0
 10
20.08868361111111
 20
88.58489888888889
 30
0.0
 10
20.91418361111111
 20
87.76045722222221
 30
0.0
 10
21.73968361111111
 20
86.93636833333333
 30
0.0
 10
22.56518361111111
 20
86.11192666666668
 30
0.0
 10
23.27073916666667
 20
86.81995166666667
 30
0.0
 10
23.97629472222222
 20
87.52762388888888
 30
0.0
 10
24.68185027777778
 20
88.23564888888889
 30
0.0
 10
23.8574086111111
 20
89.05867944444444
 30
0.0
 10
23.03331972222222
 20
89.88206277777778
 30
0.0
 10
22.20887805555555
 20
90.70509333333332
 30
0.0
 10
22.03954472222222
 20
90.87442666666666
 30
0.0
 10
21.61973916666667
 20
91.22367666666668
 30
0.0
 10
20.93535027777778
 20
91.90806555555557
 30
0.0
 10
20.25096138888889
 20
92.59245444444444
 30
0.0
 10
20.02518361111111
 20
93.45323222222223
 30
0.0
 10
20.04987805555555
 20
93.49909333333333
 30
0.0
 10
20.52260027777777
 20
94.43395444444444
 30
0.0
 10
23.61998916666666
 20
97.21737111111112
 30
0.0
 10
24.55837805555555
 20
97.34789888888888
 30
0.0
 10
24.62540583333334
 20
97.34789888888888
 30
0.0
 10
25.38740583333333
 20
96.91398222222223
 30
0.0
 10
25.87071138888888
 20
96.08495444444443
 30
0.0
 10
26.35401694444444
 20
95.24534333333332
 30
0.0
 10
26.58332249999999
 20
94.75145444444445
 30
0.0
 10
26.70326694444444
 20
94.54331555555555
 30
0.0
 10
27.28640861111111
 20
93.53331277777777
 30
0.0
 10
27.86990305555555
 20
92.52295722222223
 30
0.0
 10
28.45304472222222
 20
91.51295444444445
 30
0.0
 10
29.31840861111111
 20
92.01389888888887
 30
0.0
 10
30.18412527777777
 20
92.51484333333333
 30
0.0
 10
31.04948916666666
 20
93.01578777777777
 30
0.0
 10
30.4663475
 20
94.02473222222221
 30
0.0
 10
29.88285305555555
 20
95.03367666666665
 30
0.0
 10
29.29971138888889
 20
96.0426211111111
 30
0.0
 10
29.17976694444445
 20
96.25076
 30
0.0
 10
28.86579472222222
 20
96.69878777777778
 30
0.0
 10
28.38248916666666
 20
97.53487111111112
 30
0.0
 10
27.89565583333333
 20
98.37448222222223
 30
0.0
 10
27.90271138888889
 20
99.26348222222221
 30
0.0
 10
27.93798916666666
 20
99.30228777777778
 30
0.0
 10
28.64001694444444
 20
100.0748711111111
 30
0.0
 10
32.47471138888889
 20
101.9198988888889
 30
0.0
 10
33.41662805555555
 20
101.7928988888889
 30
0.0
 10
33.46954472222222
 20
101.7858433333333
 30
0.0
 10
34.10454472222222
 20
101.1649544444444
 30
0.0
 10
34.35148916666667
 20
100.2300933333333
 30
0.0
 10
34.60548916666666
 20
99.29523222222223
 30
0.0
 10
34.69721138888888
 20
98.75900999999999
 30
0.0
 10
34.76071138888889
 20
98.52617666666667
 30
0.0
 10
35.06304194444444
 20
97.3997572222222
 30
0.0
 10
35.36501972222221
 20
96.272985
 30
0.0
 10
35.66735027777777
 20
95.14656555555557
 30
0.0
 10
36.63290305555555
 20
95.40656277777778
 30
0.0
 10
37.59810305555555
 20
95.66620722222221
 30
0.0
 10
38.56365583333333
 20
95.92620444444444
 30
0.0
 10
38.26132527777778
 20
97.05156555555556
 30
0.0
 10
37.95934749999999
 20
98.17692666666666
 30
0.0
 10
37.65701694444444
 20
99.30228777777778
 30
0.0
 10
37.59351694444445
 20
99.5351211111111
 30
0.0
 10
37.40654472222222
 20
100.0466488888889
 30
0.0
 10
37.15607249999999
 20
100.98151
 30
0.0
 10
36.90560027777777
 20
101.9163711111111
 30
0.0
 10
37.14548916666666
 20
102.7700933333333
 30
0.0
 10
37.1878225
 20
102.8018433333333
 30
0.0
 10
37.68171138888889
 20
103.1828433333333
 30
0.0
 10
40.71207249999999
 20
103.8883988888889
 30
0.0
 10
45.06535027777777
 20
103.8883988888889
 30
0.0
 10
49.42215583333333
 20
103.8883988888889
 30
0.0
 10
52.44898916666667
 20
103.1828433333333
 30
0.0
 10
52.94640583333332
 20
102.8018433333333
 30
0.0
 10
52.98873916666665
 20
102.7700933333333
 30
0.0
 10
53.22862805555555
 20
101.9163711111111
 30
0.0
 10
52.97815583333333
 20
100.98151
 30
0.0
 10
52.7276836111111
 20
100.0466488888889
 30
0.0
 10
52.53718361111111
 20
99.5351211111111
 30
0.0
 10
52.47721138888888
 20
99.30228777777778
 30
0.0
 10
52.17488083333333
 20
98.17692666666666
 30
0.0
 10
51.87290305555554
 20
97.05156555555556
 30
0.0
 10
51.5705725
 20
95.92620444444444
 30
0.0
 10
52.53612527777777
 20
95.66620722222221
 30
0.0
 10
53.50132527777777
 20
95.40656277777778
 30
0.0
 10
54.46687805555555
 20
95.14656555555557
 30
0.0
 10
54.76920861111111
 20
96.272985
 30
0.0
 10
55.07118638888889
 20
97.3997572222222
 30
0.0
 10
55.37351694444443
 20
98.52617666666667
 30
0.0
 10
55.43348916666666
 20
98.75900999999999
 30
0.0
 10
55.52873916666665
 20
99.29523222222223
 30
0.0
 10
55.77921138888889
 20
100.2300933333333
 30
0.0
 10
56.0296836111111
 20
101.1649544444444
 30
0.0
 10
56.66115583333333
 20
101.7858433333333
 30
0.0
 10
56.71760027777777
 20
101.7928988888889
 30
0.0
 10
57.65598916666666
 20
101.9198988888889
 30
0.0
 10
61.49068361111111
 20
100.0748711111111
 30
0.0
 10
62.19271138888888
 20
99.30228777777778
 30
0.0
 10
62.22798916666665
 20
99.26348222222221
 30
0.0
 10
62.23857249999999
 20
98.37448222222223
 30
0.0
 10
61.75173916666666
 20
97.53487111111112
 30
0.0
 10
61.2684336111111
 20
96.69878777777778
 30
0.0
 10
60.95446138888888
 20
96.25076
 30
0.0
 10
60.83451694444444
 20
96.0426211111111
 30
0.0
 10
60.24996416666666
 20
95.03367666666665
 30
0.0
 10
59.66576416666666
 20
94.02473222222221
 30
0.0
 10
59.08121138888888
 20
93.01578777777777
 30
0.0
 10
59.94657527777778
 20
92.51484333333333
 30
0.0
 10
60.81229194444444
 20
92.01389888888887
 30
0.0
 10
61.67765583333333
 20
91.51295444444445
 30
0.0
 10
62.26220861111111
 20
92.52295722222223
 30
0.0
 10
62.84640861111111
 20
93.53331277777777
 30
0.0
 10
63.43096138888889
 20
94.54331555555555
 30
0.0
 10
63.55090583333332
 20
94.75145444444445
 30
0.0
 10
63.78021138888888
 20
95.24534333333332
 30
0.0
 10
64.26351694444443
 20
96.08495444444443
 30
0.0
 10
64.74329472222222
 20
96.91398222222223
 30
0.0
 10
65.5088225
 20
97.34789888888888
 30
0.0
 10
65.5723225
 20
97.34789888888888
 30
0.0
 10
66.51423916666666
 20
97.21737111111112
 30
0.0
 10
69.61162805555554
 20
94.43395444444444
 30
0.0
 10
70.0808225
 20
93.49909333333333
 30
0.0
 10
70.10551694444443
 20
93.45323222222223
 30
0.0
 10
69.88326694444444
 20
92.59245444444444
 30
0.0
 10
69.19887805555555
 20
91.90806555555557
 30
0.0
 10
68.51448916666666
 20
91.22367666666668
 30
0.0
 10
68.0946836111111
 20
90.87442666666666
 30
0.0
 10
67.92535027777777
 20
90.70509333333332
 30
0.0
 10
67.09985027777776
 20
89.88206277777778
 30
0.0
 10
66.27435027777777
 20
89.05867944444444
 30
0.0
 10
65.44885027777777
 20
88.23564888888889
 30
0.0
 10
66.15546416666666
 20
87.52762388888888
 30
0.0
 10
66.86243083333332
 20
86.81995166666667
 30
0.0
 10
67.56904472222222
 20
86.11192666666668
 30
0.0
 10
68.39454472222222
 20
86.93636833333333
 30
0.0
 10
69.22004472222221
 20
87.76045722222221
 30
0.0
 10
70.04554472222222
 20
88.58489888888889
 30
0.0
 10
70.21487805555554
 20
88.75423222222221
 30
0.0
 10
70.56412805555554
 20
89.17403777777777
 30
0.0
 10
71.24851694444445
 20
89.85489888888888
 30
0.0
 10
71.93290583333332
 20
90.53928777777776
 30
0.0
 10
72.79015583333332
 20
90.76153777777779
 30
0.0
 10
72.83954472222221
 20
90.73684333333334
 30
0.0
 10
73.7144336111111
 20
90.36995444444445
 30
0.0
 10
75.94751694444444
 20
86.94448222222222
 30
0.0
 10
76.1591836111111
 20
85.92142666666666
 30
0.0
 10
76.16976694444443
 20
85.86851
 30
0.0
 10
75.7323225
 20
85.09592666666666
 30
0.0
 10
74.89271138888888
 20
84.61262111111111
 30
0.0
 10
74.05310027777777
 20
84.12931555555555
 30
0.0
 10
73.5556836111111
 20
83.90001
 30
0.0
 10
73.35107249999999
 20
83.78359333333333
 30
0.0
 10
72.3396586111111
 20
83.20151
 30
0.0
 10
71.3285975
 20
82.61942666666666
 30
0.0
 10
70.3171836111111
 20
82.03734333333334
 30
0.0
 10
70.8156586111111
 20
81.17056833333334
 30
0.0
 10
71.31448638888888
 20
80.30414611111111
 30
0.0
 10
71.81296138888888
 20
79.4373711111111
 30
0.0
 10
72.82437527777778
 20
80.01945444444445
 30
0.0
 10
73.83543638888888
 20
80.60153777777778
 30
0.0
 10
74.84685027777778
 20
81.18362111111111
 30
0.0
 10
75.05146138888888
 20
81.30356555555555
 30
0.0
 10
75.49948916666666
 20
81.61401000000001
 30
0.0
 10
76.33910027777776
 20
82.09731555555555
 30
0.0
 10
77.17871138888889
 20
82.58062111111111
 30
0.0
 10
78.06065583333333
 20
82.57003777777777
 30
0.0
 10
78.11004472222221
 20
82.53475999999999
 30
0.0
 10
78.85793361111111
 20
81.95620444444444
 30
0.0
 10
80.1455725
 20
78.17089888888889
 30
0.0
 10
80.09265583333332
 20
77.13020444444444
 30
0.0
 10
80.09265583333332
 20
77.07728777777778
 30
0.0
 10
79.46823916666666
 20
76.44228777777778
 30
0.0
 10
78.53337805555554
 20
76.19181555555556
 30
0.0
 10
77.59851694444444
 20
75.94134333333334
 30
0.0
 10
77.06229472222222
 20
75.84609333333333
 30
0.0
 10
76.82946138888889
 20
75.78612111111111
 30
0.0
 10
75.70304194444444
 20
75.48379055555556
 30
0.0
 10
74.57626972222222
 20
75.18181277777778
 30
0.0
 10
73.44985027777777
 20
74.87948222222221
 30
0.0
 10
73.70843638888888
 20
73.91392944444443
 30
0.0
 10
73.96737527777778
 20
72.94872944444444
 30
0.0
 10
74.22596138888889
 20
71.98317666666667
 30
0.0
 10
75.35238083333333
 20
72.28550722222222
 30
0.0
 10
76.47915305555556
 20
72.587485
 30
0.0
 10
77.6055725
 20
72.88981555555556
 30
0.0
 10
77.83840583333333
 20
72.94978777777779
 30
0.0
 10
78.34993361111111
 20
73.14028777777777
 30
0.0
 10
79.28479472222222
 20
73.39076
 30
0.0
 10
80.21965583333332
 20
73.64123222222221
 30
0.0
 10
81.07337805555555
 20
73.4048711111111
 30
0.0
 10
81.10512805555555
 20
73.35901
 30
0.0
 10
81.58137805555555
 20
72.62170444444445
 30
0.0
 10
82.31162805555554
 20
70.64967666666666
 30
0.0
 10
81.47201694444443
 20
69.81359333333333
 30
0.0
  0
SPLINE
  5
B6
330
1F
100
AcDbEntity
  8
DEFAULT
 62
     1
100
AcDbSpline
210
0.0
220
0.0
230
1.0
 70
    11
 71
     3
 72
    44
 73
    40
 74
     0
 42
0.000000001
 43
0.0000000001
 40
1.0
 40
1.0
 40
1.0
 40
1.0
 40
2.0
 40
2.0
 40
2.0
 40
3.0
 40
3.0
 40
3.0
 40
4.0
 40
4.0
 40
4.0
 40
6.840000000000003
 40
6.840000000000003
 40
6.840000000000003
 40
7.840000000000003
 40
7.840000000000003
 40
7.840000000000003
 40
10.67
 40
10.67
 40
10.67
 40
11.67
 40
11.67
 40
11.67
 40
12.67
 40
12.67
 40
12.67
 40
13.67
 40
13.67
 40
13.67
 40
14.67
 40
14.67
 40
14.67
 40
15.67
 40
15.67
 40
15.67
 40
16.67
 40
16.67
 40
16.67
 40
17.67
 40
17.67
 40
17.67
 40
17.67
 10
127.7426677777778
 20
17.36135861111111
 30
0.0
 10
127.7215011111111
 20
16.75458083333333
 30
0.0
 10
125.1321122222222
 20
17.36488638888888
 30
0.0
 10
124.2678066666667
 20
17.36135861111111
 30
0.0
 10
124.2078344444444
 20
17.36488638888888
 30
0.0
 10
123.7633344444445
 20
18.48319194444444
 30
0.0
 10
123.7633344444445
 20
19.86255305555555
 30
0.0
 10
123.7633344444445
 20
21.24544194444444
 30
0.0
 10
123.8127233333333
 20
22.02155305555555
 30
0.0
 10
123.8127233333333
 20
22.3637475
 30
0.0
 10
123.8127233333333
 20
22.69771046296296
 30
0.0
 10
123.8127233333333
 20
23.03167342592593
 30
0.0
 10
123.8127233333333
 20
23.36563638888889
 30
0.0
 10
122.8133038888889
 20
23.36457805555555
 30
0.0
 10
121.8135316666667
 20
23.36316694444444
 30
0.0
 10
120.8141122222222
 20
23.36210861111111
 30
0.0
 10
120.8141122222222
 20
23.02932157407407
 30
0.0
 10
120.8141122222222
 20
22.69653453703704
 30
0.0
 10
120.8141122222222
 20
22.3637475
 30
0.0
 10
120.8141122222222
 20
22.01802527777777
 30
0.0
 10
120.8635011111111
 20
21.24544194444444
 30
0.0
 10
120.8635011111111
 20
19.86608083333333
 30
0.0
 10
120.8635011111111
 20
18.48319194444444
 30
0.0
 10
120.4154733333333
 20
17.36488638888888
 30
0.0
 10
120.3625566666667
 20
17.36488638888888
 30
0.0
 10
119.4982511111111
 20
17.36135861111111
 30
0.0
 10
116.9194455555556
 20
16.75105305555556
 30
0.0
 10
116.8912233333333
 20
17.35430305555555
 30
0.0
 10
116.8876955555556
 20
17.35783083333333
 30
0.0
 10
121.9041955555555
 20
49.11488638888888
 30
0.0
 10
121.9077233333333
 20
49.12899749999999
 30
0.0
 10
121.9641677777778
 20
49.41121972222221
 30
0.0
 10
122.0911677777778
 20
49.61935861111111
 30
0.0
 10
122.3028344444444
 20
49.62288638888888
 30
0.0
 10
122.5250844444444
 20
49.61935861111111
 30
0.0
 10
122.65914
 20
49.39005305555555
 30
0.0
 10
122.7050011111111
 20
49.08666416666667
 30
0.0
 10
123.9573622222222
 20
41.15621972222222
 30
0.0
 10
127.7426677777778
 20
17.36135861111111
 30
0.0
 10
127.7426677777778
 20
17.36135861111111
 30
0.0
  0
ENDSEC
  0
SECTION
  2
OBJECTS
  0
DICTIONARY
  5
C
330
0
100
AcDbDictionary
  3
ACAD_GROUP
350
D
  3
ACAD_LAYOUT
350
1A
  3
ACAD_MATERIAL
350
43
  3
ACAD_MLEADERSTYLE
350
D9
  3
ACAD_MLINESTYLE
350
17
  3
ACAD_PLOTSETTINGS
350
19
  3
ACAD_SCALELIST
350
47
  3
ACAD_VISUALSTYLE
350
2A
  3
ACDBHEADERROUNDTRIPXREC
350
B7
  3
ACDBVARIABLEDICTIONARY
350
D7
  0
DICTIONARY
  5
D
102
{ACAD_REACTORS
330
C
102
}
330
C
100
AcDbDictionary
  0
DICTIONARY
  5
1A
102
{ACAD_REACTORS
330
C
102
}
330
C
100
AcDbDictionary
  0
DICTIONARY
  5
43
102
{ACAD_REACTORS
330
C
102
}
330
C
100
AcDbDictionary
  3
BYBLOCK
350
45
  3
BYLAYER
350
44
  3
GLOBAL
350
46
  0
DICTIONARY
  5
D9
102
{ACAD_REACTORS
330
C
102
}
330
C
100
AcDbDictionary
  0
DICTIONARY
  5
17
102
{ACAD_REACTORS
330
C
102
}
330
C
100
AcDbDictionary
  3
STANDARD
350
18
  0
DICTIONARY
  5
19
102
{ACAD_REACTORS
330
C
102
}
330
C
100
AcDbDictionary
  0
DICTIONARY
  5
47
102
{ACAD_REACTORS
330
C
102
}
330
C
100
AcDbDictionary
  3
A0
350
48
  3
A1
350
49
  3
A2
350
4A
  3
A3
350
4B
  3
A4
350
4C
  3
A5
350
4D
  3
A6
350
4E
  3
A7
350
4F
  3
A8
350
50
  3
A9
350
51
  3
B0
350
52
  3
B1
350
53
  3
B2
350
54
  3
B3
350
55
  3
B4
350
56
  3
B5
350
57
  3
B6
350
58
  3
B7
350
59
  3
B8
350
5A
  3
B9
350
5B
  3
C0
350
5C
  3
C1
350
5D
  3
C2
350
5E
  3
C3
350
5F
  3
C4
350
60
  3
C5
350
61
  3
C6
350
62
  3
C7
350
63
  3
C8
350
64
  3
C9
350
65
  3
D0
350
66
  3
D1
350
67
  3
D2
350
68
  0
DICTIONARY
  5
2A
102
{ACAD_REACTORS
330
C
102
}
330
C
100
AcDbDictionary
  3
2DWIREFRAME
350
2F
  3
BASIC
350
32
  3
BRIGHTEN
350
36
  3
COLORCHANGE
350
3A
  3
CONCEPTUAL
350
34
  3
DIM
350
35
  3
EDGECOLOROFF
350
3D
  3
FACEPATTERN
350
39
  3
FLAT
350
2B
  3
FLATWITHEDGES
350
2C
  3
GOURAUD
350
2D
  3
GOURAUDWITHEDGES
350
2E
  3
HIDDEN
350
31
  3
JITTEROFF
350
3B
  3
LINEPATTERN
350
38
  3
OVERHANGOFF
350
3C
  3
REALISTIC
350
33
  3
SHADED
350
42
  3
SHADED_WITH_EDGES
350
41
  3
SHADES_OF_GRAY
350
3E
  3
SKETCHY
350
3F
  3
THICKEN
350
37
  3
WIREFRAME
350
30
  3
X-RAY
350
40
  0
DICTIONARY
  5
B7
102
{ACAD_REACTORS
330
C
102
}
330
C
100
AcDbDictionary
  3
CEPSNTYPE
350
C0
  3
DIMSTYLEDATA
350
D6
  3
FINGERPRINTGUID
350
C1
  3
HYPERLINKBASE
350
BA
  3
INSUNITS
350
BF
  3
LAYOUTDICT
350
BC
  3
LWETCUNION
350
BE
  3
PLOTSETDICT
350
BD
  3
PSVPSCALE
350
C3
  3
PUCSBASE
350
C6
  3
PUCSORGBACK
350
CC
  3
PUCSORGBOTTOM
350
C8
  3
PUCSORGFRONT
350
CB
  3
PUCSORGLEFT
350
C9
  3
PUCSORGRIGHT
350
CA
  3
PUCSORGTOP
350
C7
  3
PUCSORTHOREF
350
C4
  3
PUCSORTHOVIEW
350
C5
  3
STYLESHEET
350
BB
  3
TSTACKALIGN
350
B8
  3
TSTACKSIZE
350
B9
  3
UCSBASE
350
CF
  3
UCSORGBACK
350
D5
  3
UCSORGBOTTOM
350
D1
  3
UCSORGFRONT
350
D4
  3
UCSORGLEFT
350
D2
  3
UCSORGRIGHT
350
D3
  3
UCSORGTOP
350
D0
  3
UCSORTHOREF
350
CD
  3
UCSORTHOVIEW
350
CE
  3
VERSIONGUID
350
C2
  0
DICTIONARY
  5
D7
102
{ACAD_REACTORS
330
C
102
}
330
C
100
AcDbDictionary
  3
CANNOSCALE
350
DE
  3
DIMASSOC
350
DC
  3
HIDETEXT
350
DD
  3
MSLTSCALE
350
DF
  0
MATERIAL
  5
45
102
{ACAD_REACTORS
330
43
102
}
102
{ACAD_XDICTIONARY
360
E2
102
}
330
43
100
AcDbMaterial
  1
BYBLOCK
  0
MATERIAL
  5
44
102
{ACAD_REACTORS
330
43
102
}
102
{ACAD_XDICTIONARY
360
E0
102
}
330
43
100
AcDbMaterial
  1
BYLAYER
  0
MATERIAL
  5
46
102
{ACAD_REACTORS
330
43
102
}
102
{ACAD_XDICTIONARY
360
E4
102
}
330
43
100
AcDbMaterial
  1
GLOBAL
  0
MLINESTYLE
  5
18
102
{ACAD_REACTORS
330
17
102
}
330
17
100
AcDbMlineStyle
  2
Standard
 70
     0
  3

 62
   256
 51
90.0
 52
90.0
 71
     2
 49
0.5
 62
   256
  6
BYLAYER
 49
-0.5
 62
   256
  6
BYLAYER
  0
ACAD_PROXY_OBJECT
  5
48
102
{ACAD_REACTORS
330
47
102
}
330
47
100
AcDbProxyObject
 90
      499
 91
      503
 93
       41
310
903313A31580
  0
ACAD_PROXY_OBJECT
  5
49
102
{ACAD_REACTORS
330
47
102
}
330
47
100
AcDbProxyObject
 90
      499
 91
      503
 93
      105
310
903313A324000000000000004000
  0
ACAD_PROXY_OBJECT
  5
4A
102
{ACAD_REACTORS
330
47
102
}
330
47
100
AcDbProxyObject
 90
      499
 91
      503
 93
      105
310
903313A344000000000000104000
  0
ACAD_PROXY_OBJECT
  5
4B
102
{ACAD_REACTORS
330
47
102
}
330
47
100
AcDbProxyObject
 90
      499
 91
      503
 93
      105
310
903313A354000000000000144000
  0
ACAD_PROXY_OBJECT
  5
4C
102
{ACAD_REACTORS
330
47
102
}
330
47
100
AcDbProxyObject
 90
      499
 91
      503
 93
      105
310
903313A384000000000000204000
  0
ACAD_PROXY_OBJECT
  5
4D
102
{ACAD_REACTORS
330
47
102
}
330
47
100
AcDbProxyObject
 90
      499
 91
      503
 93
      113
310
904313A31304000000000000244000
  0
ACAD_PROXY_OBJECT
  5
4E
102
{ACAD_REACTORS
330
47
102
}
330
47
100
AcDbProxyObject
 90
      499
 91
      503
 93
      113
310
904313A31364000000000000304000
  0
ACAD_PROXY_OBJECT
  5
4F
102
{ACAD_REACTORS
330
47
102
}
330
47
100
AcDbProxyObject
 90
      499
 91
      503
 93
      113
310
904313A32304000000000000344000
  0
ACAD_PROXY_OBJECT
  5
50
102
{ACAD_REACTORS
330
47
102
}
330
47
100
AcDbProxyObject
 90
      499
 91
      503
 93
      113
310
904313A333040000000000003E4000
  0
ACAD_PROXY_OBJECT
  5
51
102
{ACAD_REACTORS
330
47
102
}
330
47
100
AcDbProxyObject
 90
      499
 91
      503
 93
      113
310
904313A34304000000000000444000
  0
ACAD_PROXY_OBJECT
  5
52
102
{ACAD_REACTORS
330
47
102
}
330
47
100
AcDbProxyObject
 90
      499
 91
      503
 93
      113
310
904313A35304000000000000494000
  0
ACAD_PROXY_OBJECT
  5
53
102
{ACAD_REACTORS
330
47
102
}
330
47
100
AcDbProxyObject
 90
      499
 91
      503
 93
      121
310
905313A3130304000000000000594000
  0
ACAD_PROXY_OBJECT
  5
54
102
{ACAD_REACTORS
330
47
102
}
330
47
100
AcDbProxyObject
 90
      499
 91
      503
 93
      105
310
903323A310000000000000010100
  0
ACAD_PROXY_OBJECT
  5
55
102
{ACAD_REACTORS
330
47
102
}
330
47
100
AcDbProxyObject
 90
      499
 91
      503
 93
      105
310
903343A310000000000000410100
  0
ACAD_PROXY_OBJECT
  5
56
102
{ACAD_REACTORS
330
47
102
}
330
47
100
AcDbProxyObject
 90
      499
 91
      503
 93
      105
310
903383A310000000000000810100
  0
ACAD_PROXY_OBJECT
  5
57
102
{ACAD_REACTORS
330
47
102
}
330
47
100
AcDbProxyObject
 90
      499
 91
      503
 93
      113
310
90431303A310000000000000910100
  0
ACAD_PROXY_OBJECT
  5
58
102
{ACAD_REACTORS
330
47
102
}
330
47
100
AcDbProxyObject
 90
      499
 91
      503
 93
      121
310
9053130303A310000000000001650100
  0
ACAD_PROXY_OBJECT
  5
59
102
{ACAD_REACTORS
330
47
102
}
330
47
100
AcDbProxyObject
 90
      499
 91
      503
 93
      257
310
90E312F31323822203D2031272D3022000000000000200FC000000000000284000
  0
ACAD_PROXY_OBJECT
  5
5A
102
{ACAD_REACTORS
330
47
102
}
330
47
100
AcDbProxyObject
 90
      499
 91
      503
 93
      249
310
90D312F363422203D2031272D3022000000000000240FC000000000000284000
  0
ACAD_PROXY_OBJECT
  5
5B
102
{ACAD_REACTORS
330
47
102
}
330
47
100
AcDbProxyObject
 90
      499
 91
      503
 93
      249
310
90D312F333222203D2031272D3022000000000000280FC000000000000284000
  0
ACAD_PROXY_OBJECT
  5
5C
102
{ACAD_REACTORS
330
47
102
}
330
47
100
AcDbProxyObject
 90
      499
 91
      503
 93
      249
310
90D312F313622203D2031272D30220000000000002C0FC000000000000284000
  0
ACAD_PROXY_OBJECT
  5
5D
102
{ACAD_REACTORS
330
47
102
}
330
47
100
AcDbProxyObject
 90
      499
 91
      503
 93
      249
310
90D332F333222203D2031272D30220000000000002E0FC000000000000284000
  0
ACAD_PROXY_OBJECT
  5
5E
102
{ACAD_REACTORS
330
47
102
}
330
47
100
AcDbProxyObject
 90
      499
 91
      503
 93
      241
310
90C312F3822203D2031272D3022000000000000300FC000000000000284000
  0
ACAD_PROXY_OBJECT
  5
5F
102
{ACAD_REACTORS
330
47
102
}
330
47
100
AcDbProxyObject
 90
      499
 91
      503
 93
      249
310
90D332F313622203D2031272D3022000000000000320FC000000000000284000
  0
ACAD_PROXY_OBJECT
  5
60
102
{ACAD_REACTORS
330
47
102
}
330
47
100
AcDbProxyObject
 90
      499
 91
      503
 93
      241
310
90C312F3422203D2031272D3022000000000000340FC000000000000284000
  0
ACAD_PROXY_OBJECT
  5
61
102
{ACAD_REACTORS
330
47
102
}
330
47
100
AcDbProxyObject
 90
      499
 91
      503
 93
      241
310
90C332F3822203D2031272D3022000000000000360FC000000000000284000
  0
ACAD_PROXY_OBJECT
  5
62
102
{ACAD_REACTORS
330
47
102
}
330
47
100
AcDbProxyObject
 90
      499
 91
      503
 93
      241
310
90C312F3222203D2031272D3022000000000000380FC000000000000284000
  0
ACAD_PROXY_OBJECT
  5
63
102
{ACAD_REACTORS
330
47
102
}
330
47
100
AcDbProxyObject
 90
      499
 91
      503
 93
      241
310
90C332F3422203D2031272D30220000000000003A0FC000000000000284000
  0
ACAD_PROXY_OBJECT
  5
64
102
{ACAD_REACTORS
330
47
102
}
330
47
100
AcDbProxyObject
 90
      499
 91
      503
 93
      161
310
90A3122203D2031272D30224000000000000284000
  0
ACAD_PROXY_OBJECT
  5
65
102
{ACAD_REACTORS
330
47
102
}
330
47
100
AcDbProxyObject
 90
      499
 91
      503
 93
      257
310
90E312D312F3222203D2031272D30220000000000003E0FC000000000000284000
  0
ACAD_PROXY_OBJECT
  5
66
102
{ACAD_REACTORS
330
47
102
}
330
47
100
AcDbProxyObject
 90
      499
 91
      503
 93
      225
310
90A3322203D2031272D302200000000000002100000000000000284000
  0
ACAD_PROXY_OBJECT
  5
67
102
{ACAD_REACTORS
330
47
102
}
330
47
100
AcDbProxyObject
 90
      499
 91
      503
 93
      225
310
90A3622203D2031272D302200000000000006100000000000000284000
  0
ACAD_PROXY_OBJECT
  5
68
102
{ACAD_REACTORS
330
47
102
}
330
47
100
AcDbProxyObject
 90
      499
 91
      503
 93
      249
310
90D31272D3022203D2031272D30220000000000000A100000000000000284000
  0
ACAD_PROXY_OBJECT
  5
2F
102
{ACAD_REACTORS
330
2A
102
}
330
2A
100
AcDbProxyObject
 90
      499
 91
      501
 93
      436
310
42CC9915DA5C99599C985B595049028333333333333E33F0000000000000F90107901411070040501600405405064090741402480A0340
1001
ACAD
1000
AcDbSavedByObjectVersion
1070
     0
  0
ACAD_PROXY_OBJECT
  5
32
102
{ACAD_REACTORS
330
2A
102
}
330
2A
100
AcDbProxyObject
 90
      499
 91
      501
 93
      388
310
4150985CDA58D07406404333333333333E33F0000000000000F90107A41107004050150841D405064090741402480A0350
1001
ACAD
1000
AcDbSavedByObjectVersion
1070
     0
  0
ACAD_PROXY_OBJECT
  5
36
102
{ACAD_REACTORS
330
2A
102
}
330
2A
100
AcDbProxyObject
 90
      499
 91
      501
 93
      428
310
42109C9A59DA1D195B90C409028333333333333E33F0000000000000F9010790141107004050150841D405064090741402480A029950
1001
ACAD
1000
AcDbSavedByObjectVersion
1070
     0
  0
ACAD_PROXY_OBJECT
  5
3A
102
{ACAD_REACTORS
330
2A
102
}
330
2A
100
AcDbProxyObject
 90
      499
 91
      501
 93
      452
310
42D0DBDB1BDC90DA185B99D95104090240C333333333333E33F0000000000000F90108901411070040501508421405064090741402480A0350
1001
ACAD
1000
AcDbSavedByObjectVersion
1070
     0
  0
ACAD_PROXY_OBJECT
  5
34
102
{ACAD_REACTORS
330
2A
102
}
330
2A
100
AcDbProxyObject
 90
      499
 91
      501
 93
      500
310
4290DBDB98D95C1D1D585B10940D028333333333333E33F0000000000000F90107902409070040501000000000018199010841D405064090740C02480A0340
1001
ACAD
1000
AcDbSavedByObjectVersion
1070
     0
  0
ACAD_PROXY_OBJECT
  5
35
102
{ACAD_REACTORS
330
2A
102
}
330
2A
100
AcDbProxyObject
 90
      499
 91
      501
 93
      412
310
40D11A5B50B409028333333333333E33F0000000000000F9010790141107004050150841D405064090741402480A02677FFFFFD0
1001
ACAD
1000
AcDbSavedByObjectVersion
1070
     0
  0
ACAD_PROXY_OBJECT
  5
3D
102
{ACAD_REACTORS
330
2A
102
}
330
2A
100
AcDbProxyObject
 90
      499
 91
      501
 93
      452
310
43115919D950DBDB1BDC93D999916409028333333333333E33F0000000000000F9010790141107004050150841D405064090741402480A0350
1001
ACAD
1000
AcDbSavedByObjectVersion
1070
     0
  0
ACAD_PROXY_OBJECT
  5
39
102
{ACAD_REACTORS
330
2A
102
}
330
2A
100
AcDbProxyObject
 90
      499
 91
      501
 93
      444
310
42D19858D95C185D1D195C9B90F409028333333333333E33F0000000000000F9010790141107004050150841D405064090741402480A0350
1001
ACAD
1000
AcDbSavedByObjectVersion
1070
     0
  0
ACAD_PROXY_OBJECT
  5
2B
102
{ACAD_REACTORS
330
2A
102
}
330
2A
100
AcDbProxyObject
 90
      499
 91
      501
 93
      380
310
41119B185D240901404333333333333E33F0000000000000F9010740A907004050150841D405064090741402480A1B50
1001
ACAD
1000
AcDbSavedByObjectVersion
1070
     0
  0
ACAD_PROXY_OBJECT
  5
2C
102
{ACAD_REACTORS
330
2A
102
}
330
2A
100
AcDbProxyObject
 90
      499
 91
      501
 93
      468
310
43519B185D15DA5D1A115919D95CD0140901404333333333333E33F0000000000000F90107409019070040501600405405064090741402480A1B50
1001
ACAD
1000
AcDbSavedByObjectVersion
1070
     0
  0
ACAD_PROXY_OBJECT
  5
2D
102
{ACAD_REACTORS
330
2A
102
}
330
2A
100
AcDbProxyObject
 90
      499
 91
      501
 93
      404
310
41D1DBDD5C985D5910240902404333333333333E33F0000000000000F9010740A9070040501641D405064090741402480A1B50
1001
ACAD
1000
AcDbSavedByObjectVersion
1070
     0
  0
ACAD_PROXY_OBJECT
  5
2E
102
{ACAD_REACTORS
330
2A
102
}
330
2A
100
AcDbProxyObject
 90
      499
 91
      501
 93
      492
310
4411DBDD5C985D5915DA5D1A115919D95CD0340902404333333333333E33F0000000000000F90107409019070040501600405405064090741402480A1B50
1001
ACAD
1000
AcDbSavedByObjectVersion
1070
     0
  0
ACAD_PROXY_OBJECT
  5
31
102
{ACAD_REACTORS
330
2A
102
}
330
2A
100
AcDbProxyObject
 90
      499
 91
      501
 93
      476
310
41921A5919195B90640502408333333333333E33F0000000000000F901079024090700405020000000000001110200405405064090740C02480A0340
1001
ACAD
1000
AcDbSavedByObjectVersion
1070
     0
  0
ACAD_PROXY_OBJECT
  5
3B
102
{ACAD_REACTORS
330
2A
102
}
330
2A
100
AcDbProxyObject
 90
      499
 91
      501
 93
      428
310
42529A5D1D195C93D999914409028333333333333E33F0000000000000F9010790141107004050150A41D405064090741402480A0350
1001
ACAD
1000
AcDbSavedByObjectVersion
1070
     0
  0
ACAD_PROXY_OBJECT
  5
38
102
{ACAD_REACTORS
330
2A
102
}
330
2A
100
AcDbProxyObject
 90
      499
 91
      501
 93
      444
310
42D31A5B995C185D1D195C9B90E409028333333333333E33F0000000000000F9010790141107004050750841D405064090741402483A0350
1001
ACAD
1000
AcDbSavedByObjectVersion
1070
     0
  0
ACAD_PROXY_OBJECT
  5
3C
102
{ACAD_REACTORS
330
2A
102
}
330
2A
100
AcDbProxyObject
 90
      499
 91
      501
 93
      444
310
42D3DD995C9A185B99D3D999915409028333333333333E33F0000000000000F9010790141107004050150941D405064090741402480A0350
1001
ACAD
1000
AcDbSavedByObjectVersion
1070
     0
  0
ACAD_PROXY_OBJECT
  5
33
102
{ACAD_REACTORS
330
2A
102
}
330
2A
100
AcDbProxyObject
 90
      499
 91
      501
 93
      428
310
425499585B1A5CDD1A58D08409038333333333333E33F0000000000000F9010740A907004050150800405405064090740C02480A1B40
1001
ACAD
1000
AcDbSavedByObjectVersion
1070
     0
  0
ACAD_PROXY_OBJECT
  5
42
102
{ACAD_REACTORS
330
2A
102
}
330
2A
100
AcDbProxyObject
 90
      499
 91
      501
 93
      420
310
4194DA1859195911B40902404333333333333E33F0000000000000F9010740A41107004050150800405405064090840C02480A0B40
1001
ACAD
1000
AcDbSavedByObjectVersion
1070
     0
  0
ACAD_PROXY_OBJECT
  5
41
102
{ACAD_REACTORS
330
2A
102
}
330
2A
100
AcDbProxyObject
 90
      499
 91
      501
 93
      516
310
4454DA18591959081DDA5D1A08195919D95CD1A40902404333333333333E33F0000000000000F901074090142907004050250800405405064090740C02480A0B40
1001
ACAD
1000
AcDbSavedByObjectVersion
1070
     0
  0
ACAD_PROXY_OBJECT
  5
3E
102
{ACAD_REACTORS
330
2A
102
}
330
2A
100
AcDbProxyObject
 90
      499
 91
      501
 93
      532
310
4394DA1859195CC81BD98811DC985E5174090240C333333333333E33F0000000000000F901079024090741D01000000000000111010841D405064090740C02480A0340
1001
ACAD
1000
AcDbSavedByObjectVersion
1070
     0
  0
ACAD_PROXY_OBJECT
  5
3F
102
{ACAD_REACTORS
330
2A
102
}
330
2A
100
AcDbProxyObject
 90
      499
 91
      501
 93
      476
310
41D4DAD95D18DA1E51840502408333333333333E33F0000000000000F901079024090741D01000000000000111010B41D405064090741802480A0340
1001
ACAD
1000
AcDbSavedByObjectVersion
1070
     0
  0
ACAD_PROXY_OBJECT
  5
37
102
{ACAD_REACTORS
330
2A
102
}
330
2A
100
AcDbProxyObject
 90
      499
 91
      501
 93
      412
310
41D51A1A58DAD95B90D409028333333333333E33F0000000000000F9010790141107004050150C41D405064090741402480A0350
1001
ACAD
1000
AcDbSavedByObjectVersion
1070
     0
  0
ACAD_PROXY_OBJECT
  5
30
102
{ACAD_REACTORS
330
2A
102
}
330
2A
100
AcDbProxyObject
 90
      499
 91
      501
 93
      420
310
4255DA5C99599C985B595059028333333333333E33F0000000000000F90107901411070040501600405405064090740C02480A0340
1001
ACAD
1000
AcDbSavedByObjectVersion
1070
     0
  0
ACAD_PROXY_OBJECT
  5
40
102
{ACAD_REACTORS
330
2A
102
}
330
2A
100
AcDbProxyObject
 90
      499
 91
      501
 93
      404
310
41560B54985E51940902404000000000000E03F0000000000000F9010740501907004050150841D405064090740C02480A1B40
1001
ACAD
1000
AcDbSavedByObjectVersion
1070
     0
  0
XRECORD
  5
C0
102
{ACAD_REACTORS
330
B7
102
}
330
B7
100
AcDbXrecord
 90
        0
  0
XRECORD
  5
D6
102
{ACAD_REACTORS
330
B7
102
}
330
B7
100
AcDbXrecord
1000
DSTYLE
1002
{
1070
   279
 70
     2
1070
   340
340
11
1002
}
  0
XRECORD
  5
C1
102
{ACAD_REACTORS
330
B7
102
}
330
B7
100
AcDbXrecord
  1
{A8042E1B-4C31-46BA-A514-B06D5135CC24}
  0
XRECORD
  5
BA
102
{ACAD_REACTORS
330
B7
102
}
330
B7
100
AcDbXrecord
  1

  0
XRECORD
  5
BF
102
{ACAD_REACTORS
330
B7
102
}
330
B7
100
AcDbXrecord
 90
        4
  0
XRECORD
  5
BC
102
{ACAD_REACTORS
330
B7
102
}
330
B7
100
AcDbXrecord
340
1A
  0
XRECORD
  5
BE
102
{ACAD_REACTORS
330
B7
102
}
330
B7
100
AcDbXrecord
 90
    10781
  0
XRECORD
  5
BD
102
{ACAD_REACTORS
330
B7
102
}
330
B7
100
AcDbXrecord
340
19
  0
XRECORD
  5
C3
102
{ACAD_REACTORS
330
B7
102
}
330
B7
100
AcDbXrecord
 40
0.0
  0
XRECORD
  5
C6
102
{ACAD_REACTORS
330
B7
102
}
330
B7
100
AcDbXrecord
340
0
  0
XRECORD
  5
CC
102
{ACAD_REACTORS
330
B7
102
}
330
B7
100
AcDbXrecord
 10
0.0
 20
0.0
 30
0.0
  0
XRECORD
  5
C8
102
{ACAD_REACTORS
330
B7
102
}
330
B7
100
AcDbXrecord
 10
0.0
 20
0.0
 30
0.0
  0
XRECORD
  5
CB
102
{ACAD_REACTORS
330
B7
102
}
330
B7
100
AcDbXrecord
 10
0.0
 20
0.0
 30
0.0
  0
XRECORD
  5
C9
102
{ACAD_REACTORS
330
B7
102
}
330
B7
100
AcDbXrecord
 10
0.0
 20
0.0
 30
0.0
  0
XRECORD
  5
CA
102
{ACAD_REACTORS
330
B7
102
}
330
B7
100
AcDbXrecord
 10
0.0
 20
0.0
 30
0.0
  0
XRECORD
  5
C7
102
{ACAD_REACTORS
330
B7
102
}
330
B7
100
AcDbXrecord
 10
0.0
 20
0.0
 30
0.0
  0
XRECORD
  5
C4
102
{ACAD_REACTORS
330
B7
102
}
330
B7
100
AcDbXrecord
340
0
  0
XRECORD
  5
C5
102
{ACAD_REACTORS
330
B7
102
}
330
B7
100
AcDbXrecord
 70
     0
  0
XRECORD
  5
BB
102
{ACAD_REACTORS
330
B7
102
}
330
B7
100
AcDbXrecord
  1

  0
XRECORD
  5
B8
102
{ACAD_REACTORS
330
B7
102
}
330
B7
100
AcDbXrecord
 90
        1
  0
XRECORD
  5
B9
102
{ACAD_REACTORS
330
B7
102
}
330
B7
100
AcDbXrecord
 90
       70
  0
XRECORD
  5
CF
102
{ACAD_REACTORS
330
B7
102
}
330
B7
100
AcDbXrecord
340
0
  0
XRECORD
  5
D5
102
{ACAD_REACTORS
330
B7
102
}
330
B7
100
AcDbXrecord
 10
0.0
 20
0.0
 30
0.0
  0
XRECORD
  5
D1
102
{ACAD_REACTORS
330
B7
102
}
330
B7
100
AcDbXrecord
 10
0.0
 20
0.0
 30
0.0
  0
XRECORD
  5
D4
102
{ACAD_REACTORS
330
B7
102
}
330
B7
100
AcDbXrecord
 10
0.0
 20
0.0
 30
0.0
  0
XRECORD
  5
D2
102
{ACAD_REACTORS
330
B7
102
}
330
B7
100
AcDbXrecord
 10
0.0
 20
0.0
 30
0.0
  0
XRECORD
  5
D3
102
{ACAD_REACTORS
330
B7
102
}
330
B7
100
AcDbXrecord
 10
0.0
 20
0.0
 30
0.0
  0
XRECORD
  5
D0
102
{ACAD_REACTORS
330
B7
102
}
330
B7
100
AcDbXrecord
 10
0.0
 20
0.0
 30
0.0
  0
XRECORD
  5
CD
102
{ACAD_REACTORS
330
B7
102
}
330
B7
100
AcDbXrecord
340
0
  0
XRECORD
  5
CE
102
{ACAD_REACTORS
330
B7
102
}
330
B7
100
AcDbXrecord
 70
     0
  0
XRECORD
  5
C2
102
{ACAD_REACTORS
330
B7
102
}
330
B7
100
AcDbXrecord
  1
{FAEB1C32-E019-11D5-929B-00C0DF256EC4}
  0
DICTIONARYVAR
  5
DE
102
{ACAD_REACTORS
330
D7
102
}
330
D7
100
DictionaryVariables
280
     0
  1
1:1
  0
DICTIONARYVAR
  5
DC
102
{ACAD_REACTORS
330
D7
102
}
330
D7
100
DictionaryVariables
280
     0
  1
2
  0
DICTIONARYVAR
  5
DD
102
{ACAD_REACTORS
330
D7
102
}
330
D7
100
DictionaryVariables
280
     0
  1
1
  0
DICTIONARYVAR
  5
DF
102
{ACAD_REACTORS
330
D7
102
}
330
D7
100
DictionaryVariables
280
     0
  1
1
  0
DICTIONARY
  5
E2
330
45
100
AcDbDictionary
280
     1
  3
ACAD_XREC_ROUNDTRIP
360
E3
  0
DICTIONARY
  5
E0
330
44
100
AcDbDictionary
280
     1
  3
ACAD_XREC_ROUNDTRIP
360
E1
  0
DICTIONARY
  5
E4
330
46
100
AcDbDictionary
280
     1
  3
ACAD_XREC_ROUNDTRIP
360
E5
  0
XRECORD
  5
E3
102
{ACAD_REACTORS
330
E2
102
}
330
E2
100
AcDbXrecord
102
MATERIAL
148
0.0
149
0.0
149
0.0
 93
        0
 94
      127
282
     0
 72
     1
 77
     1
171
     1
175
     1
179
     1
273
     0
  0
XRECORD
  5
E1
102
{ACAD_REACTORS
330
E0
102
}
330
E0
100
AcDbXrecord
102
MATERIAL
148
0.0
149
0.0
149
0.0
 93
        0
 94
      127
282
     0
 72
     1
 77
     1
171
     1
175
     1
179
     1
273
     0
  0
XRECORD
  5
E5
102
{ACAD_REACTORS
330
E4
102
}
330
E4
100
AcDbXrecord
102
MATERIAL
148
0.0
149
0.0
149
0.0
 93
        0
 94
      127
282
     0
 72
     1
 77
     1
171
     1
175
     1
179
     1
273
     0
  0
ENDSEC
  0
EOF
